<?xml version="1.0" encoding="utf-8"?>
<!-- Generator: Adobe Illustrator 17.0.0, SVG Export Plug-In . SVG Version: 6.00 Build 0)  -->
<!DOCTYPE svg PUBLIC "-//W3C//DTD SVG 1.1//EN" "http://www.w3.org/Graphics/SVG/1.1/DTD/svg11.dtd">
<svg version="1.1" id="svg6068" xmlns="http://www.w3.org/2000/svg" xmlns:xlink="http://www.w3.org/1999/xlink" x="0px" y="0px"
	 width="700px" height="300px" viewBox="-3.299 178.917 610.299 241.083"
	 enable-background="new -3.299 178.917 610.299 241.083" xml:space="preserve">
	 <style>
         text {
          font-family:Lato,Helvetica,Arial,sans-serif;
         }
         .st1{font-size:6.5035px;}
         .st2{fill:none;stroke:#000000;stroke-miterlimit:10;} .st3{fill:#FFFFFF;} .st4{fill:#B8B8B8;} .st5{fill:none;}
         .st6{font-family:Lato,Helvetica,Arial,sans-serif;}
         .st7{font-size:12px;}
       </style>
<path id="path3694" fill="#231F20" d="M242.328,188.665c3.06,3.06,3.06,8.053,0,11.113c-3.06,3.06-8.053,3.06-11.113,0
	c-3.06-3.06-3.06-8.053,0-11.113C234.437,185.444,239.268,185.444,242.328,188.665"/>
<g id="g3696">
	<path id="path3698" fill="#FFFFFF" stroke="#231F20" stroke-miterlimit="10" d="M242.329,188.665c3.06,3.06,3.06,8.053,0,11.113
		c-3.06,3.06-8.053,3.06-11.113,0c-3.06-3.06-3.06-8.053,0-11.113C234.437,185.444,239.269,185.444,242.329,188.665"/>
</g>
<path id="path3700" fill="#231F20" d="M281.625,188.665c3.06,3.06,3.06,8.053,0,11.113s-8.053,3.06-11.113,0
	c-3.06-3.06-3.06-8.053,0-11.113C273.573,185.444,278.565,185.444,281.625,188.665"/>
<g id="g3702">
	<path id="path3704" fill="#FFFFFF" stroke="#231F20" stroke-miterlimit="10" d="M281.625,188.665c3.06,3.06,3.06,8.053,0,11.113
		c-3.06,3.06-8.053,3.06-11.113,0c-3.06-3.06-3.06-8.053,0-11.113C273.573,185.444,278.565,185.444,281.625,188.665"/>
</g>
<path id="path3706" fill="#231F20" d="M242.328,227.801c3.06,3.06,3.06,8.053,0,11.113c-3.06,3.06-8.053,3.06-11.113,0
	c-3.06-3.06-3.06-8.053,0-11.113C234.437,224.741,239.268,224.741,242.328,227.801"/>
<g id="g3708">
	<path id="path3710" fill="#A7A5A6" stroke="#231F20" stroke-miterlimit="10" d="M242.329,227.801c3.06,3.06,3.06,8.053,0,11.113
		c-3.06,3.06-8.053,3.06-11.113,0c-3.06-3.06-3.06-8.053,0-11.113C234.437,224.741,239.269,224.741,242.329,227.801"/>
</g>
<path id="path3712" fill="#231F20" d="M281.625,227.801c3.06,3.06,3.06,8.053,0,11.113s-8.053,3.06-11.113,0
	c-3.06-3.06-3.06-8.053,0-11.113C273.573,224.741,278.565,224.741,281.625,227.801"/>
<g id="g3714">
	<path id="path3716" fill="#A7A5A6" stroke="#231F20" stroke-miterlimit="10" d="M281.625,227.801c3.06,3.06,3.06,8.053,0,11.113
		c-3.06,3.06-8.053,3.06-11.113,0c-3.06-3.06-3.06-8.053,0-11.113C273.573,224.741,278.565,224.741,281.625,227.801"/>
</g>
<g id="g3718">
	<path id="path3720" fill="#231F20" stroke="#231F20" stroke-miterlimit="10" d="M244.744,194.141h14.978"/>
</g>
<path id="path3722" fill="#231F20" d="M266.647,194.141l-6.925-2.577v5.315L266.647,194.141L266.647,194.141z"/>
<g id="g3724">
	<path id="path3726" fill="#231F20" stroke="#231F20" stroke-miterlimit="10" d="M266.647,194.141l-6.925-2.577v5.315
		L266.647,194.141L266.647,194.141z"/>
</g>
<g id="g3728">
	<path id="path3730" fill="#231F20" stroke="#231F20" stroke-miterlimit="10" d="M236.853,202.033v14.978"/>
</g>
<path id="path3732" fill="#231F20" d="M236.853,223.935l2.577-6.925h-5.315L236.853,223.935z"/>
<g id="g3734">
	<path id="path3736" fill="#231F20" stroke="#231F20" stroke-miterlimit="10" d="M236.853,223.936l2.577-6.925h-5.315
		L236.853,223.936z"/>
</g>
<g id="g3738">
	<path id="path3740" fill="#231F20" stroke="#231F20" stroke-miterlimit="10" d="M276.15,202.033v14.978"/>
</g>
<path id="path3742" fill="#231F20" d="M276.149,223.935l2.577-6.925h-5.315L276.149,223.935z"/>
<g id="g3744">
	<path id="path3746" fill="#231F20" stroke="#231F20" stroke-miterlimit="10" d="M276.15,223.936l2.577-6.925h-5.315L276.15,223.936
		z"/>
</g>
<path id="path3748" fill="#231F20" d="M320.922,188.665c3.06,3.06,3.06,8.053,0,11.113c-3.06,3.06-8.053,3.06-11.113,0
	s-3.06-8.053,0-11.113C312.869,185.444,317.862,185.444,320.922,188.665"/>
<g id="g3750">
	<path id="path3752" fill="#FFFFFF" stroke="#231F20" stroke-miterlimit="10" d="M320.922,188.665c3.06,3.06,3.06,8.053,0,11.113
		c-3.06,3.06-8.053,3.06-11.113,0c-3.06-3.06-3.06-8.053,0-11.113C312.87,185.444,317.862,185.444,320.922,188.665"/>
</g>
<g id="g3754">
	<path id="path3756" fill="#231F20" stroke="#231F20" stroke-miterlimit="10" d="M284.041,194.141h14.978"/>
</g>
<path id="path3758" fill="#231F20" d="M305.944,194.141l-6.925-2.577v5.315L305.944,194.141L305.944,194.141z"/>
<g id="g3760">
	<path id="path3762" fill="#231F20" stroke="#231F20" stroke-miterlimit="10" d="M305.944,194.141l-6.925-2.577v5.315
		L305.944,194.141L305.944,194.141z"/>
</g>
<path id="path3764" fill="#231F20" d="M320.922,227.801c3.06,3.06,3.06,8.053,0,11.113c-3.06,3.06-8.053,3.06-11.113,0
	s-3.06-8.053,0-11.113C312.869,224.741,317.862,224.741,320.922,227.801"/>
<g id="g3766">
	<path id="path3768" fill="#A7A5A6" stroke="#231F20" stroke-miterlimit="10" d="M320.922,227.801c3.06,3.06,3.06,8.053,0,11.113
		c-3.06,3.06-8.053,3.06-11.113,0c-3.06-3.06-3.06-8.053,0-11.113S317.862,224.741,320.922,227.801"/>
</g>
<g id="g3770">
	<path id="path3772" fill="#231F20" stroke="#231F20" stroke-miterlimit="10" d="M315.446,202.033v14.978"/>
</g>
<path id="path3774" fill="#231F20" d="M315.446,223.935l2.577-6.925h-5.315L315.446,223.935z"/>
<g id="g3776">
	<path id="path3778" fill="#231F20" stroke="#231F20" stroke-miterlimit="10" d="M315.446,223.936l2.577-6.925h-5.315
		L315.446,223.936z"/>
</g>
<g id="g3780">
	<path id="path3782" fill="none" stroke="#231F20" stroke-miterlimit="10" d="M31.027,280.626v28.828h-9.824l19.648,9.663
		l19.648-9.663h-9.824v-28.828H31.027z"/>
</g>
<path id="path3790" fill="#231F20" d="M47.777,188.665c3.06,3.06,3.06,8.053,0,11.113c-3.06,3.06-8.053,3.06-11.113,0
	c-3.06-3.06-3.06-8.053,0-11.113C39.724,185.444,44.717,185.444,47.777,188.665"/>
<g id="g3792">
	<path id="path3794" fill="#FFFFFF" stroke="#231F20" stroke-miterlimit="10" d="M47.777,188.665c3.06,3.06,3.06,8.053,0,11.113
		c-3.06,3.06-8.053,3.06-11.113,0c-3.06-3.06-3.06-8.053,0-11.113C39.724,185.444,44.717,185.444,47.777,188.665"/>
</g>
<path id="path3796" fill="#231F20" d="M24.263,220.07c3.06,3.06,3.06,8.053,0,11.113c-3.06,3.06-8.053,3.06-11.113,0
	c-3.06-3.06-3.06-8.053,0-11.113C16.211,217.01,21.203,217.01,24.263,220.07"/>
<g id="g3798">
	<path id="path3800" fill="#A7A5A6" stroke="#231F20" stroke-miterlimit="10" d="M24.263,220.07c3.06,3.06,3.06,8.053,0,11.113
		c-3.06,3.06-8.053,3.06-11.113,0c-3.06-3.06-3.06-8.053,0-11.113S21.203,217.01,24.263,220.07"/>
</g>
<path id="path3802" fill="#231F20" d="M47.777,227.801c3.06,3.06,3.06,8.053,0,11.113c-3.06,3.06-8.053,3.06-11.113,0
	c-3.06-3.06-3.06-8.053,0-11.113C39.724,224.741,44.717,224.741,47.777,227.801"/>
<g id="g3804">
	<path id="path3806" fill="#A7A5A6" stroke="#231F20" stroke-miterlimit="10" d="M47.777,227.801c3.06,3.06,3.06,8.053,0,11.113
		c-3.06,3.06-8.053,3.06-11.113,0c-3.06-3.06-3.06-8.053,0-11.113C39.724,224.741,44.717,224.741,47.777,227.801"/>
</g>
<g id="g3808">
	<path id="path3810" fill="#231F20" stroke="#231F20" stroke-miterlimit="10" d="M42.14,202.033v14.817"/>
</g>
<path id="path3812" fill="#231F20" d="M42.14,223.935l2.577-6.925h-5.315C39.563,216.849,42.14,223.935,42.14,223.935z"/>
<g id="g3814">
	<path id="path3816" fill="#231F20" stroke="#231F20" stroke-miterlimit="10" d="M42.14,223.936l2.577-6.925h-5.315
		C39.563,216.849,42.14,223.936,42.14,223.936z"/>
</g>
<path id="path3818" fill="#231F20" d="M71.291,220.07c3.06,3.06,3.06,8.053,0,11.113c-3.06,3.06-8.053,3.06-11.113,0
	c-3.06-3.06-3.06-8.053,0-11.113C63.238,217.01,68.231,217.01,71.291,220.07"/>
<g id="g3820">
	<path id="path3822" fill="#A7A5A6" stroke="#231F20" stroke-miterlimit="10" d="M71.291,220.07c3.06,3.06,3.06,8.053,0,11.113
		c-3.06,3.06-8.053,3.06-11.113,0c-3.06-3.06-3.06-8.053,0-11.113C63.238,217.01,68.231,217.01,71.291,220.07"/>
</g>
<g id="g3824">
	<path id="path3826" fill="#231F20" stroke="#231F20" stroke-miterlimit="10" d="M46.972,200.422l9.019,11.918"/>
</g>
<path id="path3828" fill="#231F20" d="M60.017,217.976l-2.094-7.086l-4.187,3.221L60.017,217.976z"/>
<g id="g3830">
	<path id="path3832" fill="#231F20" stroke="#231F20" stroke-miterlimit="10" d="M60.017,217.977l-2.094-7.086l-4.187,3.221
		L60.017,217.977z"/>
</g>
<g id="g3834">
	<path id="path3836" fill="#231F20" stroke="#231F20" stroke-miterlimit="10" d="M37.47,200.422l-9.019,11.918"/>
</g>
<path id="path3838" fill="#231F20" d="M24.424,217.976l6.281-4.026l-4.187-3.221C26.518,210.729,24.424,217.976,24.424,217.976z"/>
<g id="g3840">
	<path id="path3842" fill="#231F20" stroke="#231F20" stroke-miterlimit="10" d="M24.424,217.977l6.281-4.026l-4.187-3.221
		L24.424,217.977z"/>
</g>
<path id="path3844" fill="#231F20" d="M47.777,338.766c3.06,3.06,3.06,8.053,0,11.113c-3.06,3.06-8.053,3.06-11.113,0
	c-3.06-3.06-3.06-8.053,0-11.113C39.724,335.706,44.717,335.706,47.777,338.766"/>
<g id="g3846">
	<path id="path3848" fill="#FFFFFF" stroke="#231F20" stroke-miterlimit="10" d="M47.777,338.766c3.06,3.06,3.06,8.053,0,11.113
		c-3.06,3.06-8.053,3.06-11.113,0c-3.06-3.06-3.06-8.053,0-11.113C39.724,335.706,44.717,335.706,47.777,338.766"/>
</g>
<path id="path3850" fill="#231F20" d="M24.263,370.171c3.06,3.06,3.06,8.053,0,11.113s-8.053,3.06-11.113,0s-3.06-8.053,0-11.113
	S21.203,367.111,24.263,370.171"/>
<g id="g3852">
	<path id="path3854" fill="#A7A5A6" stroke="#231F20" stroke-miterlimit="10" d="M24.263,370.172c3.06,3.06,3.06,8.053,0,11.113
		s-8.053,3.06-11.113,0s-3.06-8.053,0-11.113C16.211,367.112,21.203,367.112,24.263,370.172"/>
</g>
<path id="path3856" fill="#231F20" d="M47.777,378.063c3.06,3.06,3.06,8.053,0,11.113c-3.06,3.06-8.053,3.06-11.113,0
	c-3.06-3.06-3.06-8.053,0-11.113C39.724,375.003,44.717,375.003,47.777,378.063"/>
<g id="g3858">
	<path id="path3860" fill="#A7A5A6" stroke="#231F20" stroke-miterlimit="10" d="M47.777,378.063c3.06,3.06,3.06,8.053,0,11.113
		c-3.06,3.06-8.053,3.06-11.113,0c-3.06-3.06-3.06-8.053,0-11.113C39.724,375.003,44.717,375.003,47.777,378.063"/>
</g>
<g id="g3862">
	<path id="path3864" fill="#231F20" stroke="#231F20" stroke-miterlimit="10" d="M42.14,352.134v23.675"/>
</g>
<path id="path3866" fill="#231F20" d="M71.291,370.171c3.06,3.06,3.06,8.053,0,11.113s-8.053,3.06-11.113,0
	c-3.06-3.06-3.06-8.053,0-11.113C63.238,367.111,68.231,367.111,71.291,370.171"/>
<g id="g3868">
	<path id="path3870" fill="#A7A5A6" stroke="#231F20" stroke-miterlimit="10" d="M71.291,370.172c3.06,3.06,3.06,8.053,0,11.113
		s-8.053,3.06-11.113,0c-3.06-3.06-3.06-8.053,0-11.113C63.238,367.112,68.231,367.112,71.291,370.172"/>
</g>
<g id="g3872">
	<path id="path3874" fill="#231F20" stroke="#231F20" stroke-miterlimit="10" d="M46.972,350.523l14.173,18.843"/>
</g>
<g id="g3876">
	<path id="path3878" fill="#231F20" stroke="#231F20" stroke-miterlimit="10" d="M37.47,350.523l-14.173,18.843"/>
</g>
<path id="path3880" fill="#231F20" d="M28.289,358.253h4.348v4.348h-4.348V358.253z"/>
<g id="g3882">
	<path id="path3884" fill="#231F20" stroke="#231F20" stroke-miterlimit="10" d="M28.29,358.254h4.348v4.348H28.29V358.254z"/>
</g>
<path id="path3886" fill="#231F20" d="M39.563,362.602h4.348v4.348h-4.348V362.602z"/>
<g id="g3888">
	<path id="path3890" fill="#231F20" stroke="#231F20" stroke-miterlimit="10" d="M39.563,362.602h4.348v4.348h-4.348V362.602z"/>
</g>
<path id="path3892" fill="#231F20" d="M51.803,358.253h4.348v4.348h-4.348V358.253z"/>
<g id="g3894">
	<path id="path3896" fill="#231F20" stroke="#231F20" stroke-miterlimit="10" d="M51.803,358.254h4.348v4.348h-4.348V358.254z"/>
</g>
<path id="path3898" fill="#231F20" d="M242.328,337.799c3.06,3.06,3.06,8.053,0,11.113c-3.06,3.06-8.053,3.06-11.113,0
	c-3.06-3.06-3.06-8.053,0-11.113C234.437,334.739,239.268,334.739,242.328,337.799"/>
<g id="g3900">
	<path id="path3902" fill="#FFFFFF" stroke="#231F20" stroke-miterlimit="10" d="M242.329,337.8c3.06,3.06,3.06,8.053,0,11.113
		c-3.06,3.06-8.053,3.06-11.113,0c-3.06-3.06-3.06-8.053,0-11.113C234.437,334.74,239.269,334.74,242.329,337.8"/>
</g>
<path id="path3904" fill="#231F20" d="M281.625,337.799c3.06,3.06,3.06,8.053,0,11.113s-8.053,3.06-11.113,0
	c-3.06-3.06-3.06-8.053,0-11.113C273.573,334.739,278.565,334.739,281.625,337.799"/>
<g id="g3906">
	<path id="path3908" fill="#FFFFFF" stroke="#231F20" stroke-miterlimit="10" d="M281.625,337.8c3.06,3.06,3.06,8.053,0,11.113
		s-8.053,3.06-11.113,0c-3.06-3.06-3.06-8.053,0-11.113C273.573,334.74,278.565,334.74,281.625,337.8"/>
</g>
<path id="path3910" fill="#231F20" d="M242.328,377.096c3.06,3.06,3.06,8.053,0,11.113c-3.06,3.06-8.053,3.06-11.113,0
	c-3.06-3.06-3.06-8.053,0-11.113C234.437,374.036,239.268,374.036,242.328,377.096"/>
<g id="g3912">
	<path id="path3914" fill="#A7A5A6" stroke="#231F20" stroke-miterlimit="10" d="M242.329,377.097c3.06,3.06,3.06,8.053,0,11.113
		c-3.06,3.06-8.053,3.06-11.113,0c-3.06-3.06-3.06-8.053,0-11.113C234.437,374.037,239.269,374.037,242.329,377.097"/>
</g>
<path id="path3916" fill="#231F20" d="M281.625,377.096c3.06,3.06,3.06,8.053,0,11.113s-8.053,3.06-11.113,0
	c-3.06-3.06-3.06-8.053,0-11.113C273.573,374.036,278.565,374.036,281.625,377.096"/>
<g id="g3918">
	<path id="path3920" fill="#A7A5A6" stroke="#231F20" stroke-miterlimit="10" d="M281.625,377.097c3.06,3.06,3.06,8.053,0,11.113
		s-8.053,3.06-11.113,0c-3.06-3.06-3.06-8.053,0-11.113C273.573,374.037,278.565,374.037,281.625,377.097"/>
</g>
<g id="g3922">
	<path id="path3924" fill="#231F20" stroke="#231F20" stroke-miterlimit="10" d="M244.744,343.437h23.514"/>
</g>
<g id="g3926">
	<path id="path3928" fill="#231F20" stroke="#231F20" stroke-miterlimit="10" d="M236.853,351.328v23.514"/>
</g>
<g id="g3930">
	<path id="path3932" fill="#231F20" stroke="#231F20" stroke-miterlimit="10" d="M276.15,351.328v23.514"/>
</g>
<path id="path3934" fill="#231F20" d="M320.922,337.799c3.06,3.06,3.06,8.053,0,11.113c-3.06,3.06-8.053,3.06-11.113,0
	s-3.06-8.053,0-11.113S317.862,334.739,320.922,337.799"/>
<g id="g3936">
	<path id="path3938" fill="#FFFFFF" stroke="#231F20" stroke-miterlimit="10" d="M320.922,337.8c3.06,3.06,3.06,8.053,0,11.113
		c-3.06,3.06-8.053,3.06-11.113,0s-3.06-8.053,0-11.113C312.87,334.74,317.862,334.74,320.922,337.8"/>
</g>
<g id="g3940">
	<path id="path3942" fill="#231F20" stroke="#231F20" stroke-miterlimit="10" d="M284.041,343.437h23.514"/>
</g>
<path id="path3944" fill="#231F20" d="M320.922,377.096c3.06,3.06,3.06,8.053,0,11.113c-3.06,3.06-8.053,3.06-11.113,0
	s-3.06-8.053,0-11.113S317.862,374.036,320.922,377.096"/>
<g id="g3946">
	<path id="path3948" fill="#A7A5A6" stroke="#231F20" stroke-miterlimit="10" d="M320.922,377.097c3.06,3.06,3.06,8.053,0,11.113
		c-3.06,3.06-8.053,3.06-11.113,0s-3.06-8.053,0-11.113C312.87,374.037,317.862,374.037,320.922,377.097"/>
</g>
<g id="g3950">
	<path id="path3952" fill="#231F20" stroke="#231F20" stroke-miterlimit="10" d="M315.446,351.328v23.514"/>
</g>
<path id="path3954" fill="#231F20" d="M234.276,360.025h4.348v4.348h-4.348V360.025z"/>
<g id="g3956">
	<path id="path3958" fill="#231F20" stroke="#231F20" stroke-miterlimit="10" d="M234.276,360.025h4.348v4.348h-4.348V360.025z"/>
</g>
<path id="path3960" fill="#231F20" d="M273.573,360.025h4.348v4.348h-4.348V360.025z"/>
<g id="g3962">
	<path id="path3964" fill="#231F20" stroke="#231F20" stroke-miterlimit="10" d="M273.573,360.025h4.348v4.348h-4.348V360.025z"/>
</g>
<path id="path3966" fill="#231F20" d="M250.864,341.665h4.348v4.348h-4.348V341.665z"/>
<g id="g3968">
	<path id="path3970" fill="#231F20" stroke="#231F20" stroke-miterlimit="10" d="M250.864,341.665h4.348v4.348h-4.348V341.665z"/>
</g>
<path id="path3972" fill="#231F20" d="M293.543,341.665h4.348v4.348h-4.348V341.665z"/>
<g id="g3974">
	<path id="path3976" fill="#231F20" stroke="#231F20" stroke-miterlimit="10" d="M293.543,341.665h4.348v4.348h-4.348V341.665z"/>
</g>
<path id="path3978" fill="#231F20" d="M313.675,360.025h4.348v4.348h-4.348V360.025z"/>
<g id="g3980">
	<path id="path3982" fill="#231F20" stroke="#231F20" stroke-miterlimit="10" d="M313.675,360.025h4.348v4.348h-4.348V360.025z"/>
</g>
<path id="path4042" fill="#231F20" d="M488.578,182.545c3.06,3.06,3.06,8.053,0,11.113c-3.06,3.06-8.053,3.06-11.113,0
	c-3.06-3.06-3.06-8.053,0-11.113C480.525,179.485,485.518,179.485,488.578,182.545"/>
<g id="g4044">
	<path id="path4046" fill="#FFFFFF" stroke="#231F20" stroke-miterlimit="10" d="M488.578,182.545c3.06,3.06,3.06,8.053,0,11.113
		c-3.06,3.06-8.053,3.06-11.113,0c-3.06-3.06-3.06-8.053,0-11.113C480.525,179.485,485.518,179.485,488.578,182.545"/>
</g>
<path id="path4048" fill="#231F20" d="M508.548,199.133c3.06,3.06,3.06,8.053,0,11.113c-3.06,3.06-8.053,3.06-11.113,0
	c-3.06-3.06-3.06-8.053,0-11.113C500.657,196.073,505.488,196.073,508.548,199.133"/>
<g id="g4050">
	<path id="path4052" fill="#FFFFFF" stroke="#231F20" stroke-miterlimit="10" d="M508.549,199.134c3.06,3.06,3.06,8.053,0,11.113
		c-3.06,3.06-8.053,3.06-11.113,0c-3.06-3.06-3.06-8.053,0-11.113C500.657,196.074,505.489,196.074,508.549,199.134"/>
</g>
<path id="path4054" fill="#231F20" d="M489.383,227.801c3.06,3.06,3.06,8.053,0,11.113s-8.053,3.06-11.113,0
	c-3.06-3.06-3.06-8.053,0-11.113C481.331,224.741,486.323,224.741,489.383,227.801"/>
<g id="g4056">
	<path id="path4058" fill="#A7A5A6" stroke="#231F20" stroke-miterlimit="10" d="M489.383,227.801c3.06,3.06,3.06,8.053,0,11.113
		c-3.06,3.06-8.053,3.06-11.113,0c-3.06-3.06-3.06-8.053,0-11.113S486.323,224.741,489.383,227.801"/>
</g>
<path id="path4060" fill="#231F20" d="M528.68,227.801c3.06,3.06,3.06,8.053,0,11.113c-3.06,3.06-8.053,3.06-11.113,0
	s-3.06-8.053,0-11.113C520.627,224.741,525.62,224.741,528.68,227.801"/>
<g id="g4062">
	<path id="path4064" fill="#A7A5A6" stroke="#231F20" stroke-miterlimit="10" d="M528.68,227.801c3.06,3.06,3.06,8.053,0,11.113
		c-3.06,3.06-8.053,3.06-11.113,0c-3.06-3.06-3.06-8.053,0-11.113S525.62,224.741,528.68,227.801"/>
</g>
<g id="g4066">
	<path id="path4068" fill="#231F20" stroke="#231F20" stroke-miterlimit="10" d="M483.102,195.913l0.483,21.098"/>
</g>
<path id="path4070" fill="#231F20" d="M483.746,223.935l2.416-7.086l-5.315,0.161L483.746,223.935z"/>
<g id="g4072">
	<path id="path4074" fill="#231F20" stroke="#231F20" stroke-miterlimit="10" d="M483.746,223.936l2.416-7.086l-5.315,0.161
		L483.746,223.936z"/>
</g>
<g id="g4076">
	<path id="path4078" fill="#231F20" stroke="#231F20" stroke-miterlimit="10" d="M507.582,211.052l6.12,8.858"/>
</g>
<path id="path4080" fill="#231F20" d="M517.728,225.546l-1.772-7.247l-4.348,3.06L517.728,225.546L517.728,225.546z"/>
<g id="g4082">
	<path id="path4084" fill="#231F20" stroke="#231F20" stroke-miterlimit="10" d="M517.729,225.546l-1.772-7.247l-4.348,3.06
		L517.729,225.546L517.729,225.546z"/>
</g>
<path id="path4086" fill="#231F20" d="M535.605,182.545c3.06,3.06,3.06,8.053,0,11.113c-3.06,3.06-8.053,3.06-11.113,0
	c-3.06-3.06-3.06-8.053,0-11.113C527.714,179.485,532.545,179.485,535.605,182.545"/>
<g id="g4088">
	<path id="path4090" fill="#FFFFFF" stroke="#231F20" stroke-miterlimit="10" d="M535.605,182.545c3.06,3.06,3.06,8.053,0,11.113
		c-3.06,3.06-8.053,3.06-11.113,0c-3.06-3.06-3.06-8.053,0-11.113C527.714,179.485,532.545,179.485,535.605,182.545"/>
</g>
<g id="g4092">
	<path id="path4094" fill="#231F20" stroke="#231F20" stroke-miterlimit="10" d="M509.837,200.583l6.281-3.865"/>
</g>
<path id="path4096" fill="#231F20" d="M522.077,193.013l-7.247,1.449l2.738,4.509L522.077,193.013L522.077,193.013z"/>
<g id="g4098">
	<path id="path4100" fill="#231F20" stroke="#231F20" stroke-miterlimit="10" d="M522.077,193.014l-7.408,1.449l2.738,4.509
		L522.077,193.014L522.077,193.014z"/>
</g>
<path id="path4102" fill="#231F20" d="M567.977,227.801c3.06,3.06,3.06,8.053,0,11.113s-8.053,3.06-11.113,0
	c-3.06-3.06-3.06-8.053,0-11.113C559.924,224.741,564.917,224.741,567.977,227.801"/>
<g id="g4104">
	<path id="path4106" fill="#A7A5A6" stroke="#231F20" stroke-miterlimit="10" d="M567.977,227.801c3.06,3.06,3.06,8.053,0,11.113
		c-3.06,3.06-8.053,3.06-11.113,0c-3.06-3.06-3.06-8.053,0-11.113S564.917,224.741,567.977,227.801"/>
</g>
<g id="g4108">
	<path id="path4110" fill="#231F20" stroke="#231F20" stroke-miterlimit="10" d="M534.639,194.463l18.199,25.607"/>
</g>
<path id="path4112" fill="#231F20" d="M556.864,225.707l-1.933-7.247l-4.187,3.06L556.864,225.707L556.864,225.707z"/>
<g id="g4114">
	<path id="path4116" fill="#231F20" stroke="#231F20" stroke-miterlimit="10" d="M556.864,225.707l-1.933-7.247l-4.187,3.06
		L556.864,225.707L556.864,225.707z"/>
</g>
<g id="g4118">
	<path id="path4120" fill="none" stroke="#231F20" stroke-miterlimit="10" d="M503.234,280.626v28.828h-9.824l19.648,9.663
		l19.648-9.663h-9.824v-28.828H503.234z"/>
</g>
<g id="g4160">
	<path id="path4162" fill="#231F20" stroke="#231F20" stroke-miterlimit="10" d="M491.799,233.438h14.978"/>
</g>
<path id="path4164" fill="#231F20" d="M513.702,233.437l-6.925-2.577v5.315L513.702,233.437z"/>
<g id="g4166">
	<path id="path4168" fill="#231F20" stroke="#231F20" stroke-miterlimit="10" d="M513.702,233.438l-6.925-2.577v5.315
		L513.702,233.438z"/>
</g>
<g id="g4170">
	<path id="path4172" fill="#231F20" stroke="#231F20" stroke-miterlimit="10" d="M510.159,207.992l37.364,18.199"/>
</g>
<path id="path4174" fill="#231F20" d="M553.804,229.25l-5.154-5.476l-2.255,4.671L553.804,229.25z"/>
<g id="g4176">
	<path id="path4178" fill="#231F20" stroke="#231F20" stroke-miterlimit="10" d="M553.804,229.25l-5.154-5.476l-2.255,4.671
		C546.396,228.445,553.804,229.25,553.804,229.25z"/>
</g>
<g id="g4180">
	<path id="path4182" fill="#231F20" stroke="#231F20" stroke-miterlimit="10" d="M490.833,188.021h22.708"/>
</g>
<path id="path4184" fill="#231F20" d="M520.627,188.021l-6.925-2.577v5.315L520.627,188.021L520.627,188.021z"/>
<g id="g4186">
	<path id="path4188" fill="#231F20" stroke="#231F20" stroke-miterlimit="10" d="M520.628,188.021l-6.925-2.577v5.315
		L520.628,188.021L520.628,188.021z"/>
</g>
<path id="path4190" fill="#231F20" d="M481.169,356.482h4.348v4.348h-4.348V356.482z"/>
<g id="g4192">
	<path id="path4194" fill="#231F20" stroke="#231F20" stroke-miterlimit="10" d="M481.17,356.482h4.348v4.348h-4.348V356.482z"/>
</g>
<path id="path4196" fill="#231F20" d="M497.758,370.493h4.348v4.348h-4.348V370.493z"/>
<g id="g4198">
	<path id="path4200" fill="#231F20" stroke="#231F20" stroke-miterlimit="10" d="M497.758,370.494h4.348v4.348h-4.348V370.494z"/>
</g>
<path id="path4202" fill="#231F20" d="M507.421,334.739h4.348v4.348h-4.348V334.739z"/>
<g id="g4204">
	<path id="path4206" fill="#231F20" stroke="#231F20" stroke-miterlimit="10" d="M507.421,334.74h4.348v4.348h-4.348V334.74z"/>
</g>
<path id="path4208" fill="#231F20" d="M528.358,355.676h4.348v4.348h-4.348V355.676z"/>
<g id="g4210">
	<path id="path4212" fill="#231F20" stroke="#231F20" stroke-miterlimit="10" d="M528.358,355.677h4.348v4.348h-4.348V355.677z"/>
</g>
<path id="path4214" fill="#231F20" d="M488.578,330.874c3.06,3.06,3.06,8.053,0,11.113s-8.053,3.06-11.113,0
	c-3.06-3.06-3.06-8.053,0-11.113C480.525,327.814,485.518,327.814,488.578,330.874"/>
<g id="g4216">
	<path id="path4218" fill="#FFFFFF" stroke="#231F20" stroke-miterlimit="10" d="M488.578,330.875c3.06,3.06,3.06,8.053,0,11.113
		c-3.06,3.06-8.053,3.06-11.113,0c-3.06-3.06-3.06-8.053,0-11.113C480.525,327.815,485.518,327.815,488.578,330.875"/>
</g>
<path id="path4220" fill="#231F20" d="M515.635,351.811c3.06,3.06,3.06,8.053,0,11.113s-8.053,3.06-11.113,0s-3.06-8.053,0-11.113
	S512.575,348.751,515.635,351.811"/>
<g id="g4222">
	<path id="path4224" fill="#FFFFFF" stroke="#231F20" stroke-miterlimit="10" d="M515.635,351.812c3.06,3.06,3.06,8.053,0,11.113
		s-8.053,3.06-11.113,0c-3.06-3.06-3.06-8.053,0-11.113C507.582,348.752,512.575,348.752,515.635,351.812"/>
</g>
<path id="path4226" fill="#231F20" d="M488.578,376.291c3.06,3.06,3.06,8.053,0,11.113c-3.06,3.06-8.053,3.06-11.113,0
	c-3.06-3.06-3.06-8.053,0-11.113C480.525,373.231,485.518,373.231,488.578,376.291"/>
<g id="g4228">
	<path id="path4230" fill="#A7A5A6" stroke="#231F20" stroke-miterlimit="10" d="M488.578,376.292c3.06,3.06,3.06,8.053,0,11.113
		c-3.06,3.06-8.053,3.06-11.113,0c-3.06-3.06-3.06-8.053,0-11.113C480.525,373.232,485.518,373.232,488.578,376.292"/>
</g>
<path id="path4232" fill="#231F20" d="M525.62,376.291c3.06,3.06,3.06,8.053,0,11.113c-3.06,3.06-8.053,3.06-11.113,0
	c-3.06-3.06-3.06-8.053,0-11.113C517.567,373.231,522.56,373.231,525.62,376.291"/>
<g id="g4234">
	<path id="path4236" fill="#A7A5A6" stroke="#231F20" stroke-miterlimit="10" d="M525.62,376.292c3.06,3.06,3.06,8.053,0,11.113
		s-8.053,3.06-11.113,0s-3.06-8.053,0-11.113S522.56,373.232,525.62,376.292"/>
</g>
<g id="g4238">
	<path id="path4240" fill="#231F20" stroke="#231F20" stroke-miterlimit="10" d="M483.102,344.242l0.161,12.24"/>
</g>
<g id="g4242">
	<path id="path4244" fill="#231F20" stroke="#231F20" stroke-miterlimit="10" d="M502.267,373.715l10.791,4.832"/>
</g>
<path id="path4246" fill="#231F20" d="M547.04,330.874c3.06,3.06,3.06,8.053,0,11.113c-3.06,3.06-8.053,3.06-11.113,0
	s-3.06-8.053,0-11.113S543.98,327.814,547.04,330.874"/>
<g id="g4248">
	<path id="path4250" fill="#FFFFFF" stroke="#231F20" stroke-miterlimit="10" d="M547.04,330.875c3.06,3.06,3.06,8.053,0,11.113
		s-8.053,3.06-11.113,0s-3.06-8.053,0-11.113C538.987,327.815,543.98,327.815,547.04,330.875"/>
</g>
<g id="g4252">
	<path id="path4254" fill="#231F20" stroke="#231F20" stroke-miterlimit="10" d="M509.837,349.557l-0.161-10.468"/>
</g>
<path id="path4256" fill="#231F20" d="M561.052,376.291c3.06,3.06,3.06,8.053,0,11.113c-3.06,3.06-8.053,3.06-11.113,0
	c-3.06-3.06-3.06-8.053,0-11.113C552.999,373.231,557.992,373.231,561.052,376.291"/>
<g id="g4258">
	<path id="path4260" fill="#A7A5A6" stroke="#231F20" stroke-miterlimit="10" d="M561.052,376.292c3.06,3.06,3.06,8.053,0,11.113
		s-8.053,3.06-11.113,0s-3.06-8.053,0-11.113S557.992,373.232,561.052,376.292"/>
</g>
<g id="g4262">
	<path id="path4264" fill="#231F20" stroke="#231F20" stroke-miterlimit="10" d="M537.86,343.437l-6.281,12.24"/>
</g>
<g id="g4266">
	<path id="path4268" fill="#231F20" stroke="#231F20" stroke-miterlimit="10" d="M489.866,378.063l7.892-4.187"/>
</g>
<g id="g4270">
	<path id="path4272" fill="#231F20" stroke="#231F20" stroke-miterlimit="10" d="M517.89,357.609l10.468,0.161"/>
</g>
<g id="g4274">
	<path id="path4276" fill="#231F20" stroke="#231F20" stroke-miterlimit="10" d="M490.833,336.512l16.588,0.322"/>
</g>
<g id="g4278">
	<path id="path4280" fill="#231F20" stroke="#231F20" stroke-miterlimit="10" d="M505.811,363.89l-4.348,6.603"/>
</g>
<g id="g4282">
	<path id="path4284" fill="#231F20" stroke="#231F20" stroke-miterlimit="10" d="M511.77,336.834l21.742-0.322"/>
</g>
<g id="g4286">
	<path id="path4288" fill="#231F20" stroke="#231F20" stroke-miterlimit="10" d="M532.706,359.864l17.072,16.427"/>
</g>
<g id="g4290">
	<path id="path4292" fill="#231F20" stroke="#231F20" stroke-miterlimit="10" d="M483.424,360.83l-0.322,13.045"/>
</g>
<text transform="matrix(1 0 0 1 371.2301 249.7791)" fill="#231F20" font-size="18px">General</text>
<text transform="matrix(1 0 0 1 371.2301 264.2742)" fill="#231F20" font-size="18px">Graphs</text>
<text transform="matrix(1 0 0 1 371.2301 396.4005)" fill="#231F20" font-size="18px">General</text>
<text transform="matrix(1 0 0 1 371.2301 410.895)" fill="#231F20"  font-size="18px">Graphs</text>
<text transform="matrix(1 0 0 1 125.4474 253.2729)" fill="#231F20" font-size="18px">Sequence</text>
<text transform="matrix(1 0 0 1 125.4474 396.6884)" fill="#231F20" font-size="18px">Sequence</text>
<text transform="matrix(1 0 0 1 471.7574 300.0569)" fill="#231F20" font-size="18px">Conditional</text>
<text transform="matrix(1 0 0 1 -3.2994 300.0569)" fill="#231F20"  font-size="18px">Conditional</text>
<text transform="matrix(1 0 0 1 230.7385 300.0569)" fill="#231F20" font-size="18px">Conditional</text>
<g id="g3674">
	<path id="path3676" fill="none" stroke="#000000" stroke-miterlimit="10" d="M128.625,223.614h41.229v9.824l13.689-19.648
		l-13.689-19.648v9.824h-41.229V223.614z"/>
</g>
<g id="g3674_1_">
	<path id="path3676_1_" fill="none" stroke="#000000" stroke-miterlimit="10" d="M373.909,223.614h41.229v9.824l13.689-19.648
		l-13.689-19.648v9.824h-41.229V223.614z"/>
</g>
<g id="g3674_2_">
	<path id="path3676_2_" fill="none" stroke="#000000" stroke-miterlimit="10" d="M373.909,364.052h41.229v9.824l13.689-19.648
		l-13.689-19.648v9.824h-41.229V364.052z"/>
</g>
<g id="g3674_3_">
	<path id="path3676_3_" fill="none" stroke="#000000" stroke-miterlimit="10" d="M128.625,365.018h41.229v9.824l13.689-19.648
		l-13.689-19.648v9.824h-41.229V365.018z"/>
</g>
<g id="g3984">
	<path id="path3986" fill="none" stroke="#000000" stroke-miterlimit="10" d="M265.842,280.626v28.828h-9.824l19.648,9.663
		l19.648-9.663h-9.824v-28.828H265.842L265.842,280.626z"/>
</g>
<text transform="matrix(1 0 0 1 8.7342 263.538)" fill="#231F20"  font-size="13px">Naive Bayes</text>
<text transform="matrix(1 0 0 1 7.653236e-005 410.8947)" fill="#231F20"  font-size="13px">Logistic Regression</text>
<text transform="matrix(1 0 0 1 475.9761 410.8945)" fill="#231F20"  font-size="13px">General CRFs</text>
<text transform="matrix(1 0 0 1 446.3094 263.538)" fill="#231F20"  font-size="13px">Generative directed models</text>
<text transform="matrix(1 0 0 1 258.1848 263.5381)" fill="#231F20"  font-size="13px">HMMs</text>
<text transform="matrix(1 0 0 1 224.9209 410.895)" fill="#231F20"  font-size="13px">Linear-chain CRFs</text>
</svg>
