<?xml version="1.0" standalone="yes"?>

<svg version="1.1" viewBox="0.0 0.0 314.9265091863517 217.63517060367454" fill="none" stroke="none" stroke-linecap="square" stroke-miterlimit="10" xmlns="http://www.w3.org/2000/svg" xmlns:xlink="http://www.w3.org/1999/xlink"><clipPath id="p.0"><path d="m0 0l314.9265 0l0 217.63518l-314.9265 0l0 -217.63518z" clip-rule="nonzero"></path></clipPath><g clip-path="url(#p.0)"><path fill="#000000" fill-opacity="0.0" d="m0 0l314.9265 0l0 217.63518l-314.9265 0z" fill-rule="nonzero"></path><path fill="#000000" fill-opacity="0.0" d="m19.410357 -25.566664l51.685043 0l0 108.944885l-51.685043 0z" fill-rule="nonzero"></path><path fill="#000000" d="m43.393078 26.440153l0 4.09375q0.765625 -0.03125 1.234375 -0.4375q0.484375 -0.40625 0.484375 -1.09375q0 -0.453125 -0.140625 -1.1875q-0.125 -0.75 -0.125 -1.125q0 -0.84375 0.53125 -1.375q0.546875 -0.53125 1.453125 -0.53125q0.53125 0 0.96875 0.53125q0.453125 0.53125 0.453125 1.046875q0 0.21875 -0.078125 0.34375q-0.078125 0.125 -0.203125 0.125q-0.21875 0 -0.375 -0.125q-0.15625 -0.125 -0.234375 -0.265625q-0.078125 -0.140625 -0.28125 -0.265625q-0.203125 -0.125 -0.515625 -0.125q-0.171875 0 -0.390625 0.125q-0.203125 0.125 -0.203125 0.265625q0 0.34375 0.234375 0.6875q0.25 0.34375 0.484375 0.765625q0.25 0.40625 0.25 0.953125q0 0.6875 -0.515625 1.171875q-0.515625 0.46875 -1.296875 0.6875q-0.765625 0.203125 -1.734375 0.203125l0 1.2031231q0 0.46875 0.046875 0.703125q0.046875 0.234375 0.265625 0.421875q0.234375 0.171875 0.6875 0.171875l0 0.296875l-4.109375 0l0 -0.296875q0.65625 -0.015625 0.828125 -0.296875q0.171875 -0.296875 0.171875 -1.0l0 -1.2031231q-0.96875 0 -1.75 -0.203125q-0.765625 -0.21875 -1.28125 -0.6875q-0.515625 -0.484375 -0.515625 -1.171875q0 -0.546875 0.234375 -0.953125q0.25 -0.421875 0.484375 -0.765625q0.234375 -0.34375 0.234375 -0.6875q0 -0.140625 -0.203125 -0.265625q-0.203125 -0.125 -0.375 -0.125q-0.3125 0 -0.515625 0.125q-0.203125 0.125 -0.296875 0.265625q-0.078125 0.140625 -0.234375 0.265625q-0.15625 0.125 -0.375 0.125q-0.109375 0 -0.1875 -0.125q-0.078125 -0.125 -0.078125 -0.34375q0 -0.53125 0.4375 -1.046875q0.4375 -0.53125 0.984375 -0.53125q0.90625 0 1.4375 0.53125q0.546875 0.53125 0.546875 1.375q0 0.375 -0.140625 1.125q-0.140625 0.734375 -0.140625 1.1875q0 0.6875 0.484375 1.09375q0.484375 0.40625 1.25 0.4375l0 -4.09375q0 -0.578125 -0.21875 -0.859375q-0.203125 -0.296875 -0.75 -0.3125l0 -0.3125l4.03125 0l0 0.3125q-0.546875 0.015625 -0.75 0.3125q-0.203125 0.28125 -0.203125 0.859375z" fill-rule="nonzero"></path><path fill="#000000" d="m52.145714 38.70578l0 -0.21875q0.21875 -0.046875 0.328125 -0.09375q0.109375 -0.046875 0.15625 -0.140625q0.046875 -0.09375 0.046875 -0.265625q0 -0.140625 -0.03125 -0.3125q-0.03125 -0.171875 -0.09375 -0.390625l-0.171875 -0.5625l-2.0468712 0l-0.140625 0.421875q-0.125 0.328125 -0.15625 0.5q-0.03125 0.15625 -0.03125 0.296875q0 0.265625 0.125 0.390625q0.140625 0.125 0.421875 0.15625l0 0.21875l-1.875 0l0 -0.21875q0.234375 -0.03125 0.421875 -0.28125q0.1875 -0.25 0.359375 -0.703125l1.828125 -4.859375l0.6874962 0l1.5 4.890625q0.109375 0.34375 0.1875 0.53125q0.078125 0.171875 0.1875 0.28125q0.125 0.09375 0.328125 0.140625l0 0.21875l-2.03125 0zm-1.6874962 -2.375l1.8281212 0l-0.828125 -2.828125l-0.9999962 2.828125z" fill-rule="nonzero"></path><path fill="#000000" fill-opacity="0.0" d="m19.409449 91.79002l51.685043 0l0 44.692917l-51.685043 0z" fill-rule="nonzero"></path><path fill="#000000" d="m43.660843 111.67085l0 4.09375q0.765625 -0.03125 1.234375 -0.4375q0.484375 -0.40625 0.484375 -1.09375q0 -0.453125 -0.140625 -1.1875q-0.125 -0.75 -0.125 -1.125q0 -0.84375 0.53125 -1.375q0.546875 -0.53125 1.453125 -0.53125q0.53125 0 0.96875 0.53125q0.453125 0.53125 0.453125 1.046875q0 0.21875 -0.078125 0.34375q-0.078125 0.125 -0.203125 0.125q-0.21875 0 -0.375 -0.125q-0.15625 -0.125 -0.234375 -0.265625q-0.078125 -0.140625 -0.28125 -0.265625q-0.203125 -0.125 -0.515625 -0.125q-0.171875 0 -0.390625 0.125q-0.203125 0.125 -0.203125 0.265625q0 0.34375 0.234375 0.6875q0.25 0.34375 0.484375 0.765625q0.25 0.40625 0.25 0.953125q0 0.6875 -0.515625 1.171875q-0.515625 0.46875 -1.296875 0.6875q-0.765625 0.203125 -1.734375 0.203125l0 1.203125q0 0.46875 0.046875 0.703125q0.046875 0.234375 0.265625 0.421875q0.234375 0.171875 0.6875 0.171875l0 0.296875l-4.109375 0l0 -0.296875q0.65625 -0.015625 0.828125 -0.296875q0.171875 -0.296875 0.171875 -1.0l0 -1.203125q-0.96875 0 -1.75 -0.203125q-0.765625 -0.21875 -1.28125 -0.6875q-0.515625 -0.484375 -0.515625 -1.171875q0 -0.546875 0.234375 -0.953125q0.25 -0.421875 0.484375 -0.765625q0.234375 -0.34375 0.234375 -0.6875q0 -0.140625 -0.203125 -0.265625q-0.203125 -0.125 -0.375 -0.125q-0.3125 0 -0.515625 0.125q-0.203125 0.125 -0.296875 0.265625q-0.078125 0.140625 -0.234375 0.265625q-0.15625 0.125 -0.375 0.125q-0.109375 0 -0.1875 -0.125q-0.078125 -0.125 -0.078125 -0.34375q0 -0.53125 0.4375 -1.046875q0.4375 -0.53125 0.984375 -0.53125q0.90625 0 1.4375 0.53125q0.546875 0.53125 0.546875 1.375q0 0.375 -0.140625 1.125q-0.140625 0.734375 -0.140625 1.1875q0 0.6875 0.484375 1.09375q0.484375 0.40625 1.25 0.4375l0 -4.09375q0 -0.578125 -0.21875 -0.859375q-0.203125 -0.296875 -0.75 -0.3125l0 -0.3125l4.03125 0l0 0.3125q-0.546875 0.015625 -0.75 0.3125q-0.203125 0.28125 -0.203125 0.859375z" fill-rule="nonzero"></path><path fill="#000000" d="m53.49161 118.06148l0 1.21875l-0.4375 0q-0.109375 -0.375 -0.265625 -0.59375q-0.15625 -0.234375 -0.375 -0.328125q-0.21875 -0.109375 -0.515625 -0.109375q-0.453125 0 -0.8125038 0.3125q-0.359375 0.296875 -0.5625 0.90625q-0.1875 0.59375 -0.1875 1.453125q0 0.859375 0.15625 1.46875q0.171875 0.609375 0.5 0.921875q0.328125 0.3125 0.7968788 0.3125q0.359375 0 0.578125 -0.09375q0.234375 -0.109375 0.390625 -0.328125q0.15625 -0.234375 0.296875 -0.671875l0.4375 0l0 1.25q-0.40625 0.109375 -0.84375 0.171875q-0.4375 0.0625 -0.953125 0.0625q-1.1093788 0 -1.6875038 -0.75q-0.578125 -0.765625 -0.578125 -2.265625q0 -0.9375 0.296875 -1.640625q0.296875 -0.71875 0.875 -1.09375q0.578125 -0.390625 1.3750038 -0.390625q0.40625 0 0.734375 0.046875q0.34375 0.03125 0.78125 0.140625z" fill-rule="nonzero"></path><path fill="#000000" fill-opacity="0.0" d="m19.409449 47.097115l51.685043 0l0 44.69291l-51.685043 0z" fill-rule="nonzero"></path><path fill="#000000" d="m43.44417 66.97794l0 4.09375q0.765625 -0.03125 1.234375 -0.4375q0.484375 -0.40625 0.484375 -1.09375q0 -0.453125 -0.140625 -1.1875q-0.125 -0.75 -0.125 -1.125q0 -0.84375 0.53125 -1.375q0.546875 -0.53125 1.453125 -0.53125q0.53125 0 0.96875 0.53125q0.453125 0.53125 0.453125 1.046875q0 0.21875 -0.078125 0.34375q-0.078125 0.125 -0.203125 0.125q-0.21875 0 -0.375 -0.125q-0.15625 -0.125 -0.234375 -0.265625q-0.078125 -0.140625 -0.28125 -0.265625q-0.203125 -0.125 -0.515625 -0.125q-0.171875 0 -0.390625 0.125q-0.203125 0.125 -0.203125 0.265625q0 0.34375 0.234375 0.6875q0.25 0.34375 0.484375 0.765625q0.25 0.40625 0.25 0.953125q0 0.6875 -0.515625 1.171875q-0.515625 0.46875 -1.296875 0.6875q-0.765625 0.203125 -1.734375 0.203125l0 1.203125q0 0.46875 0.046875 0.703125q0.046875 0.234375 0.265625 0.421875q0.234375 0.171875 0.6875 0.171875l0 0.296875l-4.109375 0l0 -0.296875q0.65625 -0.015625 0.828125 -0.296875q0.171875 -0.296875 0.171875 -1.0l0 -1.203125q-0.96875 0 -1.75 -0.203125q-0.765625 -0.21875 -1.28125 -0.6875q-0.515625 -0.484375 -0.515625 -1.171875q0 -0.546875 0.234375 -0.953125q0.25 -0.421875 0.484375 -0.765625q0.234375 -0.34375 0.234375 -0.6875q0 -0.140625 -0.203125 -0.265625q-0.203125 -0.125 -0.375 -0.125q-0.3125 0 -0.515625 0.125q-0.203125 0.125 -0.296875 0.265625q-0.078125 0.140625 -0.234375 0.265625q-0.15625 0.125 -0.375 0.125q-0.109375 0 -0.1875 -0.125q-0.078125 -0.125 -0.078125 -0.34375q0 -0.53125 0.4375 -1.046875q0.4375 -0.53125 0.984375 -0.53125q0.90625 0 1.4375 0.53125q0.546875 0.53125 0.546875 1.375q0 0.375 -0.140625 1.125q-0.140625 0.734375 -0.140625 1.1875q0 0.6875 0.484375 1.09375q0.484375 0.40625 1.25 0.4375l0 -4.09375q0 -0.578125 -0.21875 -0.859375q-0.203125 -0.296875 -0.75 -0.3125l0 -0.3125l4.03125 0l0 0.3125q-0.546875 0.015625 -0.75 0.3125q-0.203125 0.28125 -0.203125 0.859375z" fill-rule="nonzero"></path><path fill="#000000" d="m49.22806 79.24357l0 -0.21875q0.265625 -0.0625 0.359375 -0.140625q0.09375 -0.09375 0.125 -0.25q0.03125 -0.171875 0.03125 -0.484375l0 -3.8125q0 -0.296875 -0.03125 -0.4375q-0.015625 -0.140625 -0.0625 -0.21875q-0.046875 -0.078125 -0.140625 -0.109375q-0.078125 -0.046875 -0.28125 -0.109375l0 -0.21875l2.40625 0q0.703125 0 1.125 0.15625q0.421875 0.140625 0.625 0.4375q0.203125 0.296875 0.203125 0.75q0 0.390625 -0.15625 0.671875q-0.140625 0.28125 -0.375 0.46875q-0.234375 0.171875 -0.609375 0.328125l0 0.046875q0.59375 0.171875 0.90625 0.5625q0.3125 0.375 0.3125 0.890625q0 0.59375 -0.265625 0.96875q-0.265625 0.375 -0.75 0.546875q-0.484375 0.171875 -1.15625 0.171875l-2.265625 0zm2.109375 -3.3125q0.671875 0 1.015625 -0.3125q0.359375 -0.328125 0.359375 -0.953125q0 -0.296875 -0.109375 -0.5q-0.09375 -0.203125 -0.265625 -0.3125q-0.171875 -0.125 -0.40625 -0.171875q-0.234375 -0.046875 -0.515625 -0.046875q-0.171875 0 -0.453125 0.015625q-0.265625 0 -0.390625 0.015625l0 2.265625l0.765625 0zm-0.765625 2.890625q0.3125 0.03125 0.703125 0.03125q0.578125 0 0.890625 -0.140625q0.328125 -0.140625 0.46875 -0.421875q0.140625 -0.296875 0.140625 -0.71875q0 -0.421875 -0.15625 -0.703125q-0.15625 -0.28125 -0.484375 -0.40625q-0.3125 -0.140625 -0.890625 -0.140625l-0.671875 0l0 2.5z" fill-rule="nonzero"></path><path fill="#000000" fill-opacity="0.0" d="m23.35924 141.10674l47.74803 0l0 36.503937l-47.74803 0z" fill-rule="nonzero"></path><path fill="#000000" d="m45.202286 156.89307l0 4.09375q0.765625 -0.03125 1.234375 -0.4375q0.484375 -0.40625 0.484375 -1.09375q0 -0.453125 -0.140625 -1.1875q-0.125 -0.75 -0.125 -1.125q0 -0.84375 0.53125 -1.375q0.546875 -0.53125 1.453125 -0.53125q0.53125 0 0.96875 0.53125q0.453125 0.53125 0.453125 1.046875q0 0.21875 -0.078125 0.34375q-0.078125 0.125 -0.203125 0.125q-0.21875 0 -0.375 -0.125q-0.15625 -0.125 -0.234375 -0.265625q-0.078125 -0.140625 -0.28125 -0.265625q-0.203125 -0.125 -0.515625 -0.125q-0.171875 0 -0.390625 0.125q-0.203125 0.125 -0.203125 0.265625q0 0.34375 0.234375 0.6875q0.25 0.34375 0.484375 0.765625q0.25 0.40625 0.25 0.953125q0 0.6875 -0.515625 1.171875q-0.515625 0.46875 -1.296875 0.6875q-0.765625 0.203125 -1.734375 0.203125l0 1.203125q0 0.46875 0.046875 0.703125q0.046875 0.234375 0.265625 0.421875q0.234375 0.171875 0.6875 0.171875l0 0.296875l-4.109375 0l0 -0.296875q0.65625 -0.015625 0.828125 -0.296875q0.171875 -0.296875 0.171875 -1.0l0 -1.203125q-0.96875 0 -1.75 -0.203125q-0.765625 -0.21875 -1.28125 -0.6875q-0.515625 -0.484375 -0.515625 -1.171875q0 -0.546875 0.234375 -0.953125q0.25 -0.421875 0.484375 -0.765625q0.234375 -0.34375 0.234375 -0.6875q0 -0.140625 -0.203125 -0.265625q-0.203125 -0.125 -0.375 -0.125q-0.3125 0 -0.515625 0.125q-0.203125 0.125 -0.296875 0.265625q-0.078125 0.140625 -0.234375 0.265625q-0.15625 0.125 -0.375 0.125q-0.109375 0 -0.1875 -0.125q-0.078125 -0.125 -0.078125 -0.34375q0 -0.53125 0.4375 -1.046875q0.4375 -0.53125 0.984375 -0.53125q0.90625 0 1.4375 0.53125q0.546875 0.53125 0.546875 1.375q0 0.375 -0.140625 1.125q-0.140625 0.734375 -0.140625 1.1875q0 0.6875 0.484375 1.09375q0.484375 0.40625 1.25 0.4375l0 -4.09375q0 -0.578125 -0.21875 -0.859375q-0.203125 -0.296875 -0.75 -0.3125l0 -0.3125l4.03125 0l0 0.3125q-0.546875 0.015625 -0.75 0.3125q-0.203125 0.28125 -0.203125 0.859375z" fill-rule="nonzero"></path><path fill="#000000" d="m50.986176 169.15869l0 -0.21875q0.203125 -0.046875 0.28125 -0.09375q0.09375 -0.046875 0.140625 -0.125q0.046875 -0.078125 0.0625 -0.21875q0.03125 -0.140625 0.03125 -0.4375l0 -3.8125q0 -0.296875 -0.03125 -0.4375q-0.015625 -0.140625 -0.0625 -0.21875q-0.046875 -0.078125 -0.140625 -0.109375q-0.078125 -0.046875 -0.28125 -0.109375l0 -0.21875l1.921875 0q0.828125 0 1.359375 0.1875q0.53125 0.171875 0.890625 0.53125q0.375 0.359375 0.546875 0.890625q0.1875 0.53125 0.1875 1.265625q0 0.734375 -0.171875 1.3125q-0.171875 0.5625 -0.5 0.9375q-0.28125 0.328125 -0.6875 0.546875q-0.34375 0.171875 -0.78125 0.25q-0.4375 0.078125 -1.171875 0.078125l-1.59375 0zm1.34375 -0.40625q0.171875 0.015625 0.515625 0.015625q0.359375 0 0.640625 -0.0625q0.296875 -0.0625 0.53125 -0.1875q0.25 -0.140625 0.4375 -0.375q0.1875 -0.234375 0.296875 -0.53125q0.125 -0.3125 0.171875 -0.6875q0.0625 -0.375 0.0625 -0.8125q0 -0.890625 -0.265625 -1.46875q-0.25 -0.578125 -0.71875 -0.828125q-0.46875 -0.265625 -1.109375 -0.265625q-0.296875 0 -0.5625 0.015625l0 5.1875z" fill-rule="nonzero"></path><path fill="#000000" fill-opacity="0.0" d="m268.9817 105.79973l51.68506 0l0 64.34645l-51.68506 0z" fill-rule="nonzero"></path><path fill="#000000" d="m293.92938 138.00484q-0.609375 0.953125 -0.84375 1.6875q-0.21875 0.734375 -0.21875 1.46875q0 0.671875 0.296875 2.09375q1.71875 -1.3125 2.4375 -2.453125q0.71875 -1.140625 0.71875 -1.96875q0 -0.25 -0.171875 -0.609375q-0.203125 -0.390625 -0.203125 -0.578125q0 -0.203125 0.140625 -0.359375q0.140625 -0.15625 0.34375 -0.15625q0.25 0 0.40625 0.234375q0.15625 0.21875 0.15625 0.75q0 1.65625 -1.171875 3.234375q-1.453125 1.9375 -3.671875 3.0q-0.046875 -0.375 -0.21875 -1.1875q-0.3125 -1.609375 -0.3125 -2.25q0 -0.828125 0.390625 -1.609375q0.390625 -0.796875 1.15625 -1.375q-1.375 0.03125 -1.96875 0.3125q-0.421875 0.203125 -0.421875 0.46875q0 0.109375 0.109375 0.375q0.0625 0.171875 0.0625 0.296875q0 0.125 -0.109375 0.234375q-0.09375 0.09375 -0.25 0.09375q-0.203125 0 -0.34375 -0.171875q-0.140625 -0.171875 -0.140625 -0.46875q0 -0.453125 0.296875 -0.828125q0.3125 -0.375 1.0625 -0.578125q0.75 -0.21875 1.984375 -0.203125q0.5 -0.21875 0.625 -0.21875q0.125 0 0.21875 0.109375q0.109375 0.09375 0.109375 0.21875q0 0.234375 -0.46875 0.4375z" fill-rule="nonzero"></path><path fill="#000000" d="m298.28094 144.66109l-0.21875 -0.15625q0.546875 -0.625 0.8125 -0.796875q0.46875 -0.296875 0.953125 -0.296875q0.484375 0 0.765625 0.25q0.296875 0.25 0.296875 0.65625q0 0.828125 -1.265625 1.765625q0.4375 0.03125 0.65625 0.171875q0.21875 0.125 0.359375 0.40625q0.15625 0.265625 0.15625 0.65625q0 1.03125 -1.046875 1.921875q-0.90625 0.765625 -1.84375 0.765625q-0.421875 0 -0.765625 -0.1875q-0.34375 -0.203125 -0.34375 -0.484375q0 -0.125 0.078125 -0.203125q0.09375 -0.09375 0.21875 -0.09375q0.15625 0 0.375 0.203125q0.265625 0.265625 0.40625 0.328125q0.1875 0.09375 0.328125 0.09375q0.421875 0 0.9375 -0.5q0.765625 -0.71875 0.765625 -1.59375q0 -0.4375 -0.25 -0.6875q-0.234375 -0.265625 -0.609375 -0.265625q-0.28125 0 -0.625 0.125l0.03125 -0.328125q0.6875 -0.25 1.25 -0.859375q0.375 -0.421875 0.375 -0.875q0 -0.328125 -0.171875 -0.515625q-0.15625 -0.1875 -0.453125 -0.1875q-0.609375 0 -1.171875 0.6875z" fill-rule="nonzero"></path><path fill="#000000" fill-opacity="0.0" d="m268.9817 60.997746l51.68506 0l0 64.34645l-51.68506 0z" fill-rule="nonzero"></path><path fill="#000000" d="m293.92938 93.20285q-0.609375 0.953125 -0.84375 1.6875q-0.21875 0.734375 -0.21875 1.46875q0 0.671875 0.296875 2.09375q1.71875 -1.3125 2.4375 -2.453125q0.71875 -1.140625 0.71875 -1.96875q0 -0.25 -0.171875 -0.609375q-0.203125 -0.390625 -0.203125 -0.578125q0 -0.203125 0.140625 -0.359375q0.140625 -0.15625 0.34375 -0.15625q0.25 0 0.40625 0.234375q0.15625 0.21875 0.15625 0.75q0 1.65625 -1.171875 3.234375q-1.453125 1.9375 -3.671875 3.0q-0.046875 -0.375 -0.21875 -1.1875q-0.3125 -1.609375 -0.3125 -2.25q0 -0.828125 0.390625 -1.609375q0.390625 -0.796875 1.15625 -1.375q-1.375 0.03125 -1.96875 0.3125q-0.421875 0.203125 -0.421875 0.46875q0 0.109375 0.109375 0.375q0.0625 0.171875 0.0625 0.296875q0 0.125 -0.109375 0.234375q-0.09375 0.09375 -0.25 0.09375q-0.203125 0 -0.34375 -0.171875q-0.140625 -0.171875 -0.140625 -0.46875q0 -0.453125 0.296875 -0.828125q0.3125 -0.375 1.0625 -0.578125q0.75 -0.21875 1.984375 -0.203125q0.5 -0.21875 0.625 -0.21875q0.125 0 0.21875 0.109375q0.109375 0.09375 0.109375 0.21875q0 0.234375 -0.46875 0.4375z" fill-rule="nonzero"></path><path fill="#000000" d="m298.17157 100.20285l-0.28125 -0.125q0.421875 -0.84375 0.875 -1.171875q0.453125 -0.328125 1.015625 -0.328125q0.6875 0 1.078125 0.4375q0.40625 0.421875 0.40625 1.0q0 0.359375 -0.140625 0.71875q-0.140625 0.359375 -0.484375 0.765625q-0.203125 0.265625 -1.171875 1.09375q-1.296875 1.125 -1.828125 1.8125q0.703125 -0.03125 1.453125 -0.03125q0.234375 0 0.40625 0q0.40625 0.015625 0.546875 -0.0625q0.140625 -0.09375 0.46875 -0.625l0.375 0q-0.4375 0.609375 -0.75 1.484375q-0.390625 -0.078125 -0.8125 -0.109375q-0.421875 -0.03125 -0.890625 -0.03125q-0.546875 0 -1.625 0.0625l0.109375 -0.328125q0.484375 -0.734375 1.453125 -1.640625q0.96875 -0.90625 1.25 -1.265625q0.390625 -0.515625 0.578125 -0.984375q0.140625 -0.34375 0.140625 -0.65625q0 -0.484375 -0.265625 -0.765625q-0.265625 -0.296875 -0.640625 -0.296875q-0.328125 0 -0.640625 0.234375q-0.296875 0.21875 -0.625 0.8125z" fill-rule="nonzero"></path><path fill="#000000" fill-opacity="0.0" d="m268.9817 21.14043l51.68506 0l0 64.34645l-51.68506 0z" fill-rule="nonzero"></path><path fill="#000000" d="m293.92938 53.345535q-0.609375 0.953125 -0.84375 1.6875q-0.21875 0.734375 -0.21875 1.46875q0 0.671875 0.296875 2.09375q1.71875 -1.3125 2.4375 -2.453125q0.71875 -1.140625 0.71875 -1.96875q0 -0.25 -0.171875 -0.609375q-0.203125 -0.390625 -0.203125 -0.578125q0 -0.203125 0.140625 -0.359375q0.140625 -0.15625 0.34375 -0.15625q0.25 0 0.40625 0.234375q0.15625 0.21875 0.15625 0.75q0 1.65625 -1.171875 3.234375q-1.453125 1.9375 -3.671875 3.0q-0.046875 -0.375 -0.21875 -1.1875q-0.3125 -1.609375 -0.3125 -2.25q0 -0.828125 0.390625 -1.609375q0.390625 -0.796875 1.15625 -1.375q-1.375 0.03125 -1.96875 0.3125q-0.421875 0.203125 -0.421875 0.46875q0 0.109375 0.109375 0.375q0.0625 0.171875 0.0625 0.296875q0 0.125 -0.109375 0.234375q-0.09375 0.09375 -0.25 0.09375q-0.203125 0 -0.34375 -0.171875q-0.140625 -0.171875 -0.140625 -0.46875q0 -0.453125 0.296875 -0.828125q0.3125 -0.375 1.0625 -0.578125q0.75 -0.21875 1.984375 -0.203125q0.5 -0.21875 0.625 -0.21875q0.125 0 0.21875 0.109375q0.109375 0.09375 0.109375 0.21875q0 0.234375 -0.46875 0.4375z" fill-rule="nonzero"></path><path fill="#000000" d="m300.59344 58.67366l0.171875 0l-0.734375 2.90625l-0.625 2.6875q-0.09375 0.34375 -0.09375 0.453125q0 0.09375 0.09375 0.15625q0.09375 0.0625 0.421875 0.09375q0.234375 0.015625 0.46875 0.0625l-0.109375 0.265625q-1.15625 -0.125 -1.609375 -0.125q-0.671875 0 -1.4375 0.125l0.078125 -0.265625q0.28125 -0.078125 0.640625 -0.15625q0.359375 -0.0625 0.484375 -0.21875q0.1875 -0.1875 0.375 -0.890625l0.578125 -2.21875q0.28125 -1.28125 0.28125 -1.4375q0 -0.1875 -0.15625 -0.1875q-0.109375 0 -1.078125 0.421875l-0.109375 -0.265625q1.40625 -0.671875 1.71875 -0.875q0.3125 -0.21875 0.640625 -0.53125z" fill-rule="nonzero"></path><path fill="#000000" fill-opacity="0.0" d="m5.2493436E-7 190.45874l58.362206 0l0 31.81102l-58.362206 0z" fill-rule="nonzero"></path><path fill="#000000" d="m27.750904 210.58113q-0.0625 0.28125 -0.109375 0.484375q-0.03125 0.1875 -0.0625 0.46875q-0.015625 0.28125 -0.015625 0.5q0 0.28125 0.09375 0.453125q0.09375 0.15625 0.265625 0.234375q0.1875 0.078125 0.65625 0.109375l-0.109375 0.453125l-3.8125 0l0.09375 -0.453125q0.359375 -0.0625 0.53125 -0.1875q0.1875 -0.125 0.296875 -0.34375q0.125 -0.21875 0.21875 -0.53125q0.109375 -0.328125 0.3125 -1.25l1.578125 -7.140625q0.203125 -0.9375 0.203125 -1.46875q0 -0.453125 -0.21875 -0.625q-0.203125 -0.1875 -0.6875 -0.203125l0.109375 -0.453125l8.359375 0l-0.640625 2.84375l-0.890625 0q-0.03125 -0.65625 -0.109375 -1.03125q-0.0625 -0.375 -0.15625 -0.5625q-0.09375 -0.1875 -0.21875 -0.265625q-0.109375 -0.09375 -0.296875 -0.125q-0.1875 -0.046875 -0.515625 -0.046875l-2.859375 0l-1.109375 5.046875l1.734375 0q0.421875 0 0.6875 -0.109375q0.265625 -0.109375 0.5 -0.40625q0.234375 -0.296875 0.578125 -1.0l0.84375 0l-0.90625 3.921875l-0.8125 0q0 -0.578125 -0.03125 -0.90625q-0.015625 -0.328125 -0.109375 -0.453125q-0.078125 -0.125 -0.25 -0.171875q-0.15625 -0.0625 -0.578125 -0.0625l-1.828125 0l-0.734375 3.28125z" fill-rule="nonzero"></path><path fill="#000000" fill-opacity="0.0" d="m247.92784 190.45874l58.362198 0l0 31.81102l-58.362198 0z" fill-rule="nonzero"></path><path fill="#000000" d="m277.44656 200.628l-0.09375 0.453125q-0.40625 0.046875 -0.640625 0.25q-0.234375 0.1875 -0.328125 0.53125q-0.078125 0.34375 -0.078125 0.921875q0 0.1875 0 0.390625l0.28125 7.25l0 0.734375l0.09375 0l4.015625 -7.25q0.359375 -0.640625 0.53125 -1.09375q0.171875 -0.453125 0.171875 -0.8125q0 -0.375 -0.21875 -0.609375q-0.21875 -0.234375 -0.703125 -0.3125l0.09375 -0.453125l3.796875 0l-0.09375 0.453125q-0.25 0.03125 -0.484375 0.1875q-0.234375 0.15625 -0.515625 0.515625q-0.28125 0.34375 -0.875 1.375l-5.9375 10.28125l-1.234375 0l-0.625 -10.359375q-0.03125 -0.59375 -0.125 -1.015625q-0.09375 -0.4375 -0.3125 -0.671875q-0.203125 -0.25 -0.65625 -0.3125l0.09375 -0.453125l3.84375 0z" fill-rule="nonzero"></path><path fill="#000000" fill-opacity="0.0" d="m63.02887 190.8819l169.35434 0l0 31.81102l-169.35434 0z" fill-rule="nonzero"></path><path fill="#000000" d="m153.76369 201.05115l-0.640625 2.84375l-0.890625 0q-0.03125 -0.671875 -0.109375 -1.046875q-0.0625 -0.375 -0.15625 -0.546875q-0.09375 -0.1875 -0.21875 -0.265625q-0.125 -0.09375 -0.3125 -0.125q-0.171875 -0.046875 -0.5 -0.046875l-3.03125 0l-1.0625 4.859375l1.78125 0q0.40625 0 0.671875 -0.109375q0.28125 -0.109375 0.515625 -0.375q0.234375 -0.28125 0.515625 -0.859375l0.84375 0l-0.828125 3.5625l-0.796875 0q0 -0.5 -0.046875 -0.734375q-0.03125 -0.25 -0.09375 -0.359375q-0.046875 -0.125 -0.140625 -0.1875q-0.09375 -0.0625 -0.25 -0.09375q-0.140625 -0.03125 -0.484375 -0.03125l-1.859375 0l-1.1875 5.359375l2.75 0q0.40625 0 0.6875 -0.0625q0.28125 -0.0625 0.515625 -0.203125q0.234375 -0.15625 0.4375 -0.390625q0.21875 -0.234375 0.4375 -0.609375q0.234375 -0.375 0.625 -1.125l0.90625 0l-0.8125 3.203125l-8.234375 0l0.09375 -0.453125q0.359375 -0.0625 0.53125 -0.1875q0.1875 -0.125 0.296875 -0.34375q0.125 -0.21875 0.21875 -0.53125q0.109375 -0.328125 0.3125 -1.25l1.578125 -7.140625q0.203125 -0.9375 0.203125 -1.5q0 -0.4375 -0.21875 -0.609375q-0.21875 -0.171875 -0.6875 -0.1875l0.109375 -0.453125l8.53125 0z" fill-rule="nonzero"></path><path fill="#000000" d="m23.351711 3.8744223l14.330708 0l0 14.330709l-14.330708 0z" fill-rule="nonzero"></path><path stroke="#000000" stroke-width="1.0" stroke-linejoin="round" stroke-linecap="butt" d="m23.351711 3.8744223l14.330708 0l0 14.330709l-14.330708 0z" fill-rule="nonzero"></path><path fill="#000000" d="m23.351614 48.03317l14.330709 0l0 14.330708l-14.330709 0z" fill-rule="nonzero"></path><path stroke="#000000" stroke-width="1.0" stroke-linejoin="round" stroke-linecap="butt" d="m23.351614 48.03317l14.330709 0l0 14.330708l-14.330709 0z" fill-rule="nonzero"></path><path fill="#000000" d="m23.351614 91.78921l14.330709 0l0 14.330704l-14.330709 0z" fill-rule="nonzero"></path><path stroke="#000000" stroke-width="1.0" stroke-linejoin="round" stroke-linecap="butt" d="m23.351614 91.78921l14.330709 0l0 14.330704l-14.330709 0z" fill-rule="nonzero"></path><path fill="#000000" d="m23.359596 136.64043l14.330711 0l0 16.755905l-14.330711 0z" fill-rule="nonzero"></path><path stroke="#000000" stroke-width="1.0" stroke-linejoin="round" stroke-linecap="butt" d="m23.359596 136.64043l14.330711 0l0 16.755905l-14.330711 0z" fill-rule="nonzero"></path><path fill="#000000" d="m272.92358 41.778576l0 0c0 -4.627018 3.750946 -8.377956 8.37796 -8.377956l0 0c2.2219543 0 4.352936 0.8826752 5.924103 2.453846c1.571167 1.5711708 2.4538574 3.702137 2.4538574 5.9241104l0 0c0 4.627014 -3.750946 8.377953 -8.37796 8.377953l0 0c-4.627014 0 -8.37796 -3.7509384 -8.37796 -8.377953z" fill-rule="nonzero"></path><path fill="#000000" d="m273.29376 83.028175l0 0c0 -4.627014 3.750946 -8.377953 8.37796 -8.377953l0 0c2.2219849 0 4.352936 0.8826752 5.924103 2.4538422c1.571167 1.5711746 2.4538574 3.7021408 2.4538574 5.9241104l0 0c0 4.627014 -3.750946 8.377953 -8.37796 8.377953l0 0c-4.627014 0 -8.37796 -3.7509384 -8.37796 -8.377953z" fill-rule="nonzero"></path><path fill="#000000" d="m272.92358 127.82821l0 0c0 -4.627014 3.750946 -8.377953 8.37796 -8.377953l0 0c2.2219543 0 4.352936 0.8826752 5.924103 2.4538422c1.571167 1.5711746 2.4538574 3.7021408 2.4538574 5.9241104l0 0c0 4.6270065 -3.750946 8.377953 -8.37796 8.377953l0 0c-4.627014 0 -8.37796 -3.750946 -8.37796 -8.377953z" fill-rule="nonzero"></path><path fill="#000000" fill-opacity="0.0" d="m37.682323 98.95456l235.2441 28.88189" fill-rule="nonzero"></path><path stroke="#000000" stroke-width="1.0" stroke-linejoin="round" stroke-linecap="butt" d="m37.682323 98.95456l235.2441 28.88189" fill-rule="nonzero"></path><path fill="#000000" fill-opacity="0.0" d="m37.690308 145.01837l235.59055 -61.984253" fill-rule="nonzero"></path><path stroke="#000000" stroke-width="1.0" stroke-linejoin="round" stroke-linecap="butt" d="m37.690308 145.01837l235.59055 -61.984253" fill-rule="nonzero"></path><path fill="#000000" fill-opacity="0.0" d="m272.92358 127.82821l-235.2441 17.196846" fill-rule="nonzero"></path><path stroke="#000000" stroke-width="1.0" stroke-linejoin="round" stroke-linecap="butt" d="m272.92358 127.82821l-235.2441 17.196846" fill-rule="nonzero"></path><path fill="#000000" fill-opacity="0.0" d="m305.4435 173.14551c0 4.896637 -0.66156006 8.866135 -1.4776306 8.866135l-25.014648 0c-0.81607056 0 -1.4776306 3.969513 -1.4776306 8.86615l0 0c0 -4.896637 -0.66156006 -8.86615 -1.4776306 -8.86615l-22.460663 0l0 0c-0.81607056 0 -1.4776306 -3.9694977 -1.4776306 -8.866135z" fill-rule="nonzero"></path><path fill="#000000" fill-opacity="0.0" d="m305.4435 173.14551c0 4.896637 -0.66156006 8.866135 -1.4776306 8.866135l-25.014648 0c-0.81607056 0 -1.4776306 3.969513 -1.4776306 8.86615l0 0c0 -4.896637 -0.66156006 -8.86615 -1.4776306 -8.86615l-22.460663 0l0 0c-0.81607056 0 -1.4776306 -3.9694977 -1.4776306 -8.866135" fill-rule="nonzero"></path><path stroke="#000000" stroke-width="1.0" stroke-linejoin="round" stroke-linecap="butt" d="m305.4435 173.14551c0 4.896637 -0.66156006 8.866135 -1.4776306 8.866135l-25.014648 0c-0.81607056 0 -1.4776306 3.969513 -1.4776306 8.86615l0 0c0 -4.896637 -0.66156006 -8.86615 -1.4776306 -8.86615l-22.460663 0l0 0c-0.81607056 0 -1.4776306 -3.9694977 -1.4776306 -8.866135" fill-rule="nonzero"></path><path fill="#000000" fill-opacity="0.0" d="m244.82677 172.92126c0 5.174942 -2.4083405 9.370071 -5.3791656 9.370071l-84.30632 0c-2.9708405 0 -5.379181 4.1951294 -5.379181 9.370087l0 0c0 -5.1749573 -2.4083252 -9.370087 -5.3791656 -9.370087l-75.62581 0l0 0c-2.9708328 0 -5.3791733 -4.1951294 -5.3791733 -9.370071z" fill-rule="nonzero"></path><path fill="#000000" fill-opacity="0.0" d="m244.82677 172.92126c0 5.174942 -2.4083405 9.370071 -5.3791656 9.370071l-84.30632 0c-2.9708405 0 -5.379181 4.1951294 -5.379181 9.370087l0 0c0 -5.1749573 -2.4083252 -9.370087 -5.3791656 -9.370087l-75.62581 0l0 0c-2.9708328 0 -5.3791733 -4.1951294 -5.3791733 -9.370071" fill-rule="nonzero"></path><path stroke="#000000" stroke-width="1.0" stroke-linejoin="round" stroke-linecap="butt" d="m244.82677 172.92126c0 5.174942 -2.4083405 9.370071 -5.3791656 9.370071l-84.30632 0c-2.9708405 0 -5.379181 4.1951294 -5.379181 9.370087l0 0c0 -5.1749573 -2.4083252 -9.370087 -5.3791656 -9.370087l-75.62581 0l0 0c-2.9708328 0 -5.3791733 -4.1951294 -5.3791733 -9.370071" fill-rule="nonzero"></path><path fill="#000000" fill-opacity="0.0" d="m57.467487 172.93599c0 4.8966217 -0.66155624 8.866135 -1.4776306 8.866135l-25.773705 0c-0.81607246 0 -1.4776306 3.969513 -1.4776306 8.866135l0 0c0 -4.8966217 -0.66155815 -8.866135 -1.4776325 -8.866135l-23.150415 0l0 0c-0.8160734 0 -1.4776313 -3.969513 -1.4776313 -8.866135z" fill-rule="nonzero"></path><path fill="#000000" fill-opacity="0.0" d="m57.467487 172.93599c0 4.8966217 -0.66155624 8.866135 -1.4776306 8.866135l-25.773705 0c-0.81607246 0 -1.4776306 3.969513 -1.4776306 8.866135l0 0c0 -4.8966217 -0.66155815 -8.866135 -1.4776325 -8.866135l-23.150415 0l0 0c-0.8160734 0 -1.4776313 -3.969513 -1.4776313 -8.866135" fill-rule="nonzero"></path><path stroke="#000000" stroke-width="1.0" stroke-linejoin="round" stroke-linecap="butt" d="m57.467487 172.93599c0 4.8966217 -0.66155624 8.866135 -1.4776306 8.866135l-25.773705 0c-0.81607246 0 -1.4776306 3.969513 -1.4776306 8.866135l0 0c0 -4.8966217 -0.66155815 -8.866135 -1.4776325 -8.866135l-23.150415 0l0 0c-0.8160734 0 -1.4776313 -3.969513 -1.4776313 -8.866135" fill-rule="nonzero"></path><path fill="#000000" fill-opacity="0.0" d="m37.68242 11.039777l235.2441 30.740158" fill-rule="nonzero"></path><path stroke="#000000" stroke-width="1.0" stroke-linejoin="round" stroke-linecap="butt" d="m37.68242 11.039777l235.2441 30.740158" fill-rule="nonzero"></path><path fill="#000000" fill-opacity="0.0" d="m37.682323 55.19852l235.2441 72.62993" fill-rule="nonzero"></path><path stroke="#000000" stroke-width="1.0" stroke-linejoin="round" stroke-linecap="butt" d="m37.682323 55.19852l235.2441 72.62993" fill-rule="nonzero"></path><path fill="#000000" fill-opacity="0.0" d="m37.68242 11.039777l235.62206 72.0" fill-rule="nonzero"></path><path stroke="#000000" stroke-width="1.0" stroke-linejoin="round" stroke-linecap="butt" d="m37.68242 11.039777l235.62206 72.0" fill-rule="nonzero"></path></g></svg>

