<?xml version="1.0" encoding="utf-8"?>
<!-- Generator: Adobe Illustrator 18.1.1, SVG Export Plug-In . SVG Version: 6.00 Build 0)  -->
<svg version="1.1" id="svg6068" xmlns="http://www.w3.org/2000/svg" xmlns:xlink="http://www.w3.org/1999/xlink" x="0px" y="0px"
	 viewBox="1.7 194.8 559.2 670.6" enable-background="new 1.7 194.8 559.2 670.6" xml:space="preserve">
<path id="path4190" fill="#231F20" d="M62.7,629.2h27.8V657H62.7V629.2z"/>
<g id="g4192">
	<path id="path4194" fill="#231F20" stroke="#231F20" stroke-miterlimit="10" d="M62.9,629.2h27.8V657H62.9V629.2z"/>
</g>
<path id="path4196" fill="#231F20" d="M168.4,718.3h27.8v27.8h-27.8V718.3z"/>
<g id="g4198">
	<path id="path4200" fill="#231F20" stroke="#231F20" stroke-miterlimit="10" d="M168.4,718.3h27.8v27.8h-27.8V718.3z"/>
</g>
<path id="path4202" fill="#231F20" d="M230,490.6h27.8v27.8H230V490.6z"/>
<g id="g4204">
	<path id="path4206" fill="#231F20" stroke="#231F20" stroke-miterlimit="10" d="M230,490.6h27.8v27.8H230V490.6z"/>
</g>
<path id="path4208" fill="#231F20" d="M363.3,624.1h27.8v27.8h-27.8V624.1z"/>
<g id="g4210">
	<path id="path4212" fill="#231F20" stroke="#231F20" stroke-miterlimit="10" d="M363.3,624.1h27.8v27.8h-27.8V624.1z"/>
</g>
<path id="path4214" fill="#231F20" d="M109.9,466.2c19.4,19.4,19.4,51.3,0,70.7s-51.3,19.4-70.7,0s-19.4-51.3,0-70.7
	S90.5,446.5,109.9,466.2"/>
<g id="g4216">
	<path id="path4218" fill="#FFFFFF" stroke="#231F20" stroke-miterlimit="10" d="M109.9,466.2c19.4,19.4,19.4,51.3,0,70.7
		s-51.3,19.4-70.7,0s-19.4-51.3,0-70.7C58.6,446.5,90.5,446.5,109.9,466.2"/>
</g>
<path id="path4220" fill="#231F20" d="M282.3,599.4c19.4,19.4,19.4,51.3,0,70.7c-19.4,19.4-51.3,19.4-70.7,0s-19.4-51.3,0-70.7
	S262.8,580,282.3,599.4"/>
<g id="g4222">
	<path id="path4224" fill="#FFFFFF" stroke="#231F20" stroke-miterlimit="10" d="M282.3,599.4c19.4,19.4,19.4,51.3,0,70.7
		c-19.4,19.4-51.3,19.4-70.7,0s-19.4-51.3,0-70.7S262.8,580,282.3,599.4"/>
</g>
<path id="path4226" fill="#231F20" d="M109.9,755.5c19.4,19.4,19.4,51.3,0,70.7s-51.3,19.4-70.7,0s-19.4-51.3,0-70.7
	C58.6,735.8,90.5,735.8,109.9,755.5"/>
<g id="g4228">
	<path id="path4230" fill="#A7A5A6" stroke="#231F20" stroke-miterlimit="10" d="M109.9,755.5c19.4,19.4,19.4,51.3,0,70.7
		s-51.3,19.4-70.7,0s-19.4-51.3,0-70.7C58.6,735.8,90.5,735.8,109.9,755.5"/>
</g>
<path id="path4232" fill="#231F20" d="M346,755.5c19.4,19.4,19.4,51.3,0,70.7s-51.3,19.4-70.7,0s-19.4-51.3,0-70.7
	C294.7,735.8,326.4,735.8,346,755.5"/>
<g id="g4234">
	<path id="path4236" fill="#A7A5A6" stroke="#231F20" stroke-miterlimit="10" d="M346,755.5c19.4,19.4,19.4,51.3,0,70.7
		s-51.3,19.4-70.7,0s-19.4-51.3,0-70.7C294.7,735.8,326.4,735.8,346,755.5"/>
</g>
<g id="g4238">
	<path id="path4240" fill="#231F20" stroke="#231F20" stroke-miterlimit="10" d="M75.1,551.3l1,77.9"/>
</g>
<g id="g4242">
	<path id="path4244" fill="#231F20" stroke="#231F20" stroke-miterlimit="10" d="M197.2,738.9l68.8,30.7"/>
</g>
<path id="path4246" fill="#231F20" d="M482.4,466.2c19.4,19.4,19.4,51.3,0,70.7c-19.4,19.4-51.3,19.4-70.7,0s-19.4-51.3,0-70.7
	S463,446.5,482.4,466.2"/>
<g id="g4248">
	<path id="path4250" fill="#FFFFFF" stroke="#231F20" stroke-miterlimit="10" d="M482.4,466.2c19.4,19.4,19.4,51.3,0,70.7
		c-19.4,19.4-51.3,19.4-70.7,0s-19.4-51.3,0-70.7C431.1,446.5,463,446.5,482.4,466.2"/>
</g>
<g id="g4252">
	<path id="path4254" fill="#231F20" stroke="#231F20" stroke-miterlimit="10" d="M245.3,585.1l-1-66.6"/>
</g>
<path id="path4256" fill="#231F20" d="M521.6,755.5c19.4,19.4,19.4,51.3,0,70.7s-51.3,19.4-70.7,0c-19.4-19.4-19.4-51.3,0-70.7
	C470.3,735.8,502.2,735.8,521.6,755.5"/>
<g id="g4258">
	<path id="path4260" fill="#A7A5A6" stroke="#231F20" stroke-miterlimit="10" d="M521.6,755.5c19.4,19.4,19.4,51.3,0,70.7
		s-51.3,19.4-70.7,0c-19.4-19.4-19.4-51.3,0-70.7C470.3,735.8,502.2,735.8,521.6,755.5"/>
</g>
<g id="g4262">
	<path id="path4264" fill="#231F20" stroke="#231F20" stroke-miterlimit="10" d="M423.9,546l-40,77.9"/>
</g>
<g id="g4266">
	<path id="path4268" fill="#231F20" stroke="#231F20" stroke-miterlimit="10" d="M118.3,766.8l50.3-26.6"/>
</g>
<g id="g4270">
	<path id="path4272" fill="#231F20" stroke="#231F20" stroke-miterlimit="10" d="M296.6,636.4l66.6,1"/>
</g>
<g id="g4274">
	<path id="path4276" fill="#231F20" stroke="#231F20" stroke-miterlimit="10" d="M124.3,501.9L230,504"/>
</g>
<g id="g4278">
	<path id="path4280" fill="#231F20" stroke="#231F20" stroke-miterlimit="10" d="M219.7,676.4l-27.6,42"/>
</g>
<g id="g4282">
	<path id="path4284" fill="#231F20" stroke="#231F20" stroke-miterlimit="10" d="M257.8,504l138.6-2.2"/>
</g>
<g id="g4286">
	<path id="path4288" fill="#231F20" stroke="#231F20" stroke-miterlimit="10" d="M391.1,650.7l58.8,104.8"/>
</g>
<g id="g4290">
	<path id="path4292" fill="#231F20" stroke="#231F20" stroke-miterlimit="10" d="M77.1,657l-1.9,82.9"/>
</g>
<rect x="27" y="220" fill="none" stroke="#000000" stroke-miterlimit="10" width="455.2" height="199.9"/>
<rect x="134" y="240" fill="none" width="193.4" height="47.6"/>
<g enable-background="new    ">
	<path d="M142.3,261.4c-0.4-0.1-1.7-0.1-3.9-0.1c-2,0-3.2,0-3.5,0.1h-0.2V260h0.5c0.6,0,1.1,0,1.5-0.1c0.2-0.1,0.3-0.2,0.4-0.3
		c0,0,0-1.7,0-5.1v-5h-2.2v-1.4h2.2v-2l0-2.1l0.1-0.3c0.3-1.1,0.9-2.1,1.8-2.8c0.8-0.7,1.9-1.1,3.2-1.3c0,0,0.1,0,0.3,0
		c0.2,0,0.3,0,0.4,0c0.7,0,1.3,0.3,1.8,0.7c0.5,0.4,0.7,1,0.7,1.7c0,0.5-0.1,0.9-0.4,1.1c-0.3,0.3-0.7,0.4-1.1,0.4
		c-0.5,0-0.9-0.1-1.1-0.4c-0.3-0.3-0.4-0.7-0.4-1.1c0-0.4,0.2-0.8,0.6-1.2h-0.1c-0.2,0-0.4,0-0.7,0c-0.5,0.1-0.9,0.3-1.3,0.8
		c-0.4,0.4-0.7,0.9-0.9,1.6c-0.1,0.4-0.2,1.4-0.2,2.9v2h3.4v1.4h-3.3v5c0,3.3,0,5,0,5.1c0.1,0.2,0.2,0.3,0.4,0.3
		c0.2,0.1,0.8,0.1,1.6,0.2h1v1.4H142.3z"/>
	<path d="M146.5,247.9c0.4,0,0.7,0,1.1-0.1c0.4,0,0.7-0.1,0.9-0.1c0.2,0,0.3,0,0.4,0h0.1v5.6c0,3.8,0,5.8,0.1,5.9
		c0.1,0.4,0.2,0.8,0.5,1c0.4,0.3,1,0.4,1.9,0.4c0.6,0,1.1-0.1,1.5-0.3c1.2-0.6,1.9-1.7,2.1-3.4c0,0,0-0.2,0-0.5c0-0.3,0-0.7,0-1.3
		s0-1,0-1.4s0-0.9,0-1.4c0-0.5,0-0.9,0-1.3l0-0.5c-0.1-0.4-0.2-0.7-0.4-0.8c-0.2-0.1-0.7-0.2-1.4-0.3h-0.6v-1.4c0,0,0.8-0.1,2.4-0.2
		c1.5-0.1,2.3-0.2,2.4-0.2h0.2v5.5c0,3.7,0,5.6,0,5.7c0.1,0.4,0.2,0.7,0.4,0.8c0.2,0.1,0.7,0.2,1.4,0.3h0.6v1.4c0,0-0.8,0.1-2.3,0.2
		c-1.5,0.1-2.3,0.2-2.4,0.2h-0.2v-2.1c-0.9,1.1-1.7,1.7-2.5,1.9c-0.4,0.1-0.9,0.2-1.6,0.2c-1.3,0-2.3-0.2-3.1-0.7
		c-0.7-0.5-1.2-1.3-1.4-2.3c0-0.1,0-1.6-0.1-4.2c0-2.2,0-3.5,0-3.8c0-0.3-0.1-0.5-0.2-0.6c-0.2-0.3-0.8-0.5-1.9-0.5H144v-0.7
		c0-0.5,0-0.7,0.1-0.7l0.3,0c0.2,0,0.5,0,0.9-0.1C145.7,248,146.1,247.9,146.5,247.9z"/>
	<path d="M166.3,259.6c0.2,0.3,0.6,0.4,1.5,0.4h0.4h0.5v1.4h-0.2c-0.3-0.1-1.4-0.1-3.5-0.1s-3.2,0-3.5,0.1h-0.2V260h0.5h0.4
		c0.8,0,1.3-0.1,1.5-0.4v-0.2c0-0.2,0-0.4,0-0.7c0-0.3,0-0.6,0-1c0-0.4,0-0.8,0-1.2c0-0.4,0-0.9,0-1.3c0-0.6,0-1.3,0-2.1
		c0-0.7,0-1.3,0-1.8v-0.7c-0.1-0.4-0.2-0.7-0.4-0.8c-0.2-0.1-0.7-0.2-1.4-0.3h-0.6v-0.7c0-0.5,0-0.7,0.1-0.7l0.3,0
		c0.2,0,0.5,0,0.9-0.1c0.4,0,0.8,0,1.1-0.1c0.4,0,0.7,0,1.1-0.1c0.4,0,0.7-0.1,0.9-0.1c0.2,0,0.3,0,0.3,0h0.1v1.2c0,0.8,0,1.2,0,1.2
		l0,0c1.1-1.6,2.7-2.4,4.7-2.4c2.4,0.1,3.7,1.2,3.9,3.5c0,0.1,0,1.6,0,4.3c0,2.6,0,4,0,4c0.1,0.2,0.2,0.3,0.4,0.3
		c0.4,0.1,0.9,0.1,1.5,0.1h0.5v1.4H177c-0.3-0.1-1.4-0.1-3.5-0.1s-3.2,0-3.5,0.1h-0.2V260h0.5h0.2c1.1,0,1.6-0.2,1.6-0.5
		c0,0,0-1.5,0-4.3c0-2.8,0-4.3-0.1-4.4c-0.1-0.7-0.4-1.1-0.7-1.4c-0.3-0.3-0.8-0.4-1.5-0.4c-0.9,0-1.7,0.4-2.4,1.1
		c-0.7,0.7-1.1,1.6-1.3,2.7c0,0,0,0.2,0,0.6s0,0.8,0,1.4c0,0.6,0,1.1,0,1.6c0,0.3,0,0.6,0,1s0,0.6,0,0.9c0,0.3,0,0.5,0,0.7
		c0,0.2,0,0.4,0,0.5V259.6z"/>
	<path d="M189.7,251.5c-0.3,0.3-0.7,0.4-1.2,0.4c-0.5,0-0.9-0.2-1.2-0.5c-0.3-0.3-0.5-0.7-0.5-1.2c0-0.5,0.2-0.9,0.5-1.2
		c0.1-0.1,0.1-0.2,0.1-0.2c0,0-0.1,0-0.3-0.1c-0.5-0.1-1-0.1-1.5-0.1c-1.1,0-1.9,0.3-2.5,1c-1,1-1.5,2.6-1.5,4.9c0,1.7,0.3,3,1,4
		c0.8,1.3,2,1.9,3.4,1.9c0.5,0,1-0.1,1.4-0.3c0.9-0.4,1.5-1.2,1.8-2.4c0-0.2,0.1-0.3,0.2-0.3c0.1,0,0.2-0.1,0.5-0.1h0.4
		c0.1,0.1,0.2,0.2,0.2,0.3c0,0.4-0.3,1-0.8,1.8c-1,1.5-2.5,2.2-4.4,2.2c-1,0-2-0.2-2.9-0.7c-2-1.1-3.3-2.8-3.7-5.3c0-0.1,0-0.5,0-1
		c0-0.5,0-0.9,0-1c0.2-1.9,1.1-3.5,2.5-4.7c1.2-1,2.6-1.5,4.1-1.5c2.7,0,4.2,0.7,4.7,2.1c0.1,0.2,0.1,0.4,0.1,0.7
		C190.2,250.8,190,251.2,189.7,251.5z"/>
	<path d="M195.8,242.9v-0.5h1.2v5.7h4.2v1.4H197v4.5c0,2.6,0,4,0,4.4c0,0.3,0.1,0.7,0.2,1c0.3,0.8,0.8,1.2,1.5,1.2
		c0.9,0,1.5-0.7,1.7-2.2c0-0.2,0-0.6,0-1.4v-1.1h1.2v1.1c0,0.9-0.1,1.6-0.2,2c-0.2,0.8-0.6,1.5-1.2,2c-0.5,0.5-1.3,0.8-2.1,0.8
		c-1.1,0-2-0.3-2.7-0.9c-0.7-0.6-1-1.4-1.1-2.5c0-0.1,0-1.7,0-4.6v-4.2H192v-1.1h0.3c0.8-0.1,1.4-0.4,1.9-1
		C195.1,246.4,195.7,244.9,195.8,242.9z"/>
	<path d="M211.1,261.4c-0.2-0.1-1.3-0.1-3.2-0.1c-1.9,0-3,0-3.4,0.1h-0.2V260h0.5c0.6,0,1.1,0,1.5-0.1c0.2-0.1,0.3-0.2,0.4-0.3
		c0,0,0-1.5,0-4.5c0-3.1,0-4.7-0.1-5c-0.2-0.4-0.8-0.6-1.8-0.6h-0.3v-0.7c0-0.5,0-0.7,0.1-0.7l0.3,0c0.2,0,0.5,0,0.9-0.1
		c0.4,0,0.7,0,1.1-0.1c0.4,0,0.7,0,1.1-0.1c0.4,0,0.7-0.1,0.9-0.1c0.2,0,0.3,0,0.3,0h0.1v11.8c0.1,0.2,0.2,0.3,0.4,0.4
		c0.1,0.1,0.5,0.1,1.1,0.1h0.7v1.4H211.1z M207.5,240.7c0.5,0,0.9,0.2,1.3,0.5c0.3,0.3,0.5,0.8,0.5,1.3c0,0.7-0.3,1.3-0.8,1.6
		c-0.3,0.2-0.6,0.3-1,0.3c-0.4,0-0.8-0.1-1-0.3c-0.6-0.3-0.8-0.8-0.8-1.6c0-0.6,0.2-1,0.5-1.4C206.5,240.9,206.9,240.7,207.5,240.7z
		"/>
	<path d="M212.9,254.8c0-1.9,0.6-3.5,1.8-4.8c1.2-1.4,2.6-2.1,4.3-2.3c0.3,0,0.6-0.1,0.8-0.1c1.8,0,3.4,0.7,4.7,2
		c1.4,1.4,2.2,3.2,2.2,5.2c0,0.4-0.1,0.9-0.2,1.5c-0.2,1.3-0.8,2.4-1.7,3.4c-0.9,1-2,1.6-3.3,1.9c-0.5,0.1-1,0.2-1.6,0.2
		c-0.6,0-1.2-0.1-1.6-0.2c-1.5-0.4-2.8-1.2-3.8-2.5C213.4,257.8,212.9,256.4,212.9,254.8z M220.3,248.7c-0.1,0-0.3,0-0.5,0
		c-0.6,0-1.2,0.1-1.8,0.4c-1.2,0.6-1.8,1.7-2.1,3.4c0,0.4-0.1,1-0.1,2c0,2,0.2,3.4,0.6,4.2c0.7,1.3,1.7,1.9,3.2,1.9
		c2.5,0,3.8-1.7,3.8-5v-1c0-1.3-0.1-2.2-0.2-2.7C223,250.1,222,249.1,220.3,248.7z"/>
	<path d="M233.3,259.6c0.2,0.3,0.6,0.4,1.5,0.4h0.4h0.5v1.4h-0.2c-0.3-0.1-1.4-0.1-3.5-0.1s-3.2,0-3.5,0.1h-0.2V260h0.5h0.4
		c0.8,0,1.3-0.1,1.5-0.4v-0.2c0-0.2,0-0.4,0-0.7c0-0.3,0-0.6,0-1c0-0.4,0-0.8,0-1.2c0-0.4,0-0.9,0-1.3c0-0.6,0-1.3,0-2.1
		c0-0.7,0-1.3,0-1.8v-0.7c-0.1-0.4-0.2-0.7-0.4-0.8c-0.2-0.1-0.7-0.2-1.4-0.3h-0.6v-0.7c0-0.5,0-0.7,0.1-0.7l0.3,0
		c0.2,0,0.5,0,0.9-0.1c0.4,0,0.8,0,1.1-0.1c0.4,0,0.7,0,1.1-0.1c0.4,0,0.7-0.1,0.9-0.1c0.2,0,0.3,0,0.3,0h0.1v1.2c0,0.8,0,1.2,0,1.2
		l0,0c1.1-1.6,2.7-2.4,4.7-2.4c2.4,0.1,3.7,1.2,3.9,3.5c0,0.1,0,1.6,0,4.3c0,2.6,0,4,0,4c0.1,0.2,0.2,0.3,0.4,0.3
		c0.4,0.1,0.9,0.1,1.5,0.1h0.5v1.4H244c-0.3-0.1-1.4-0.1-3.5-0.1s-3.2,0-3.5,0.1h-0.2V260h0.5h0.2c1.1,0,1.6-0.2,1.6-0.5
		c0,0,0-1.5,0-4.3c0-2.8,0-4.3-0.1-4.4c-0.1-0.7-0.4-1.1-0.7-1.4c-0.3-0.3-0.8-0.4-1.5-0.4c-0.9,0-1.7,0.4-2.4,1.1
		c-0.7,0.7-1.1,1.6-1.3,2.7c0,0,0,0.2,0,0.6s0,0.8,0,1.4c0,0.6,0,1.1,0,1.6c0,0.3,0,0.6,0,1s0,0.6,0,0.9c0,0.3,0,0.5,0,0.7
		c0,0.2,0,0.4,0,0.5V259.6z"/>
	<path d="M258.3,259.6c0.2,0.3,0.6,0.4,1.5,0.4h0.4h0.5v1.4h-0.2c-0.3-0.1-1.4-0.1-3.5-0.1s-3.2,0-3.5,0.1h-0.2V260h0.5h0.4
		c0.8,0,1.3-0.1,1.5-0.4v-0.2c0-0.2,0-0.4,0-0.7c0-0.3,0-0.6,0-1c0-0.4,0-0.8,0-1.2c0-0.4,0-0.9,0-1.3c0-0.6,0-1.3,0-2.1
		c0-0.7,0-1.3,0-1.8v-0.7c-0.1-0.4-0.2-0.7-0.4-0.8c-0.2-0.1-0.7-0.2-1.4-0.3h-0.6v-0.7c0-0.5,0-0.7,0.1-0.7l0.3,0
		c0.2,0,0.5,0,0.9-0.1c0.4,0,0.8,0,1.1-0.1c0.4,0,0.7,0,1.1-0.1c0.4,0,0.7-0.1,0.9-0.1c0.2,0,0.3,0,0.3,0h0.1v1.2c0,0.8,0,1.2,0,1.2
		l0,0c1.1-1.6,2.7-2.4,4.7-2.4c2.4,0.1,3.7,1.2,3.9,3.5c0,0.1,0,1.6,0,4.3c0,2.6,0,4,0,4c0.1,0.2,0.2,0.3,0.4,0.3
		c0.4,0.1,0.9,0.1,1.5,0.1h0.5v1.4H269c-0.3-0.1-1.4-0.1-3.5-0.1s-3.2,0-3.5,0.1h-0.2V260h0.5h0.2c1.1,0,1.6-0.2,1.6-0.5
		c0,0,0-1.5,0-4.3c0-2.8,0-4.3-0.1-4.4c-0.1-0.7-0.4-1.1-0.7-1.4c-0.3-0.3-0.8-0.4-1.5-0.4c-0.9,0-1.7,0.4-2.4,1.1
		c-0.7,0.7-1.1,1.6-1.3,2.7c0,0,0,0.2,0,0.6s0,0.8,0,1.4c0,0.6,0,1.1,0,1.6c0,0.3,0,0.6,0,1s0,0.6,0,0.9c0,0.3,0,0.5,0,0.7
		c0,0.2,0,0.4,0,0.5V259.6z"/>
	<path d="M270.5,254.8c0-1.9,0.6-3.5,1.8-4.8c1.2-1.4,2.6-2.1,4.3-2.3c0.3,0,0.6-0.1,0.8-0.1c1.8,0,3.4,0.7,4.7,2
		c1.4,1.4,2.2,3.2,2.2,5.2c0,0.4-0.1,0.9-0.2,1.5c-0.2,1.3-0.8,2.4-1.7,3.4c-0.9,1-2,1.6-3.3,1.9c-0.5,0.1-1,0.2-1.6,0.2
		c-0.6,0-1.2-0.1-1.6-0.2c-1.5-0.4-2.8-1.2-3.8-2.5C271,257.8,270.5,256.4,270.5,254.8z M277.9,248.7c-0.1,0-0.3,0-0.5,0
		c-0.6,0-1.2,0.1-1.8,0.4c-1.2,0.6-1.8,1.7-2.1,3.4c0,0.4-0.1,1-0.1,2c0,2,0.2,3.4,0.6,4.2c0.7,1.3,1.7,1.9,3.2,1.9
		c2.5,0,3.8-1.7,3.8-5v-1c0-1.3-0.1-2.2-0.2-2.7C280.7,250.1,279.6,249.1,277.9,248.7z"/>
	<path d="M292.7,247.7c1.5,0,2.9,0.5,4.1,1.5v-3.2c0-2.1,0-3.3,0-3.3c-0.1-0.4-0.2-0.7-0.4-0.8c-0.2-0.1-0.7-0.2-1.4-0.3h-0.6V241
		c0-0.5,0-0.7,0.1-0.7l0.3,0c0.2,0,0.5,0,0.9-0.1c0.4,0,0.8,0,1.1-0.1c0.4,0,0.7,0,1.1-0.1c0.4,0,0.7-0.1,0.9-0.1c0.2,0,0.3,0,0.3,0
		h0.1v9.4c0,6.3,0,9.5,0,9.6c0.1,0.4,0.2,0.7,0.4,0.8c0.2,0.1,0.7,0.2,1.4,0.3h0.6v1.4c0,0-0.8,0.1-2.4,0.2
		c-1.5,0.1-2.3,0.2-2.4,0.2h-0.2v-1.7l-0.2,0.2c-1.2,1-2.5,1.5-4,1.5c-1.4,0-2.7-0.5-3.8-1.5c-1.3-1.1-2.1-2.6-2.4-4.5
		c0-0.2,0-0.5,0-1.1c0-2,0.6-3.7,1.9-5C289.4,248.4,290.9,247.7,292.7,247.7z M296.7,250.8c-0.9-1.3-2.1-1.9-3.5-1.9
		c-1,0-1.9,0.4-2.7,1.1c-0.5,0.5-0.9,1.2-1,1.9c-0.2,0.7-0.3,1.7-0.3,3c0,2.3,0.4,3.9,1.3,4.7c0.6,0.7,1.4,1,2.4,1
		c0.7,0,1.4-0.2,2.1-0.6c0.7-0.4,1.2-0.9,1.6-1.6l0.1-0.2V250.8z"/>
	<path d="M315.2,253.8c0,0.1-0.1,0.3-0.2,0.4h-8.7v0.5c0,1.5,0.2,2.7,0.6,3.5c0.7,1.5,2,2.3,3.8,2.3c0.9,0,1.6-0.3,2.2-1
		c0.4-0.4,0.7-0.9,1-1.6c0.1-0.2,0.1-0.4,0.2-0.4c0.1-0.1,0.2-0.1,0.5-0.1c0.4,0,0.6,0.1,0.6,0.3c0,0.1,0,0.2-0.1,0.4
		c-0.4,1.1-1,2-1.9,2.6c-0.9,0.7-1.9,1-3.1,1c-0.4,0-0.8-0.1-1.4-0.2c-1.2-0.2-2.2-0.8-3.2-1.6c-0.9-0.8-1.6-1.9-2-3.1
		c-0.2-0.7-0.4-1.5-0.4-2.3c0-1.9,0.6-3.5,1.7-4.8c1.1-1.3,2.5-2.1,4.1-2.3c0.1,0,0.2,0,0.4,0c1.9,0,3.3,0.6,4.3,1.7
		C314.7,250.3,315.2,251.9,315.2,253.8z M312.6,252.9c-0.2-2.2-0.9-3.6-2.3-4.1c-0.1-0.1-0.4-0.1-0.7-0.1c-1.1,0-1.9,0.5-2.6,1.5
		c-0.4,0.7-0.7,1.6-0.8,2.8v0.2h6.4V252.9z"/>
</g>
<rect x="134" y="307.6" fill="none" width="193" height="47.6"/>
<g enable-background="new    ">
	<path d="M144.3,315.7c0.1,0,0.6,0.1,1.5,0.1h1.1c1.2,0,2,0,2.5-0.1h0.2v1.4h-0.3c-1.2,0.1-1.9,0.5-2.3,1.2c0,0.1-0.7,1.9-2.1,5.4
		c-1.4,3.5-2,5.3-2.1,5.4c-0.1,0.2-0.4,0.3-0.8,0.3c-0.4,0-0.6-0.1-0.7-0.3c-2.9-7.4-4.3-11.2-4.4-11.3c-0.1-0.2-0.2-0.4-0.4-0.4
		c-0.2-0.1-0.3-0.1-0.4-0.2c-0.1,0-0.4,0-0.9-0.1h-0.7v-1.4h0.2c0.2,0.1,1.2,0.1,3,0.1c2,0,3.1,0,3.4-0.1h0.2v1.4h-0.4
		c-0.8,0-1.2,0.2-1.3,0.5c0,0.1,0.5,1.5,1.6,4.2l1.6,4.1c0.6-1.6,1.6-4.1,2.8-7.4v-0.2c0-0.3-0.1-0.6-0.4-0.8
		c-0.3-0.2-0.6-0.3-0.9-0.3H144v-1.4H144.3z"/>
	<path d="M154.9,319.1c-0.3,0.3-0.7,0.5-1.2,0.5c-0.5,0-0.9-0.2-1.2-0.5c-0.3-0.3-0.5-0.7-0.5-1.2c0-0.3,0.1-0.6,0.2-1
		c0.3-0.6,0.8-1,1.6-1.3c0.8-0.3,1.8-0.5,2.9-0.5c1.4,0,2.5,0.3,3.5,0.9c1,0.6,1.7,1.4,2,2.4c0.1,0.3,0.2,0.6,0.2,1
		c0,0.4,0,1.5,0,3.5c0,2,0,3.2,0,3.5c0,0.3,0.1,0.6,0.2,0.8c0.1,0.3,0.3,0.4,0.6,0.4c0.3,0,0.5-0.1,0.6-0.4c0.1-0.2,0.2-0.8,0.2-1.7
		v-1.1h1.2v1.2c0,0.8-0.1,1.3-0.1,1.5c-0.2,0.6-0.5,1.1-1,1.4c-0.5,0.4-1.1,0.6-1.8,0.6c-0.5,0-1-0.2-1.4-0.5
		c-0.4-0.4-0.7-0.8-0.8-1.3v-0.1c-0.1,0.1-0.2,0.2-0.4,0.4c-0.2,0.2-0.3,0.4-0.4,0.4c-1,0.8-2.2,1.3-3.5,1.3c-1.1,0-2-0.2-2.9-0.7
		c-0.8-0.5-1.4-1.1-1.7-1.8c-0.2-0.4-0.2-0.8-0.2-1.2c0-1,0.4-1.9,1.2-2.7c0.5-0.5,1.1-0.9,1.8-1.2c1.4-0.6,3.2-1,5.4-1.1h0.4V320
		c0-0.7-0.1-1.2-0.2-1.5c-0.2-0.7-0.6-1.2-1.1-1.6c-0.5-0.4-1.2-0.6-1.9-0.6c-1.4,0-2.1,0.1-2.1,0.2c0.5,0.3,0.7,0.8,0.7,1.4
		C155.4,318.4,155.2,318.7,154.9,319.1z M160,323.6c0-1.2,0-1.8,0-1.8c-0.1,0-0.1,0-0.2,0c-2.8,0.2-4.6,1-5.4,2.5
		c-0.2,0.4-0.3,0.9-0.3,1.4c0,0.7,0.2,1.3,0.7,1.8c0.5,0.5,1.1,0.7,1.8,0.7c0.8,0,1.5-0.2,2.1-0.7c0.6-0.5,1-1.1,1.2-1.8
		C159.9,325.5,160,324.8,160,323.6z"/>
	<path d="M166.7,327.6h0.4c0.8,0,1.3-0.1,1.5-0.4v-0.2c0-0.2,0-0.4,0-0.7c0-0.3,0-0.6,0-1c0-0.4,0-0.8,0-1.2c0-0.4,0-0.9,0-1.3
		c0-0.6,0-1.3,0-2.1c0-0.7,0-1.3,0-1.8l0-0.7c-0.1-0.4-0.2-0.7-0.4-0.8c-0.2-0.1-0.7-0.2-1.4-0.3h-0.6v-0.7c0-0.5,0-0.7,0.1-0.7
		l0.3,0c0.2,0,0.5,0,0.9-0.1c0.4,0,0.7,0,1.1-0.1c0.3,0,0.7,0,1.1-0.1c0.4,0,0.7-0.1,0.9-0.1c0.2,0,0.3,0,0.3,0h0.1v2.1
		c0.4-0.7,0.8-1.2,1.3-1.5c0.5-0.4,1.1-0.6,1.9-0.6c0.6,0,1.1,0.1,1.5,0.3c0.8,0.4,1.2,1,1.2,1.8c0,0.5-0.2,0.8-0.5,1.1
		c-0.3,0.3-0.7,0.4-1.1,0.4s-0.8-0.1-1.1-0.4c-0.3-0.3-0.4-0.7-0.4-1.1c0-0.4,0.1-0.6,0.2-0.9c0-0.1,0.1-0.1,0.1-0.2
		c0,0-0.3,0-0.7,0.1c-0.3,0.2-0.6,0.3-0.7,0.5c-0.8,0.8-1.3,2.1-1.4,3.9v1.2c0,0.8,0,1.5,0,2.1c0,0.3,0,0.6,0,0.9c0,0.3,0,0.6,0,0.8
		c0,0.2,0,0.4,0,0.6s0,0.3,0,0.5v0.2c0.1,0.2,0.2,0.3,0.4,0.3c0.2,0.1,0.8,0.1,1.6,0.2h1v1.4h-0.3c-0.4-0.1-1.7-0.1-3.9-0.1
		c-2,0-3.2,0-3.5,0.1h-0.2v-1.4H166.7z"/>
	<path d="M185.4,329c-0.2-0.1-1.3-0.1-3.2-0.1c-1.9,0-3,0-3.4,0.1h-0.2v-1.4h0.5c0.6,0,1.1,0,1.5-0.1c0.2-0.1,0.3-0.2,0.4-0.3
		c0,0,0-1.5,0-4.5c0-3.1,0-4.7-0.1-5c-0.2-0.4-0.8-0.6-1.8-0.6h-0.3v-0.7c0-0.5,0-0.7,0.1-0.7l0.3,0c0.2,0,0.5,0,0.9-0.1
		c0.4,0,0.7,0,1.1-0.1c0.4,0,0.7,0,1.1-0.1c0.4,0,0.7-0.1,0.9-0.1c0.2,0,0.3,0,0.3,0h0.1v11.8c0.1,0.2,0.2,0.3,0.4,0.4
		c0.1,0.1,0.5,0.1,1.1,0.1h0.7v1.4H185.4z M181.8,308.3c0.5,0,0.9,0.2,1.3,0.5c0.3,0.3,0.5,0.8,0.5,1.3c0,0.7-0.3,1.3-0.8,1.6
		c-0.3,0.2-0.6,0.3-1,0.3c-0.4,0-0.8-0.1-1-0.3c-0.6-0.3-0.8-0.8-0.8-1.6c0-0.6,0.2-1,0.5-1.4C180.8,308.5,181.2,308.3,181.8,308.3z
		"/>
	<path d="M191.1,319.1c-0.3,0.3-0.7,0.5-1.2,0.5c-0.5,0-0.9-0.2-1.2-0.5c-0.3-0.3-0.5-0.7-0.5-1.2c0-0.3,0.1-0.6,0.2-1
		c0.3-0.6,0.8-1,1.6-1.3c0.8-0.3,1.8-0.5,2.9-0.5c1.4,0,2.5,0.3,3.5,0.9c1,0.6,1.7,1.4,2,2.4c0.1,0.3,0.2,0.6,0.2,1
		c0,0.4,0,1.5,0,3.5c0,2,0,3.2,0,3.5c0,0.3,0.1,0.6,0.2,0.8c0.1,0.3,0.3,0.4,0.6,0.4c0.3,0,0.5-0.1,0.6-0.4c0.1-0.2,0.2-0.8,0.2-1.7
		v-1.1h1.2v1.2c0,0.8-0.1,1.3-0.1,1.5c-0.2,0.6-0.5,1.1-1,1.4c-0.5,0.4-1.1,0.6-1.8,0.6c-0.5,0-1-0.2-1.4-0.5
		c-0.4-0.4-0.7-0.8-0.8-1.3v-0.1c-0.1,0.1-0.2,0.2-0.4,0.4c-0.2,0.2-0.3,0.4-0.4,0.4c-1,0.8-2.2,1.3-3.5,1.3c-1.1,0-2-0.2-2.9-0.7
		c-0.8-0.5-1.4-1.1-1.7-1.8c-0.2-0.4-0.2-0.8-0.2-1.2c0-1,0.4-1.9,1.2-2.7c0.5-0.5,1.1-0.9,1.8-1.2c1.4-0.6,3.2-1,5.4-1.1h0.4V320
		c0-0.7-0.1-1.2-0.2-1.5c-0.2-0.7-0.6-1.2-1.1-1.6c-0.5-0.4-1.2-0.6-1.9-0.6c-1.4,0-2.1,0.1-2.1,0.2c0.5,0.3,0.7,0.8,0.7,1.4
		C191.6,318.4,191.4,318.7,191.1,319.1z M196.2,323.6c0-1.2,0-1.8,0-1.8c-0.1,0-0.1,0-0.2,0c-2.8,0.2-4.6,1-5.4,2.5
		c-0.2,0.4-0.3,0.9-0.3,1.4c0,0.7,0.2,1.3,0.7,1.8c0.5,0.5,1.1,0.7,1.8,0.7c0.8,0,1.5-0.2,2.1-0.7c0.6-0.5,1-1.1,1.2-1.8
		C196.1,325.5,196.2,324.8,196.2,323.6z"/>
	<path d="M204.8,307.7c0.4,0,0.7,0,1.1-0.1c0.4,0,0.7-0.1,0.9-0.1c0.2,0,0.3,0,0.3,0h0.1v4.7c0,3.1,0,4.7,0,4.7
		c0.1,0,0.1-0.1,0.2-0.2c1.1-0.9,2.5-1.4,4.2-1.4c0.4,0,0.7,0,1,0.1c1.5,0.3,2.7,1.1,3.7,2.3c1,1.2,1.5,2.8,1.5,4.6
		c0,0.4,0,0.8-0.1,1.1c-0.3,1.7-1,3.1-2.2,4.2c-1.2,1.1-2.7,1.7-4.4,1.7c-1.6,0-2.9-0.6-4.1-1.8l-0.2-0.2l-0.3,0.6
		c0,0.1-0.1,0.2-0.2,0.3s-0.1,0.2-0.2,0.3c-0.1,0.1-0.1,0.2-0.1,0.2l-0.2,0.3l-0.6,0h-0.6v-9.2c0-6.2,0-9.4,0-9.4
		c-0.1-0.4-0.2-0.7-0.4-0.8c-0.2-0.1-0.7-0.2-1.4-0.3h-0.6v-0.7c0-0.5,0-0.7,0.1-0.7l0.3,0c0.2,0,0.5,0,0.9-0.1
		C204.1,307.8,204.5,307.7,204.8,307.7z M212,316.6c-0.5-0.1-0.8-0.1-1-0.1c-1.4,0-2.6,0.6-3.5,1.8l-0.2,0.2v7.5l0.2,0.2
		c0.6,1,1.4,1.6,2.4,1.9c0.3,0.1,0.6,0.1,1,0.1c1.3,0,2.4-0.6,3.1-1.7c0.2-0.2,0.3-0.6,0.5-1c0.2-0.7,0.4-1.7,0.4-3.1
		c0-1.5-0.1-2.7-0.4-3.4C214.1,317.7,213.3,316.9,212,316.6z"/>
	<path d="M220.3,327.6h0.4c0.8,0,1.3-0.1,1.5-0.4v-0.2c0-0.2,0-0.4,0-0.7c0-0.3,0-0.6,0-1c0-0.4,0-0.8,0-1.3c0-0.5,0-1,0-1.5
		s0-1.1,0-1.7c0-0.6,0-1.2,0-1.7c0-0.8,0-1.6,0-2.4s0-1.6,0-2.3s0-1.3,0-1.9c0-0.6,0-1,0-1.3c0-0.3,0-0.5,0-0.5
		c-0.1-0.4-0.2-0.7-0.4-0.8c-0.2-0.1-0.7-0.2-1.4-0.3h-0.6v-0.7c0-0.5,0-0.7,0.1-0.7l0.3,0c0.2,0,0.5,0,0.9-0.1c0.4,0,0.8,0,1.1-0.1
		c0.4,0,0.7,0,1.1-0.1c0.4,0,0.7-0.1,0.9-0.1c0.2,0,0.3,0,0.3,0h0.1v9.7c0,6.5,0,9.8,0,9.9c0.1,0.2,0.2,0.3,0.4,0.3
		c0.4,0.1,0.9,0.1,1.5,0.1h0.5v1.4h-0.2c-0.4-0.1-1.5-0.1-3.4-0.1c-2,0-3.2,0-3.4,0.1h-0.2v-1.4H220.3z"/>
	<path d="M240.4,321.4c0,0.1-0.1,0.3-0.2,0.4h-8.7v0.5c0,1.5,0.2,2.7,0.6,3.5c0.7,1.5,2,2.3,3.8,2.3c0.9,0,1.6-0.3,2.2-1
		c0.4-0.4,0.7-0.9,1-1.6c0.1-0.2,0.1-0.4,0.2-0.4c0.1-0.1,0.2-0.1,0.5-0.1c0.4,0,0.6,0.1,0.6,0.3c0,0.1,0,0.2-0.1,0.4
		c-0.4,1.1-1,2-1.9,2.6c-0.9,0.7-1.9,1-3.1,1c-0.4,0-0.8-0.1-1.4-0.2c-1.2-0.2-2.2-0.8-3.2-1.6c-0.9-0.8-1.6-1.9-2-3.1
		c-0.2-0.7-0.4-1.5-0.4-2.3c0-1.9,0.6-3.5,1.7-4.8c1.1-1.3,2.5-2.1,4.1-2.3c0.1,0,0.2,0,0.4,0c1.9,0,3.3,0.6,4.3,1.7
		C240,317.9,240.4,319.4,240.4,321.4z M237.9,320.5c-0.2-2.2-0.9-3.6-2.3-4.1c-0.1-0.1-0.4-0.1-0.6-0.1c-1.1,0-1.9,0.5-2.6,1.5
		c-0.4,0.7-0.7,1.6-0.8,2.8v0.2h6.4V320.5z"/>
	<path d="M254.9,327.2c0.2,0.3,0.6,0.4,1.5,0.4h0.4h0.5v1.4H257c-0.3-0.1-1.4-0.1-3.5-0.1s-3.2,0-3.5,0.1h-0.2v-1.4h0.5h0.4
		c0.8,0,1.3-0.1,1.5-0.4v-0.2c0-0.2,0-0.4,0-0.7c0-0.3,0-0.6,0-1c0-0.4,0-0.8,0-1.2c0-0.4,0-0.9,0-1.3c0-0.6,0-1.3,0-2.1
		c0-0.7,0-1.3,0-1.8v-0.7c-0.1-0.4-0.2-0.7-0.4-0.8c-0.2-0.1-0.7-0.2-1.4-0.3h-0.6v-0.7c0-0.5,0-0.7,0.1-0.7l0.3,0
		c0.2,0,0.5,0,0.9-0.1c0.4,0,0.8,0,1.1-0.1c0.4,0,0.7,0,1.1-0.1c0.4,0,0.7-0.1,0.9-0.1c0.2,0,0.3,0,0.3,0h0.1v1.2c0,0.8,0,1.2,0,1.2
		l0,0c1.1-1.6,2.7-2.4,4.7-2.4c2.4,0.1,3.7,1.2,3.9,3.5c0,0.1,0,1.6,0,4.3c0,2.6,0,4,0,4c0.1,0.2,0.2,0.3,0.4,0.3
		c0.4,0.1,0.9,0.1,1.5,0.1h0.5v1.4h-0.2c-0.3-0.1-1.4-0.1-3.5-0.1s-3.2,0-3.5,0.1h-0.2v-1.4h0.5h0.2c1.1,0,1.6-0.2,1.6-0.5
		c0,0,0-1.5,0-4.3c0-2.8,0-4.3-0.1-4.4c-0.1-0.7-0.4-1.1-0.7-1.4c-0.3-0.3-0.8-0.4-1.5-0.4c-0.9,0-1.7,0.4-2.4,1.1
		c-0.7,0.7-1.1,1.6-1.3,2.7c0,0,0,0.2,0,0.6s0,0.8,0,1.4c0,0.6,0,1.1,0,1.6c0,0.3,0,0.6,0,1s0,0.6,0,0.9c0,0.3,0,0.5,0,0.7
		c0,0.2,0,0.4,0,0.5V327.2z"/>
	<path d="M267.1,322.4c0-1.9,0.6-3.5,1.8-4.8c1.2-1.4,2.6-2.1,4.3-2.3c0.3,0,0.6-0.1,0.8-0.1c1.8,0,3.4,0.7,4.7,2
		c1.4,1.4,2.2,3.2,2.2,5.2c0,0.4-0.1,0.9-0.2,1.5c-0.2,1.3-0.8,2.4-1.7,3.4c-0.9,1-2,1.6-3.3,1.9c-0.5,0.1-1,0.2-1.6,0.2
		c-0.6,0-1.2-0.1-1.6-0.2c-1.5-0.4-2.8-1.2-3.8-2.5C267.6,325.4,267.1,324,267.1,322.4z M274.6,316.3c-0.1,0-0.3,0-0.5,0
		c-0.6,0-1.2,0.1-1.8,0.4c-1.2,0.6-1.8,1.7-2.1,3.4c0,0.4-0.1,1-0.1,2c0,2,0.2,3.4,0.6,4.2c0.7,1.3,1.7,1.9,3.2,1.9
		c2.5,0,3.8-1.7,3.8-5v-1c0-1.3-0.1-2.2-0.2-2.7C277.3,317.7,276.3,316.7,274.6,316.3z"/>
	<path d="M289.3,315.3c1.5,0,2.9,0.5,4.1,1.5v-3.2c0-2.1,0-3.3,0-3.3c-0.1-0.4-0.2-0.7-0.4-0.8c-0.2-0.1-0.7-0.2-1.4-0.3H291v-0.7
		c0-0.5,0-0.7,0.1-0.7l0.3,0c0.2,0,0.5,0,0.9-0.1c0.4,0,0.8,0,1.1-0.1c0.4,0,0.7,0,1.1-0.1c0.4,0,0.7-0.1,0.9-0.1c0.2,0,0.3,0,0.3,0
		h0.1v9.4c0,6.3,0,9.5,0,9.6c0.1,0.4,0.2,0.7,0.4,0.8c0.2,0.1,0.7,0.2,1.4,0.3h0.6v1.4c0,0-0.8,0.1-2.4,0.2
		c-1.5,0.1-2.3,0.2-2.4,0.2h-0.2v-1.7l-0.2,0.2c-1.2,1-2.5,1.5-4,1.5c-1.4,0-2.7-0.5-3.8-1.5c-1.3-1.1-2.1-2.6-2.4-4.5
		c0-0.2,0-0.5,0-1.1c0-2,0.6-3.7,1.9-5C286,316,287.5,315.3,289.3,315.3z M293.3,318.4c-0.9-1.3-2.1-1.9-3.5-1.9
		c-1,0-1.9,0.4-2.7,1.1c-0.5,0.5-0.9,1.2-1,1.9c-0.2,0.7-0.3,1.7-0.3,3c0,2.3,0.4,3.9,1.3,4.7c0.6,0.7,1.4,1,2.4,1
		c0.7,0,1.4-0.2,2.1-0.6c0.7-0.4,1.2-0.9,1.6-1.6l0.1-0.2V318.4z"/>
	<path d="M311.8,321.4c0,0.1-0.1,0.3-0.2,0.4h-8.7v0.5c0,1.5,0.2,2.7,0.6,3.5c0.7,1.5,2,2.3,3.8,2.3c0.9,0,1.6-0.3,2.2-1
		c0.4-0.4,0.7-0.9,1-1.6c0.1-0.2,0.1-0.4,0.2-0.4s0.2-0.1,0.5-0.1c0.4,0,0.6,0.1,0.6,0.3c0,0.1,0,0.2-0.1,0.4c-0.4,1.1-1,2-1.9,2.6
		c-0.9,0.7-1.9,1-3.1,1c-0.4,0-0.8-0.1-1.4-0.2c-1.2-0.2-2.2-0.8-3.2-1.6c-0.9-0.8-1.6-1.9-2-3.1c-0.2-0.7-0.4-1.5-0.4-2.3
		c0-1.9,0.6-3.5,1.7-4.8c1.1-1.3,2.5-2.1,4.1-2.3c0.1,0,0.2,0,0.4,0c1.9,0,3.3,0.6,4.3,1.7C311.3,317.9,311.8,319.4,311.8,321.4z
		 M309.3,320.5c-0.2-2.2-0.9-3.6-2.3-4.1c-0.1-0.1-0.4-0.1-0.6-0.1c-1.1,0-1.9,0.5-2.6,1.5c-0.4,0.7-0.7,1.6-0.8,2.8v0.2h6.4V320.5z
		"/>
</g>
<rect x="134" y="371.8" fill="none" width="193" height="47.6"/>
<g enable-background="new    ">
	<path d="M146.6,385.5c0,0.1-0.1,0.3-0.2,0.4h-8.7v0.5c0,1.5,0.2,2.7,0.6,3.5c0.7,1.5,2,2.3,3.8,2.3c0.9,0,1.6-0.3,2.2-1
		c0.4-0.4,0.7-0.9,1-1.6c0.1-0.2,0.1-0.4,0.2-0.4c0.1-0.1,0.2-0.1,0.5-0.1c0.4,0,0.6,0.1,0.6,0.3c0,0.1,0,0.2-0.1,0.4
		c-0.4,1.1-1,2-1.9,2.6c-0.9,0.7-1.9,1-3.1,1c-0.4,0-0.8-0.1-1.4-0.2c-1.2-0.2-2.2-0.8-3.2-1.6c-0.9-0.8-1.6-1.9-2-3.1
		c-0.2-0.7-0.4-1.5-0.4-2.3c0-1.9,0.6-3.5,1.7-4.8c1.1-1.3,2.5-2.1,4.1-2.3c0.1,0,0.2,0,0.4,0c1.9,0,3.3,0.6,4.3,1.7
		C146.2,382,146.6,383.6,146.6,385.5z M144.1,384.6c-0.2-2.2-0.9-3.6-2.3-4.1c-0.1-0.1-0.4-0.1-0.6-0.1c-1.1,0-1.9,0.5-2.6,1.5
		c-0.4,0.7-0.7,1.6-0.8,2.8v0.2h6.4V384.6z"/>
	<path d="M155.1,379.4c1.5,0,2.9,0.5,4.1,1.5v-3.2c0-2.1,0-3.3,0-3.3c-0.1-0.4-0.2-0.7-0.4-0.8c-0.2-0.1-0.7-0.2-1.4-0.3h-0.6v-0.7
		c0-0.5,0-0.7,0.1-0.7l0.3,0c0.2,0,0.5,0,0.9-0.1c0.4,0,0.8,0,1.1-0.1c0.4,0,0.7,0,1.1-0.1c0.4,0,0.7-0.1,0.9-0.1c0.2,0,0.3,0,0.3,0
		h0.1v9.4c0,6.3,0,9.5,0,9.6c0.1,0.4,0.2,0.7,0.4,0.8c0.2,0.1,0.7,0.2,1.4,0.3h0.6v1.4c0,0-0.8,0.1-2.4,0.2
		c-1.5,0.1-2.3,0.2-2.4,0.2h-0.2v-1.7l-0.2,0.2c-1.2,1-2.5,1.5-4,1.5c-1.4,0-2.7-0.5-3.8-1.5c-1.3-1.1-2.1-2.6-2.4-4.5
		c0-0.2,0-0.5,0-1.1c0-2,0.6-3.7,1.9-5C151.8,380.1,153.3,379.4,155.1,379.4z M159.1,382.5c-0.9-1.3-2.1-1.9-3.5-1.9
		c-1,0-1.9,0.4-2.7,1.1c-0.5,0.5-0.9,1.2-1,1.9c-0.2,0.7-0.3,1.7-0.3,3c0,2.3,0.4,3.9,1.3,4.7c0.6,0.7,1.4,1,2.4,1
		c0.7,0,1.4-0.2,2.1-0.6c0.7-0.4,1.2-0.9,1.6-1.6l0.1-0.2V382.5z"/>
	<path d="M174.9,380.5c0.9-0.9,1.9-1.4,3.1-1.4c0.5,0,0.9,0.2,1.2,0.5c0.3,0.3,0.5,0.8,0.5,1.3c0,0.3-0.1,0.6-0.3,0.8
		c-0.2,0.2-0.5,0.3-0.8,0.3c-0.7,0-1-0.3-1.1-0.9c0-0.3,0-0.5,0.1-0.6c0,0,0-0.1,0-0.1v0c-0.1,0-0.2,0-0.3,0.1
		c-0.5,0.1-0.9,0.3-1.4,0.6c-0.2,0.1-0.2,0.2-0.2,0.2c0,0,0.1,0.1,0.1,0.2c0.7,0.8,1,1.8,1,2.8c0,0.8-0.3,1.7-0.8,2.5
		c-1,1.4-2.4,2.1-4.4,2.1c-1,0-2-0.3-3.1-0.9c-0.2,0.4-0.3,0.8-0.3,1.2c0,0.7,0.3,1.3,0.8,1.6c0.2,0.1,0.4,0.2,0.5,0.2
		c0.2,0,0.9,0,2.2,0c1.7,0,2.8,0.1,3.3,0.2c1.3,0.2,2.2,0.6,3,1.3c0.8,0.8,1.2,1.8,1.2,3c0,0.4,0,0.6-0.1,0.7
		c-0.3,1-1.1,1.8-2.4,2.4c-1.2,0.6-2.7,1-4.4,1c-1.7,0-3.2-0.3-4.4-1c-1.3-0.6-2.1-1.4-2.4-2.4c0-0.1-0.1-0.3-0.1-0.7
		c0-0.8,0.3-1.6,1-2.2c0.3-0.3,0.6-0.5,1-0.7l0.3-0.2c-0.7-0.6-1.1-1.5-1.1-2.6c0-0.9,0.3-1.8,0.9-2.6c-0.9-0.9-1.4-1.9-1.4-3.1
		c0-0.9,0.3-1.7,0.8-2.5c0.4-0.6,1-1.2,1.8-1.5c0.8-0.4,1.7-0.6,2.6-0.6c1.1,0,2,0.3,2.9,0.8L174.9,380.5z M176.3,393.8
		c-0.5-0.3-1-0.5-1.5-0.6c-0.6-0.1-1.4-0.1-2.4-0.1h-0.9c-1.4,0-2.2,0.1-2.5,0.2c-0.4,0.2-0.7,0.5-1,0.9c-0.2,0.4-0.4,0.8-0.4,1.2
		c0,0.2,0,0.4,0.1,0.6c0.2,0.5,0.5,0.9,1.1,1.3c0.6,0.4,1.2,0.7,2,0.8c0.4,0.1,0.9,0.1,1.6,0.1c0.7,0,1.2,0,1.5-0.1
		c0.8-0.2,1.4-0.4,2-0.9s1-0.8,1.1-1.3c0-0.1,0.1-0.3,0.1-0.6C177.2,394.7,176.9,394.2,176.3,393.8z M169.1,384.1
		c0,1.1,0.2,2,0.5,2.5c0.4,0.6,1,0.9,1.9,0.9c0.7,0,1.2-0.2,1.6-0.5c0.4-0.3,0.7-0.8,0.8-1.3c0.1-0.3,0.1-0.8,0.1-1.5s0-1.2-0.1-1.6
		c-0.2-1.3-1.1-1.9-2.4-1.9c-0.6,0-1.1,0.2-1.5,0.5s-0.7,0.8-0.8,1.4C169.2,382.9,169.1,383.4,169.1,384.1z"/>
	<path d="M193.1,385.5c0,0.1-0.1,0.3-0.2,0.4h-8.7v0.5c0,1.5,0.2,2.7,0.6,3.5c0.7,1.5,2,2.3,3.8,2.3c0.9,0,1.6-0.3,2.2-1
		c0.4-0.4,0.7-0.9,1-1.6c0.1-0.2,0.1-0.4,0.2-0.4c0.1-0.1,0.2-0.1,0.5-0.1c0.4,0,0.6,0.1,0.6,0.3c0,0.1,0,0.2-0.1,0.4
		c-0.4,1.1-1,2-1.9,2.6c-0.9,0.7-1.9,1-3.1,1c-0.4,0-0.8-0.1-1.4-0.2c-1.2-0.2-2.2-0.8-3.2-1.6c-0.9-0.8-1.6-1.9-2-3.1
		c-0.2-0.7-0.4-1.5-0.4-2.3c0-1.9,0.6-3.5,1.7-4.8c1.1-1.3,2.5-2.1,4.1-2.3c0.1,0,0.2,0,0.4,0c1.9,0,3.3,0.6,4.3,1.7
		C192.6,382,193.1,383.6,193.1,385.5z M190.5,384.6c-0.2-2.2-0.9-3.6-2.3-4.1c-0.1-0.1-0.4-0.1-0.6-0.1c-1.1,0-1.9,0.5-2.6,1.5
		c-0.4,0.7-0.7,1.6-0.8,2.8v0.2h6.4V384.6z"/>
</g>
<g id="g4192_1_">
	<path id="path4194_1_" fill="#231F20" stroke="#231F20" stroke-miterlimit="10" d="M80.6,246.1h17.8v17.8H80.6V246.1z"/>
</g>
<g id="g4216_1_">
	<path id="path4218_1_" fill="#FFFFFF" stroke="#231F20" stroke-width="0.5" stroke-miterlimit="10" d="M73.7,336.3
		c-8.9-8.9-8.9-23.2,0-32.1s23.2-8.9,32.1,0s8.9,23.2,0,32.1C96.5,344.8,82.2,344.8,73.7,336.3"/>
</g>
<g enable-background="new    ">
	<path d="M349.1,268.5c0,0.2-0.2,0.3-0.6,0.3h-0.4c-0.1-0.1-0.4-0.4-0.9-0.7c-3.7-3.4-5.6-8.3-5.6-14.7c0-2.5,0.3-4.8,0.9-6.9
		c0.9-3.2,2.5-5.8,4.7-7.8c0.1-0.1,0.3-0.3,0.5-0.4s0.3-0.3,0.4-0.3h0.4c0.2,0,0.4,0,0.5,0.1c0.1,0.1,0.1,0.1,0.1,0.2
		c0,0.1-0.1,0.2-0.3,0.5c-3.2,3.4-4.8,8.3-4.8,14.7s1.6,11.3,4.8,14.7C349,268.3,349.1,268.4,349.1,268.5z"/>
	<path d="M367.1,261.1c-0.4-0.1-2.1-0.1-5.1-0.1c-3,0-4.7,0-5.1,0.1h-0.4v-1.4h0.8c0.8,0,1.3,0,1.5,0c0.6,0,0.9-0.1,1.1-0.1
		c0.1-0.1,0.3-0.2,0.6-0.3v-2.8h-0.1c0,0-0.2-0.1-0.5-0.1c-1.5-0.2-2.9-0.6-4.1-1.3c-1.8-1-2.8-2.2-3.2-3.8c0-0.1,0-0.4,0-0.8
		c0-0.4,0-0.6,0-0.7c0.4-1.5,1.4-2.8,3.2-3.8c1.3-0.7,2.7-1.1,4.1-1.3c0.3,0,0.5-0.1,0.5-0.1h0.1v-2.8c-0.1-0.1-0.2-0.2-0.3-0.2
		c-0.1,0-0.1-0.1-0.3-0.1c-0.1,0-0.3-0.1-0.4-0.1c-0.2,0-0.4,0-0.7,0c-0.2,0-0.7,0-1.5,0h-0.8v-1.4h0.4c0.4,0.1,2.1,0.1,5.1,0.1
		c3,0,4.7,0,5.1-0.1h0.4v1.4h-0.8c-0.8,0-1.3,0-1.5,0c-0.6,0-0.9,0.1-1.1,0.1c-0.2,0.1-0.3,0.2-0.5,0.3v2.8l0.4,0.1
		c1.6,0.2,3,0.7,4.3,1.4c1.3,0.7,2.2,1.6,2.7,2.6c0.3,0.6,0.5,1.2,0.5,1.9c0,0.7-0.2,1.3-0.5,1.9c-0.5,1-1.4,1.9-2.7,2.6
		c-1.3,0.7-2.7,1.2-4.3,1.4l-0.4,0.1v2.8c0.2,0.2,0.3,0.3,0.5,0.3c0.2,0.1,0.5,0.1,1.1,0.1c0.2,0,0.7,0,1.5,0h0.8v1.4H367.1z
		 M356.1,250.5c0,1.4,0.4,2.5,1.1,3.3c0.7,0.8,1.8,1.2,3.2,1.5h0.2v-9.5h-0.1c-0.2,0-0.5,0.1-0.9,0.2c-1.2,0.3-2,0.8-2.6,1.5
		C356.3,248.2,356.1,249.2,356.1,250.5z M363.6,255.2c1.4-0.2,2.5-0.7,3.2-1.5c0.7-0.7,1-1.8,1-3.3c0-1.4-0.3-2.4-0.9-3.2
		c-0.6-0.7-1.6-1.2-2.8-1.5c-0.3,0-0.4-0.1-0.5-0.1h-0.2v9.5H363.6z"/>
</g>
<g id="g4274_1_">
	<path id="path4276_1_" fill="#231F20" stroke="#231F20" stroke-miterlimit="10" d="M67.1,385.4h45.2"/>
</g>
<g enable-background="new    ">
	<path d="M365.4,270.2c-0.1-0.1-0.1-0.2-0.1-0.2c0-0.1,0-0.2,0.1-0.3c0-0.2,0.1-0.3,0.1-0.3l0.1-0.1h0.3c0.9,0,1.6-0.4,2-1
		c0.1-0.1,1.2-2,3.5-5.9s3.4-5.8,3.4-5.8c0.1-0.1,0.1-0.2,0.2-0.2c0.1,0,0.2,0,0.4,0h0.3c0.1,0.1,0.1,0.2,0.1,0.2l0.5,6.2
		c0.4,4.2,0.6,6.3,0.6,6.3c0.1,0.1,0.5,0.2,1.3,0.2c0.1,0,0.2,0,0.3,0c0.1,0,0.1,0,0.1,0c0,0,0,0.1,0,0.1c0,0,0,0.1-0.1,0.3
		c0,0.2-0.1,0.3-0.1,0.4c0,0-0.1,0.1-0.3,0.1c-0.2,0-0.6,0-1.2,0c-0.5,0-1,0-1.3,0c-1.2,0-2,0-2.4,0h-0.2c-0.1-0.1-0.1-0.1-0.1-0.2
		c0,0,0-0.2,0-0.4c0.1-0.2,0.1-0.3,0.1-0.3l0.1-0.1h0.4c0.7,0,1.1-0.1,1.2-0.3l-0.2-2.9H370l-0.7,1.1c-0.5,0.8-0.7,1.2-0.7,1.3
		c-0.1,0.1-0.1,0.2-0.1,0.3c0,0.3,0.3,0.5,0.9,0.6c0.2,0,0.4,0.1,0.4,0.2c0,0.1,0,0.2-0.1,0.3c0,0.2-0.1,0.3-0.1,0.3
		c0,0.1-0.1,0.1-0.3,0.1c-0.2,0-0.6,0-1,0c-0.5,0-0.8,0-1.1,0c-0.9,0-1.5,0-1.8,0H365.4z M374.5,265.2c0-0.1-0.1-1.1-0.2-3
		c-0.2-1.9-0.2-2.8-0.3-2.8l-0.5,0.8c-0.2,0.3-0.6,1-1.2,2.1l-1.7,2.9l2,0C373.9,265.2,374.5,265.2,374.5,265.2z"/>
</g>
<g enable-background="new    ">
</g>
<g enable-background="new    ">
	<path d="M411.5,261c-0.6,0-1.3,0-2.2,0c-0.9,0-1.6,0-2,0c-0.2,0-0.4-0.1-0.5-0.2c0-0.1-0.1-0.1-0.1-0.2c0,0,0-0.2,0.1-0.4
		c0.1-0.3,0.2-0.5,0.2-0.6c0.1-0.1,0.3-0.1,0.7-0.1c0.6,0,1.2,0,1.9-0.1c0.3-0.1,0.5-0.2,0.6-0.4c0-0.1,0.8-3,2.2-8.7
		c1.4-5.7,2.2-8.6,2.2-8.7c0-0.1,0-0.2-0.1-0.2c-0.2-0.1-0.7-0.1-1.6-0.2h-1c-0.1-0.1-0.2-0.2-0.2-0.3c0-0.1,0-0.2,0.1-0.5
		c0.1-0.4,0.2-0.6,0.3-0.6h16.7c0.1,0.1,0.2,0.3,0.2,0.3c0,0.1-0.1,1.3-0.4,3.5c-0.3,2.2-0.4,3.3-0.4,3.4c0,0.1-0.2,0.2-0.6,0.2
		h-0.4c-0.1-0.1-0.2-0.2-0.2-0.3c0,0,0-0.1,0-0.1c0-0.1,0-0.1,0-0.2c0-0.1,0-0.2,0-0.3c0.1-0.6,0.1-1.2,0.1-1.8
		c0-1.5-0.5-2.4-1.4-2.8c-0.4-0.2-0.9-0.3-1.5-0.3c-0.6,0-1.8-0.1-3.5-0.1c-1.6,0-2.5,0-2.6,0.1c-0.2,0.1-0.3,0.2-0.3,0.3
		c0,0-0.4,1.4-1.1,4.1l-1,4h1.7c1.2,0,1.9,0,2-0.1c0.7-0.1,1.2-0.3,1.5-0.6c0.4-0.4,0.8-1.1,1.1-2.2c0-0.1,0-0.1,0.1-0.2
		c0-0.1,0-0.1,0-0.2s0-0.1,0-0.1s0-0.1,0.1-0.1c0,0,0.1,0,0.1,0c0.1,0,0.1,0,0.2,0c0.1,0,0.1,0,0.2,0h0.4c0.1,0.1,0.2,0.2,0.2,0.3
		c0,0.1-0.3,1.4-1,4.1c-0.7,2.6-1,4-1,4.1c0,0.1-0.2,0.2-0.6,0.2h-0.4c-0.1-0.1-0.2-0.2-0.2-0.3c0-0.1,0-0.3,0.1-0.5
		c0.1-0.6,0.2-1.1,0.2-1.5c0-0.6-0.3-1-0.8-1.1c-0.4-0.1-1.2-0.2-2.6-0.2h-1.7l-1,3.9c-0.7,2.6-1,3.9-1,4c0,0.1,0.1,0.2,0.2,0.2
		c0.2,0.1,1.1,0.2,2.6,0.2h0.8c0.1,0.1,0.2,0.2,0.2,0.3c0,0.1,0,0.2-0.1,0.6c-0.1,0.3-0.2,0.5-0.3,0.6h-0.5
		C415.3,261,413.8,261,411.5,261z"/>
</g>
<g enable-background="new    ">
	<path d="M349.1,338.7c0,0.2-0.2,0.3-0.6,0.3h-0.4c-0.1-0.1-0.4-0.4-0.9-0.7c-3.7-3.4-5.6-8.3-5.6-14.7c0-2.5,0.3-4.8,0.9-6.9
		c0.9-3.2,2.5-5.8,4.7-7.8c0.1-0.1,0.3-0.3,0.5-0.4s0.3-0.3,0.4-0.3h0.4c0.2,0,0.4,0,0.5,0.1c0.1,0.1,0.1,0.1,0.1,0.2
		c0,0.1-0.1,0.2-0.3,0.5c-3.2,3.4-4.8,8.3-4.8,14.7s1.6,11.3,4.8,14.7C349,338.4,349.1,338.6,349.1,338.7z"/>
</g>
<g enable-background="new    ">
	<path d="M358.2,331.6c-1.3,0-2.4-0.3-3.1-1s-1.2-1.7-1.2-3c0-0.4,0-0.7,0.1-1.1c0.2-1,0.7-2.5,1.5-4.5l0.5-1.5
		c0.1-0.4,0.2-0.7,0.2-1.1c0-0.5-0.2-0.8-0.6-0.8c-0.1,0-0.3,0-0.5,0.1c-1.1,0.4-1.8,1.6-2.4,3.6c0,0,0,0.1,0,0.1c0,0.1,0,0.1,0,0.1
		c0,0,0,0,0,0c0,0-0.1,0-0.1,0c-0.1,0-0.1,0-0.1,0s-0.1,0-0.2,0h-0.4c-0.1-0.1-0.2-0.2-0.2-0.3c0-0.1,0-0.2,0.1-0.5
		c0.5-1.6,1.3-2.8,2.3-3.7c0.6-0.4,1.2-0.6,1.9-0.6c0.8,0,1.5,0.2,2,0.7c0.5,0.5,0.8,1.1,0.8,1.8c0,0.4,0,0.6-0.1,0.8
		c0,0.1-0.2,0.6-0.5,1.4c-0.9,2.6-1.5,4.4-1.5,5.5c0,0.6,0.1,1,0.2,1.4c0.3,0.9,0.9,1.3,1.9,1.3c0.6,0,1.1-0.2,1.5-0.5
		c1.3-0.8,2.3-2.8,3.2-5.8c0.2-0.6,0.2-1.1,0.2-1.4c0-0.9-0.4-1.7-1.2-2.4c-0.3-0.2-0.4-0.5-0.4-0.8c0-0.5,0.2-0.9,0.6-1.3
		c0.4-0.4,0.8-0.6,1.3-0.6c0.5,0,0.9,0.2,1.1,0.7c0.3,0.5,0.4,1,0.4,1.7c0,0.7-0.2,1.9-0.6,3.6c-0.4,1.6-0.9,3-1.5,4.1
		C361.8,330.2,360.2,331.6,358.2,331.6z"/>
</g>
<g enable-background="new    ">
</g>
<g enable-background="new    ">
	<path d="M384.6,253.3c0-2.5,0.8-4.5,2.5-6.1s3.7-2.6,6-2.8c0,0,0.2,0,0.5,0c0.3,0,0.8,0,1.3,0s1.1,0,1.5,0h3.1
		c0.3,0.1,0.5,0.4,0.5,0.6c0,0.2-0.1,0.4-0.4,0.6l-3.2,0c-2.3,0-3.7,0.1-4.2,0.2c-1.5,0.4-2.9,1.1-4,2.1c-1.1,1-1.8,2.2-2.2,3.6
		c-0.1,0.5-0.2,0.9-0.2,1.1v0.1h13.7c0.3,0.2,0.5,0.4,0.5,0.6s-0.2,0.5-0.5,0.6h-13.7v0.1c0,0.3,0.1,0.6,0.2,1.1
		c0.4,1.4,1.1,2.6,2.2,3.7c1.1,1,2.4,1.7,3.9,2c0.6,0.1,2,0.2,4.3,0.2h3.2c0.3,0.2,0.4,0.4,0.4,0.6c0,0.3-0.2,0.5-0.5,0.6h-3
		c-2.2,0-3.6,0-4.1-0.1c-1.9-0.3-3.6-1.1-5-2.4c-1.4-1.3-2.3-2.8-2.7-4.6C384.6,254.6,384.6,254,384.6,253.3z"/>
</g>
<g enable-background="new    ">
	<path d="M366.8,337.3c0.2,0,0.4,0.1,0.6,0.2c0.1,0.1,0.2,0.3,0.2,0.6c0,0.2-0.1,0.4-0.2,0.6c-0.1,0.2-0.3,0.4-0.5,0.5
		c-0.2,0.1-0.3,0.1-0.3,0.1c0,0,0,0-0.1,0c0,0,0,0,0,0c0,0.1,0.2,0.1,0.3,0.3c0.4,0.2,0.9,0.3,1.5,0.3c1,0,1.7-0.3,2.1-0.9
		c0.2-0.3,0.3-0.6,0.3-0.9c0-0.4-0.2-0.7-0.6-0.9c-0.1-0.1-0.4-0.2-1-0.3c-0.1,0-0.2,0-0.3-0.1c-0.1,0-0.2-0.1-0.3-0.1
		c0,0-0.1,0-0.2,0c-0.1,0-0.1,0-0.2-0.1c0,0-0.1,0-0.2-0.1c-0.1,0-0.1-0.1-0.2-0.1c-0.5-0.4-0.8-0.9-0.8-1.6c0-0.7,0.3-1.4,0.8-2
		c0.6-0.7,1.4-1,2.5-1c1.3,0,2,0.4,2.3,1.3c0,0.1,0,0.2,0,0.4c0,0.4-0.1,0.7-0.3,0.9s-0.5,0.3-0.8,0.3c-0.2,0-0.4-0.1-0.5-0.2
		c-0.1-0.1-0.2-0.3-0.2-0.5c0-0.4,0.2-0.7,0.6-0.9c0.1-0.1,0.2-0.1,0.2-0.1c0,0,0,0,0-0.1c-0.3-0.3-0.8-0.4-1.3-0.4
		c-0.5,0-0.9,0.1-1.3,0.4c-0.3,0.3-0.5,0.7-0.5,1.1c0,0.2,0.1,0.4,0.3,0.6c0.1,0.1,0.5,0.2,1,0.3c0.6,0.1,1,0.2,1.2,0.3
		c0.6,0.3,1,0.7,1.2,1.4c0,0.1,0,0.2,0.1,0.5c0,0.4-0.1,0.9-0.3,1.4c-0.6,1.3-1.8,2-3.6,2c-1.4,0-2.3-0.4-2.6-1.2
		c-0.1-0.2-0.1-0.4-0.1-0.7c0-0.4,0.1-0.7,0.4-1C366.2,337.4,366.5,337.3,366.8,337.3z"/>
</g>
<g enable-background="new    ">
</g>
<g enable-background="new    ">
	<path d="M399.9,311.5c-0.1-0.1-0.2-0.3-0.2-0.3c0-0.2,0.1-0.4,0.2-0.6c0.1-0.2,0.2-0.4,0.2-0.5h0.3c0.9,0.1,1.9,0.1,3.2,0.1
		c2.4,0,3.9,0,4.3-0.1h0.3c0.1,0.1,0.2,0.2,0.2,0.3c0,0.1,0,0.2-0.1,0.6c-0.1,0.3-0.2,0.5-0.3,0.6h-0.6c-0.5,0-0.8,0.1-0.9,0.1
		c-0.6,0.1-0.9,0.3-1,0.5c0,0,0.3,2.6,0.9,7.8c0.6,5.1,0.9,7.7,0.9,7.7l2.3-3.6c1.5-2.4,3-4.8,4.5-7.3c1.5-2.5,2.3-3.7,2.3-3.8
		c0.1-0.2,0.2-0.4,0.2-0.5c0-0.5-0.5-0.8-1.4-0.9c-0.4,0-0.6-0.1-0.6-0.3c0-0.1,0-0.2,0.1-0.4c0.1-0.3,0.1-0.5,0.2-0.6
		c0.1-0.1,0.2-0.1,0.4-0.1c0.3,0,0.9,0,1.7,0c0.8,0,1.3,0,1.7,0c1.4,0,2.3,0,2.7-0.1h0.2c0.1,0.1,0.2,0.3,0.2,0.3
		c0,0.4-0.1,0.7-0.3,1c-0.1,0.1-0.2,0.1-0.5,0.1c-1.1,0.1-2,0.4-2.7,1c0,0-0.1,0.1-0.2,0.2s-0.2,0.2-0.2,0.2
		c-0.1,0.1-0.1,0.2-0.2,0.3c-7.6,12.3-11.4,18.5-11.6,18.6l-0.2,0.1l-0.6,0c-0.4,0-0.6,0-0.6-0.1c-0.1,0-0.1-0.1-0.1-0.2
		c-0.1-0.1-0.5-3.4-1.2-9.9c-0.8-6.6-1.2-9.9-1.2-9.9c-0.1-0.2-0.6-0.3-1.6-0.3h-0.3H399.9z"/>
</g>
<g enable-background="new    ">
	<path d="M349.1,402.8c0,0.2-0.2,0.3-0.6,0.3h-0.4c-0.1-0.1-0.4-0.4-0.9-0.7c-3.7-3.4-5.6-8.3-5.6-14.7c0-2.5,0.3-4.8,0.9-6.9
		c0.9-3.2,2.5-5.8,4.7-7.8c0.1-0.1,0.3-0.3,0.5-0.4s0.3-0.3,0.4-0.3h0.4c0.2,0,0.4,0,0.5,0.1c0.1,0.1,0.1,0.1,0.1,0.2
		c0,0.1-0.1,0.2-0.3,0.5c-3.2,3.4-4.8,8.3-4.8,14.7s1.6,11.3,4.8,14.7C349,402.6,349.1,402.7,349.1,402.8z"/>
</g>
<g enable-background="new    ">
	<path d="M363.3,391.6c0.1,0,0.2,0.1,0.4,0.3c0.2,0.2,0.3,0.3,0.3,0.4c0,0.2-0.3,0.6-1,1.1c-1.7,1.5-3.7,2.2-6,2.2
		c-1.1,0-2.1-0.3-2.9-0.8c-0.5-0.2-0.9-0.6-1.2-1.2c-0.7-1-1-2.2-1-3.5c0-0.8,0.1-1.6,0.2-2.3c0.4-1.6,1.3-3,2.7-4.1s3-1.8,4.9-2
		c0,0,0.2,0,0.5,0h0.1c0.9,0,1.6,0.2,2.2,0.6c0.6,0.4,1,0.9,1.2,1.6c0,0.1,0,0.3,0,0.6c0,0.4,0,0.6-0.1,0.8
		c-0.4,1.5-1.6,2.4-3.4,2.9c-1,0.3-2.4,0.4-4.1,0.4c-0.8,0-1.2,0-1.2,0.1c0,0,0,0.2-0.1,0.4c-0.2,1-0.3,1.8-0.3,2.5
		c0,1,0.2,1.7,0.6,2.3c0.4,0.6,1.1,0.9,1.9,0.9c2.3,0,4.2-0.9,5.7-2.6C363.1,391.7,363.3,391.6,363.3,391.6z M362.3,384.4
		c-0.1-1.1-0.8-1.6-2.1-1.6c-0.7,0-1.5,0.2-2.2,0.6c-1,0.6-1.8,1.5-2.3,2.8c-0.2,0.6-0.3,1-0.3,1c0,0,0.2,0,0.6,0
		c0.7,0,1.3,0,1.9-0.1c1.2-0.1,2.1-0.3,2.7-0.5c0.6-0.2,1.1-0.7,1.5-1.2C362.2,385.2,362.3,384.8,362.3,384.4z"/>
</g>
<g enable-background="new    ">
	<path d="M428.8,372.2l0.1,0c0.1,0,0.2,0,0.3,0h0.4c0.1,0.1,0.4,0.4,0.9,0.7c3.7,3.4,5.6,8.3,5.6,14.7c0,2.5-0.3,4.8-0.9,6.9
		c-0.9,3.3-2.5,5.9-4.7,7.9c-0.1,0.1-0.3,0.3-0.5,0.4c-0.2,0.2-0.3,0.3-0.4,0.3h-0.4c-0.2,0-0.4,0-0.5-0.1c-0.1,0-0.1-0.1-0.1-0.3
		c0,0,0.1-0.2,0.3-0.4c3.2-3.3,4.8-8.2,4.8-14.7c0-6.5-1.6-11.4-4.8-14.7c-0.2-0.2-0.3-0.4-0.3-0.4
		C428.6,372.3,428.7,372.2,428.8,372.2z"/>
</g>
<g enable-background="new    ">
	<path d="M376.8,323.5c0-2.5,0.8-4.5,2.5-6.1s3.7-2.6,6-2.8c0,0,0.2,0,0.5,0c0.3,0,0.8,0,1.3,0s1.1,0,1.5,0h3.1
		c0.3,0.1,0.5,0.4,0.5,0.6c0,0.2-0.1,0.4-0.4,0.6l-3.2,0c-2.3,0-3.7,0.1-4.2,0.2c-1.5,0.4-2.9,1.1-4,2.1c-1.1,1-1.8,2.2-2.2,3.6
		c-0.1,0.5-0.2,0.9-0.2,1.1v0.1h13.7c0.3,0.2,0.5,0.4,0.5,0.6s-0.2,0.5-0.5,0.6h-13.7v0.1c0,0.3,0.1,0.6,0.2,1.1
		c0.4,1.4,1.1,2.6,2.2,3.7c1.1,1,2.4,1.7,3.9,2c0.6,0.1,2,0.2,4.3,0.2h3.2c0.3,0.2,0.4,0.4,0.4,0.6c0,0.3-0.2,0.5-0.5,0.6h-3
		c-2.2,0-3.6,0-4.1-0.1c-1.9-0.3-3.6-1.1-5-2.4c-1.4-1.3-2.3-2.8-2.7-4.6C376.9,324.8,376.8,324.2,376.8,323.5z"/>
</g>
<g enable-background="new    ">
</g>
<g enable-background="new    ">
	<path d="M423.5,381.4c0-0.2,0-0.6,0.1-1.2c0.1-0.6,0.1-1,0.1-1.2c0-0.9-0.2-1.6-0.4-2.1s-0.8-0.8-1.6-1c-0.7-0.1-2.3-0.2-4.7-0.2
		c-1.8,0-2.7,0-2.8,0.1c-0.1,0.1-0.2,0.2-0.3,0.3c0,0.1-0.3,1.3-1,3.8c-0.6,2.5-0.9,3.7-0.9,3.8c0.5,0,1,0,1.5,0h0.3
		c1.3,0,2.3-0.1,2.9-0.3c0.6-0.2,1-0.6,1.4-1.4c0.1-0.2,0.3-0.7,0.5-1.3c0-0.1,0-0.1,0-0.2c0-0.1,0-0.2,0-0.2c0,0,0-0.1,0-0.1
		c0,0,0.1-0.1,0.1-0.1c0.1,0,0.1,0,0.2,0c0.1,0,0.2,0,0.3,0c0.1,0,0.2,0,0.2,0c0.1,0,0.1,0,0.2,0c0,0,0.1,0,0.1,0c0,0,0,0,0.1,0.1
		c0,0.1,0.1,0.1,0.1,0.1l-1,4.1c-0.7,2.7-1.1,4.1-1.1,4.2c-0.1,0.1-0.2,0.1-0.5,0.1c-0.3,0-0.4,0-0.5-0.1c-0.1-0.1-0.1-0.3,0-0.7
		c0.1-0.5,0.2-1,0.2-1.4c0-0.6-0.2-1-0.6-1.1c-0.4-0.2-1.4-0.2-3-0.2h-1.6c-0.1,0.4-0.5,2-1.2,4.6s-1,4-1,4c0,0.1,0.1,0.1,0.4,0.1
		c0.2,0,1.1,0,2.5,0c1.9,0,3.2,0,3.9-0.1c0.6-0.1,1.2-0.2,1.8-0.4c1-0.3,1.9-0.9,2.5-1.7c0.7-0.8,1.4-2.2,2.2-4.1
		c0.2-0.5,0.3-0.7,0.4-0.7c0.1,0,0.2-0.1,0.4-0.1c0.2,0,0.4,0,0.4,0.1c0.1,0.1,0.2,0.2,0.2,0.3c-2.2,5.2-3.3,7.9-3.4,8
		c-0.1,0-3,0.1-8.8,0.1c-4.5,0-7.1,0-7.8,0c-0.7,0-1.1-0.1-1.1-0.1v0c0-0.1-0.1-0.1-0.1-0.2c0,0,0-0.2,0.1-0.4
		c0.1-0.3,0.2-0.5,0.2-0.6c0.1-0.1,0.3-0.1,0.7-0.1c0.6,0,1.2,0,1.9-0.1c0.3-0.1,0.5-0.2,0.6-0.4c0-0.1,0.8-3,2.2-8.7
		c1.4-5.7,2.2-8.6,2.2-8.7c0-0.1,0-0.2-0.1-0.2c-0.2-0.1-0.7-0.1-1.6-0.2h-1c-0.1-0.1-0.2-0.2-0.2-0.3c0-0.1,0-0.2,0.1-0.5
		c0.1-0.4,0.2-0.6,0.3-0.6h17.1c0.1,0.1,0.2,0.3,0.2,0.3c0,0.1-0.1,1.3-0.4,3.5c-0.3,2.2-0.4,3.3-0.4,3.4c0,0.1-0.2,0.2-0.6,0.2
		h-0.4C423.6,381.6,423.5,381.5,423.5,381.4z"/>
</g>
<g enable-background="new    ">
	<path d="M382.6,387.6c0-2.5,0.8-4.5,2.5-6.1s3.7-2.6,6-2.8c0,0,0.2,0,0.5,0c0.3,0,0.8,0,1.3,0s1.1,0,1.5,0h3.1
		c0.3,0.1,0.5,0.4,0.5,0.6c0,0.2-0.1,0.4-0.4,0.6l-3.2,0c-2.3,0-3.7,0.1-4.2,0.2c-1.5,0.4-2.9,1.1-4,2.1c-1.1,1-1.8,2.2-2.2,3.6
		c-0.1,0.5-0.2,0.9-0.2,1.1v0.1h13.7c0.3,0.2,0.5,0.4,0.5,0.6s-0.2,0.5-0.5,0.6h-13.7v0.1c0,0.3,0.1,0.6,0.2,1.1
		c0.4,1.4,1.1,2.6,2.2,3.7c1.1,1,2.4,1.7,3.9,2c0.6,0.1,2,0.2,4.3,0.2h3.2c0.3,0.2,0.4,0.4,0.4,0.6c0,0.3-0.2,0.5-0.5,0.6h-3
		c-2.2,0-3.6,0-4.1-0.1c-1.9-0.3-3.6-1.1-5-2.4c-1.4-1.3-2.3-2.8-2.7-4.6C382.7,388.9,382.6,388.3,382.6,387.6z"/>
</g>
<g enable-background="new    ">
	<path d="M368.6,397c-0.5,0-1-0.1-1.3-0.4s-0.5-0.7-0.5-1.2c0-0.2,0-0.3,0-0.4c0.1-0.4,0.3-1,0.6-1.9l0.2-0.6
		c0.1-0.2,0.1-0.3,0.1-0.4c0-0.2-0.1-0.3-0.2-0.3c-0.1,0-0.1,0-0.2,0c-0.4,0.2-0.8,0.6-1,1.5c0,0,0,0,0,0c0,0,0,0,0,0c0,0,0,0,0,0
		c0,0,0,0,0,0c0,0,0,0-0.1,0c0,0-0.1,0-0.1,0h-0.2c-0.1-0.1-0.1-0.1-0.1-0.1s0-0.1,0-0.2c0.2-0.7,0.5-1.2,1-1.5
		c0.2-0.2,0.5-0.3,0.8-0.3c0.3,0,0.6,0.1,0.8,0.3s0.3,0.4,0.3,0.7c0,0.1,0,0.3,0,0.3c0,0.1-0.1,0.2-0.2,0.6
		c-0.4,1.1-0.6,1.8-0.6,2.3c0,0.2,0,0.4,0.1,0.6c0.1,0.4,0.4,0.6,0.8,0.6c0.2,0,0.4-0.1,0.6-0.2c0.5-0.4,1-1.2,1.3-2.4
		c0.1-0.2,0.1-0.4,0.1-0.6c0-0.4-0.2-0.7-0.5-1c-0.1-0.1-0.2-0.2-0.2-0.3c0-0.2,0.1-0.4,0.2-0.5c0.2-0.2,0.3-0.2,0.5-0.2
		c0.2,0,0.4,0.1,0.5,0.3c0.1,0.2,0.2,0.4,0.2,0.7c0,0.3-0.1,0.8-0.3,1.5c-0.2,0.7-0.4,1.2-0.6,1.7C370.1,396.4,369.4,397,368.6,397z
		"/>
</g>
<g enable-background="new    ">
</g>
<g enable-background="new    ">
	<path d="M372.3,399.3c0.1,0,0.2,0,0.2,0.1s0.1,0.1,0.1,0.2c0,0.1,0,0.2-0.1,0.3s-0.1,0.1-0.2,0.2c-0.1,0-0.1,0-0.1,0c0,0,0,0,0,0
		c0,0,0,0,0,0c0,0,0.1,0.1,0.1,0.1c0.2,0.1,0.4,0.1,0.6,0.1c0.4,0,0.7-0.1,0.9-0.4c0.1-0.1,0.1-0.3,0.1-0.4c0-0.2-0.1-0.3-0.3-0.4
		c0,0-0.2-0.1-0.4-0.1c0,0-0.1,0-0.1,0c-0.1,0-0.1,0-0.1,0c0,0,0,0-0.1,0c0,0-0.1,0-0.1,0c0,0,0,0-0.1,0c0,0-0.1,0-0.1-0.1
		c-0.2-0.2-0.3-0.4-0.3-0.7c0-0.3,0.1-0.6,0.3-0.8c0.2-0.3,0.6-0.4,1-0.4c0.5,0,0.8,0.2,0.9,0.5c0,0,0,0.1,0,0.2
		c0,0.1,0,0.3-0.1,0.4s-0.2,0.1-0.3,0.1c-0.1,0-0.2,0-0.2-0.1c-0.1,0-0.1-0.1-0.1-0.2c0-0.2,0.1-0.3,0.2-0.4c0,0,0.1,0,0.1,0
		c0,0,0,0,0,0c-0.1-0.1-0.3-0.2-0.6-0.2c-0.2,0-0.4,0.1-0.5,0.2c-0.1,0.1-0.2,0.3-0.2,0.5c0,0.1,0,0.2,0.1,0.3
		c0.1,0,0.2,0.1,0.4,0.1c0.2,0.1,0.4,0.1,0.5,0.1c0.3,0.1,0.4,0.3,0.5,0.6c0,0,0,0.1,0,0.2c0,0.2,0,0.4-0.1,0.6
		c-0.3,0.5-0.8,0.8-1.5,0.8c-0.6,0-0.9-0.2-1.1-0.5c0-0.1-0.1-0.2-0.1-0.3c0-0.2,0-0.3,0.1-0.4C372,399.4,372.2,399.3,372.3,399.3z"
		/>
</g>
<g enable-background="new    ">
	<path d="M372.2,382c-0.2,0-0.9,0-2.1,0s-2,0-2.1,0h-0.2v-0.6h0.3c0.3,0,0.5,0,0.6,0c0.2,0,0.4,0,0.4,0s0.1-0.1,0.2-0.1v-1.1h0
		c0,0-0.1,0-0.2,0c-0.6-0.1-1.2-0.2-1.7-0.5c-0.7-0.4-1.2-0.9-1.3-1.6c0-0.1,0-0.2,0-0.3c0-0.2,0-0.3,0-0.3c0.1-0.6,0.6-1.2,1.3-1.6
		c0.5-0.3,1.1-0.5,1.7-0.5c0.1,0,0.2,0,0.2,0h0V374c-0.1,0-0.1-0.1-0.1-0.1c0,0-0.1,0-0.1,0c-0.1,0-0.1,0-0.2,0c-0.1,0-0.2,0-0.3,0
		c-0.1,0-0.3,0-0.6,0h-0.3v-0.6h0.2c0.2,0,0.9,0,2.1,0s2,0,2.1,0h0.2v0.6H372c-0.3,0-0.5,0-0.6,0c-0.2,0-0.4,0-0.5,0
		c-0.1,0-0.1,0.1-0.2,0.1v1.1l0.2,0c0.7,0.1,1.3,0.3,1.8,0.6s0.9,0.7,1.1,1.1c0.1,0.2,0.2,0.5,0.2,0.8c0,0.3-0.1,0.6-0.2,0.8
		c-0.2,0.4-0.6,0.8-1.1,1.1s-1.1,0.5-1.8,0.6l-0.2,0v1.1c0.1,0.1,0.1,0.1,0.2,0.1s0.2,0,0.5,0c0.1,0,0.3,0,0.6,0h0.3v0.6H372.2z
		 M367.7,377.6c0,0.6,0.1,1.1,0.4,1.4s0.7,0.5,1.3,0.6h0.1v-3.9h0c-0.1,0-0.2,0-0.4,0.1c-0.5,0.1-0.8,0.3-1.1,0.6
		C367.8,376.6,367.7,377,367.7,377.6z M370.8,379.6c0.6-0.1,1-0.3,1.3-0.6c0.3-0.3,0.4-0.8,0.4-1.4c0-0.6-0.1-1-0.4-1.3
		c-0.3-0.3-0.6-0.5-1.2-0.6c-0.1,0-0.2,0-0.2,0h-0.1L370.8,379.6L370.8,379.6z"/>
</g>
<g enable-background="new    ">
	<path d="M371.7,385.8C371.7,385.7,371.6,385.7,371.7,385.8c-0.1-0.1,0-0.2,0-0.2c0-0.1,0-0.1,0-0.1l0,0h0.1c0.4,0,0.6-0.1,0.8-0.4
		c0,0,0.5-0.8,1.5-2.5s1.4-2.4,1.4-2.4c0,0,0.1-0.1,0.1-0.1c0,0,0.1,0,0.2,0h0.1c0,0,0,0.1,0,0.1l0.2,2.6c0.1,1.7,0.2,2.6,0.2,2.6
		c0,0.1,0.2,0.1,0.5,0.1c0.1,0,0.1,0,0.1,0c0,0,0,0,0.1,0c0,0,0,0,0,0.1c0,0,0,0,0,0.1c0,0.1,0,0.1,0,0.1c0,0,0,0-0.1,0
		c-0.1,0-0.3,0-0.5,0c-0.2,0-0.4,0-0.5,0c-0.5,0-0.8,0-1,0h-0.1c0,0,0-0.1-0.1-0.1c0,0,0-0.1,0-0.1c0-0.1,0-0.1,0-0.1l0,0h0.2
		c0.3,0,0.5-0.1,0.5-0.1l-0.1-1.2h-1.9l-0.3,0.5c-0.2,0.3-0.3,0.5-0.3,0.5c0,0,0,0.1,0,0.1c0,0.1,0.1,0.2,0.4,0.2
		c0.1,0,0.2,0,0.2,0.1c0,0,0,0.1,0,0.1c0,0.1,0,0.1,0,0.1c0,0-0.1,0-0.1,0c-0.1,0-0.2,0-0.4,0c-0.2,0-0.3,0-0.4,0
		C372.1,385.8,371.9,385.8,371.7,385.8L371.7,385.8z M375.5,383.7c0-0.1,0-0.5-0.1-1.3c-0.1-0.8-0.1-1.2-0.1-1.2l-0.2,0.3
		c-0.1,0.1-0.3,0.4-0.5,0.9l-0.7,1.2l0.8,0C375.2,383.7,375.5,383.7,375.5,383.7z"/>
</g>
<g enable-background="new    ">
	<path d="M424.7,308.1l0.1,0c0.1,0,0.2,0,0.3,0h0.4c0.1,0.1,0.4,0.4,0.9,0.7c3.7,3.4,5.6,8.3,5.6,14.7c0,2.5-0.3,4.8-0.9,6.9
		c-0.9,3.3-2.5,5.9-4.7,7.9c-0.1,0.1-0.3,0.3-0.5,0.4s-0.3,0.3-0.4,0.3h-0.4c-0.2,0-0.4,0-0.5-0.1s-0.1-0.1-0.1-0.3
		c0,0,0.1-0.2,0.3-0.4c3.2-3.3,4.8-8.2,4.8-14.7c0-6.5-1.6-11.4-4.8-14.7c-0.2-0.2-0.3-0.4-0.3-0.4
		C424.6,308.2,424.6,308.1,424.7,308.1z"/>
</g>
<g enable-background="new    ">
	<path d="M431,237.9l0.1,0c0.1,0,0.2,0,0.3,0h0.4c0.1,0.1,0.4,0.4,0.9,0.7c3.7,3.4,5.6,8.3,5.6,14.7c0,2.5-0.3,4.8-0.9,6.9
		c-0.9,3.3-2.5,5.9-4.7,7.9c-0.1,0.1-0.3,0.3-0.5,0.4s-0.3,0.3-0.4,0.3h-0.4c-0.2,0-0.4,0-0.5-0.1s-0.1-0.1-0.1-0.3
		c0,0,0.1-0.2,0.3-0.4c3.2-3.3,4.8-8.2,4.8-14.7c0-6.5-1.6-11.4-4.8-14.7c-0.2-0.2-0.3-0.4-0.3-0.4
		C430.9,238.1,430.9,237.9,431,237.9z"/>
</g>
</svg>
