<?xml version="1.0" encoding="utf-8"?>
<!-- Generator: Adobe Illustrator 18.1.1, SVG Export Plug-In . SVG Version: 6.00 Build 0)  -->
<svg version="1.1" id="svg6068" xmlns="http://www.w3.org/2000/svg" xmlns:xlink="http://www.w3.org/1999/xlink" x="0px" y="0px"
	 viewBox="1.7 194.8 597.4 597.2" enable-background="new 1.7 194.8 597.4 597.2" xml:space="preserve">
<path id="path4190" fill="#231F20" d="M62.7,549.2h27.8V577H62.7V549.2z"/>
<g id="g4192">
	<path id="path4194" fill="#231F20" stroke="#231F20" stroke-miterlimit="10" d="M62.9,549.2h27.8V577H62.9V549.2z"/>
</g>
<path id="path4196" fill="#231F20" d="M168.4,638.3h27.8v27.8h-27.8V638.3z"/>
<g id="g4198">
	<path id="path4200" fill="#231F20" stroke="#231F20" stroke-miterlimit="10" d="M168.4,638.3h27.8v27.8h-27.8V638.3z"/>
</g>
<path id="path4202" fill="#231F20" d="M230,410.6h27.8v27.8H230V410.6z"/>
<g id="g4204">
	<path id="path4206" fill="#231F20" stroke="#231F20" stroke-miterlimit="10" d="M230,410.6h27.8v27.8H230V410.6z"/>
</g>
<path id="path4208" fill="#231F20" d="M363.3,544.1h27.8v27.8h-27.8V544.1z"/>
<g id="g4210">
	<path id="path4212" fill="#231F20" stroke="#231F20" stroke-miterlimit="10" d="M363.3,544.1h27.8v27.8h-27.8V544.1z"/>
</g>
<path id="path4214" fill="#231F20" d="M109.9,386.2c19.4,19.4,19.4,51.3,0,70.7c-19.4,19.4-51.3,19.4-70.7,0
	c-19.4-19.4-19.4-51.3,0-70.7S90.5,366.5,109.9,386.2"/>
<g id="g4216">
	<path id="path4218" fill="#FFFFFF" stroke="#231F20" stroke-miterlimit="10" d="M109.9,386.2c19.4,19.4,19.4,51.3,0,70.7
		c-19.4,19.4-51.3,19.4-70.7,0c-19.4-19.4-19.4-51.3,0-70.7C58.6,366.5,90.5,366.5,109.9,386.2"/>
</g>
<path id="path4220" fill="#231F20" d="M282.3,519.4c19.4,19.4,19.4,51.3,0,70.7c-19.4,19.4-51.3,19.4-70.7,0s-19.4-51.3,0-70.7
	C231,500,262.8,500,282.3,519.4"/>
<g id="g4222">
	<path id="path4224" fill="#FFFFFF" stroke="#231F20" stroke-miterlimit="10" d="M282.3,519.4c19.4,19.4,19.4,51.3,0,70.7
		c-19.4,19.4-51.3,19.4-70.7,0s-19.4-51.3,0-70.7C231,500,262.8,500,282.3,519.4"/>
</g>
<path id="path4226" fill="#231F20" d="M109.9,675.5c19.4,19.4,19.4,51.3,0,70.7s-51.3,19.4-70.7,0s-19.4-51.3,0-70.7
	C58.6,655.8,90.5,655.8,109.9,675.5"/>
<g id="g4228">
	<path id="path4230" fill="#A7A5A6" stroke="#231F20" stroke-miterlimit="10" d="M109.9,675.5c19.4,19.4,19.4,51.3,0,70.7
		s-51.3,19.4-70.7,0s-19.4-51.3,0-70.7C58.6,655.8,90.5,655.8,109.9,675.5"/>
</g>
<path id="path4232" fill="#231F20" d="M346,675.5c19.4,19.4,19.4,51.3,0,70.7s-51.3,19.4-70.7,0s-19.4-51.3,0-70.7
	C294.7,655.8,326.4,655.8,346,675.5"/>
<g id="g4234">
	<path id="path4236" fill="#A7A5A6" stroke="#231F20" stroke-miterlimit="10" d="M346,675.5c19.4,19.4,19.4,51.3,0,70.7
		s-51.3,19.4-70.7,0s-19.4-51.3,0-70.7C294.7,655.8,326.4,655.8,346,675.5"/>
</g>
<g id="g4238">
	<path id="path4240" fill="#231F20" stroke="#231F20" stroke-miterlimit="10" d="M75.1,471.3l1,77.9"/>
</g>
<g id="g4242">
	<path id="path4244" fill="#231F20" stroke="#231F20" stroke-miterlimit="10" d="M197.2,658.9l68.8,30.7"/>
</g>
<path id="path4246" fill="#231F20" d="M482.4,386.2c19.4,19.4,19.4,51.3,0,70.7c-19.4,19.4-51.3,19.4-70.7,0
	c-19.4-19.4-19.4-51.3,0-70.7S463,366.5,482.4,386.2"/>
<g id="g4248">
	<path id="path4250" fill="#FFFFFF" stroke="#231F20" stroke-miterlimit="10" d="M482.4,386.2c19.4,19.4,19.4,51.3,0,70.7
		c-19.4,19.4-51.3,19.4-70.7,0c-19.4-19.4-19.4-51.3,0-70.7C431.1,366.5,463,366.5,482.4,386.2"/>
</g>
<g id="g4252">
	<path id="path4254" fill="#231F20" stroke="#231F20" stroke-miterlimit="10" d="M245.3,505.1l-1-66.6"/>
</g>
<path id="path4256" fill="#231F20" d="M551.6,675.5c19.4,19.4,19.4,51.3,0,70.7s-51.3,19.4-70.7,0c-19.4-19.4-19.4-51.3,0-70.7
	C500.3,655.8,532.2,655.8,551.6,675.5"/>
<g id="g4258">
	<path id="path4260" fill="#A7A5A6" stroke="#231F20" stroke-miterlimit="10" d="M551.6,675.5c19.4,19.4,19.4,51.3,0,70.7
		s-51.3,19.4-70.7,0c-19.4-19.4-19.4-51.3,0-70.7C500.3,655.8,532.2,655.8,551.6,675.5"/>
</g>
<g id="g4262">
	<path id="path4264" fill="#231F20" stroke="#231F20" stroke-miterlimit="10" d="M423.9,466l-40,77.9"/>
</g>
<g id="g4266">
	<path id="path4268" fill="#231F20" stroke="#231F20" stroke-miterlimit="10" d="M118.3,686.8l50.3-26.6"/>
</g>
<g id="g4270">
	<path id="path4272" fill="#231F20" stroke="#231F20" stroke-miterlimit="10" d="M296.6,556.4l66.6,1"/>
</g>
<g id="g4274">
	<path id="path4276" fill="#231F20" stroke="#231F20" stroke-miterlimit="10" d="M124.3,421.9L230,424"/>
</g>
<g id="g4278">
	<path id="path4280" fill="#231F20" stroke="#231F20" stroke-miterlimit="10" d="M219.7,596.4l-27.6,42"/>
</g>
<g id="g4282">
	<path id="path4284" fill="#231F20" stroke="#231F20" stroke-miterlimit="10" d="M257.8,424l138.6-2.2"/>
</g>
<g id="g4286">
	<path id="path4288" fill="#231F20" stroke="#231F20" stroke-miterlimit="10" d="M391.1,570.7l88.8,104.8"/>
</g>
<g id="g4290">
	<path id="path4292" fill="#231F20" stroke="#231F20" stroke-miterlimit="10" d="M77.1,577l-1.9,82.9"/>
</g>
<rect x="27" y="220" fill="none" stroke="#000000" stroke-miterlimit="10" width="282.1" height="123.9"/>
<rect x="93.3" y="232.4" fill="none" width="119.9" height="29.5"/>
<text transform="matrix(1 0 0 1 93.1882 245.6851)" font-family="'KaTeX_Main-Regular'" font-size="19.1774">function node </text>
<rect x="93.3" y="274.3" fill="none" width="119.6" height="29.5"/>
<text transform="matrix(1 0 0 1 93.1882 287.5831)" font-family="'KaTeX_Main-Regular'" font-size="19.1774">variable node</text>
<rect x="93.3" y="314.1" fill="none" width="119.6" height="29.5"/>
<text transform="matrix(1 0 0 1 93.1882 327.3263)" font-family="'KaTeX_Main-Regular'" font-size="19.1774">edge</text>
<g id="g4192_1_">
	<path id="path4194_1_" fill="#231F20" stroke="#231F20" stroke-miterlimit="10" d="M60.2,236.2h11v11h-11V236.2z"/>
</g>
<g id="g4216_1_">
	<path id="path4218_1_" fill="#FFFFFF" stroke="#231F20" stroke-width="0.5" stroke-miterlimit="10" d="M55.9,292.1
		c-5.5-5.5-5.5-14.4,0-19.9c5.5-5.5,14.4-5.5,19.9,0c5.5,5.5,5.5,14.4,0,19.9C70.1,297.3,61.2,297.3,55.9,292.1"/>
</g>
<text transform="matrix(1 0 0 1 220.2392 245.4614)" font-family="'KaTeX_Main-Regular'" font-size="19.1774">(Φ      </text>
<g id="g4274_1_">
	<path id="path4276_1_" fill="#231F20" stroke="#231F20" stroke-miterlimit="10" d="M51.8,322.5h28"/>
</g>
<text transform="matrix(1 0 0 1 236.2202 251.1222)" font-family="'KaTeX_Math-Italic'" font-size="11.9859">A</text>
<text transform="matrix(1 0 0 1 256.9958 245.4614)" font-family="'KaTeX_Main-Regular'" font-size="19.1774"> </text>
<text transform="matrix(1 0 0 1 261.7903 245.4614)" font-family="'KaTeX_Math-Italic'" font-size="19.1774">F</text>
<text transform="matrix(1 0 0 1 220.2392 288.9579)" font-family="'KaTeX_Main-Regular'" font-size="19.1774">(</text>
<text transform="matrix(1 0 0 1 227.6708 288.9579)" font-family="'KaTeX_Math-Italic'" font-size="19.1774">v</text>
<text transform="matrix(1 0 0 1 237.0195 288.9579)" font-family="'KaTeX_Main-Regular'" font-size="19.1774">       </text>
<text transform="matrix(1 0 0 1 247.008 245.4614)" font-family="'KaTeX_Main-Regular'" font-size="19.1774">∈</text>
<text transform="matrix(1 0 0 1 236.2202 294.6187)" font-family="'KaTeX_Math-Italic'" font-size="11.9859">s</text>
<text transform="matrix(1 0 0 1 252.202 288.9579)" font-family="'KaTeX_Main-Regular'" font-size="19.1774"> </text>
<text transform="matrix(1 0 0 1 256.9958 288.9579)" font-family="'KaTeX_Math-Italic'" font-size="19.1774">V</text>
<text transform="matrix(1 0 0 1 220.2392 328.7002)" font-family="'KaTeX_Main-Regular'" font-size="19.1774">(</text>
<text transform="matrix(1 0 0 1 227.67 328.7002)" font-family="'KaTeX_Math-Italic'" font-size="19.1774">e</text>
<text transform="matrix(1 0 0 1 236.5403 328.7002)" font-family="'KaTeX_Main-Regular'" font-size="19.1774">        )</text>
<text transform="matrix(1 0 0 1 242.2135 288.9579)" font-family="'KaTeX_Main-Regular'" font-size="19.1774">∈</text>
<text transform="matrix(1 0 0 1 254.598 328.7002)" font-family="'KaTeX_Main-Regular'" font-size="19.1774"> </text>
<text transform="matrix(1 0 0 1 259.3935 328.7002)" font-family="'KaTeX_Math-Italic'" font-size="19.1774">E</text>
<text transform="matrix(1 0 0 1 245.8084 328.7002)" font-family="'KaTeX_Main-Regular'" font-size="19.1774">∈</text>
<text transform="matrix(1 0 0 1 236.7915 329.6302)" font-family="'KaTeX_Math-Italic'" font-size="7.9622">v</text>
<text transform="matrix(1 0 0 1 240.6277 329.6302)" font-family="'KaTeX_Main-Regular'" font-size="7.9622">       </text>
<text transform="matrix(1 0 0 1 240.4417 331.98)" font-family="'KaTeX_Math-Italic'" font-size="4.9763">s</text>
<text transform="matrix(1 0 0 1 236.7915 320.419)" font-family="'KaTeX_Main-Regular'" font-size="7.9622">Φ</text>
<text transform="matrix(1 0 0 1 240.4425 322.7698)" font-family="'KaTeX_Math-Italic'" font-size="4.9763">A</text>
<text transform="matrix(1 0 0 1 272.3779 288.9579)" font-family="'KaTeX_Main-Regular'" font-size="19.1774">)</text>
<text transform="matrix(1 0 0 1 276.2733 245.4614)" font-family="'KaTeX_Main-Regular'" font-size="19.1774">)</text>
</svg>
