<?xml version="1.0" encoding="UTF-8" standalone="no"?>
<!-- Created with Inkscape (http://www.inkscape.org/) -->

<svg
   xmlns:dc="http://purl.org/dc/elements/1.1/"
   xmlns:cc="http://creativecommons.org/ns#"
   xmlns:rdf="http://www.w3.org/1999/02/22-rdf-syntax-ns#"
   xmlns:svg="http://www.w3.org/2000/svg"
   xmlns="http://www.w3.org/2000/svg"
   xmlns:sodipodi="http://sodipodi.sourceforge.net/DTD/sodipodi-0.dtd"
   xmlns:inkscape="http://www.inkscape.org/namespaces/inkscape"
   id="svg3336"
   version="1.1"
   inkscape:version="0.91 r13725"
   xml:space="preserve"
   width="699.02875"
   height="838.30377"
   viewBox="0 0 699.02875 838.30377"
   sodipodi:docname="factor-graph.svg"><metadata
     id="metadata3342"><rdf:RDF><cc:Work
         rdf:about=""><dc:format>image/svg+xml</dc:format><dc:type
           rdf:resource="http://purl.org/dc/dcmitype/StillImage" /><dc:title></dc:title></cc:Work></rdf:RDF></metadata><defs
     id="defs3340"><clipPath
       clipPathUnits="userSpaceOnUse"
       id="clipPath3366"><path
         d="m 0,670.643 559.224,0 L 559.224,0 0,0 0,670.643 Z"
         id="path3368"
         inkscape:connector-curvature="0" /></clipPath><clipPath
       clipPathUnits="userSpaceOnUse"
       id="clipPath3468"><path
         d="m 132.085,630.064 189.987,0 0,-34.449 -189.987,0 0,34.449 z"
         id="path3470"
         inkscape:connector-curvature="0" /></clipPath><clipPath
       clipPathUnits="userSpaceOnUse"
       id="clipPath3484"><path
         d="m 132.085,562.472 178.88,0 0,-34.449 -178.88,0 0,34.449 z"
         id="path3486"
         inkscape:connector-curvature="0" /></clipPath><clipPath
       clipPathUnits="userSpaceOnUse"
       id="clipPath3500"><path
         d="m 132.085,498.358 60.141,0 0,-34.449 -60.141,0 0,34.449 z"
         id="path3502"
         inkscape:connector-curvature="0" /></clipPath><clipPath
       clipPathUnits="userSpaceOnUse"
       id="clipPath3522"><path
         d="m 337.048,630.424 80.778,0 0,-34.449 -80.778,0 0,34.449 z"
         id="path3524"
         inkscape:connector-curvature="0" /></clipPath><clipPath
       clipPathUnits="userSpaceOnUse"
       id="clipPath3542"><path
         d="m 362.828,611.531 14.501,0 0,-20.487 -14.501,0 0,20.487 z"
         id="path3544"
         inkscape:connector-curvature="0" /></clipPath><clipPath
       clipPathUnits="userSpaceOnUse"
       id="clipPath3558"><path
         d="m 396.343,630.424 30.908,0 0,-34.449 -30.908,0 0,34.449 z"
         id="path3560"
         inkscape:connector-curvature="0" /></clipPath><clipPath
       clipPathUnits="userSpaceOnUse"
       id="clipPath3562"><path
         d="m 396.343,630.424 7.735,0 0,-34.449 -7.735,0 0,34.449 z"
         id="path3564"
         inkscape:connector-curvature="0" /></clipPath><clipPath
       clipPathUnits="userSpaceOnUse"
       id="clipPath3566"><path
         d="m 404.079,630.424 23.172,0 0,-32.778 -23.172,0 0,32.778 z"
         id="path3568"
         inkscape:connector-curvature="0" /></clipPath><clipPath
       clipPathUnits="userSpaceOnUse"
       id="clipPath3598"><path
         d="m 337.048,560.255 81.209,0 0,-34.448 -81.209,0 0,34.448 z"
         id="path3600"
         inkscape:connector-curvature="0" /></clipPath><clipPath
       clipPathUnits="userSpaceOnUse"
       id="clipPath3602"><path
         d="m 337.048,560.255 12.034,0 0,-34.448 -12.034,0 0,34.448 z"
         id="path3604"
         inkscape:connector-curvature="0" /></clipPath><clipPath
       clipPathUnits="userSpaceOnUse"
       id="clipPath3606"><path
         d="m 349.037,560.255 15.003,0 0,-32.778 -15.003,0 0,32.778 z"
         id="path3608"
         inkscape:connector-curvature="0" /></clipPath><clipPath
       clipPathUnits="userSpaceOnUse"
       id="clipPath3610"><path
         d="m 364.117,560.255 54.14,0 0,-34.448 -54.14,0 0,34.448 z"
         id="path3612"
         inkscape:connector-curvature="0" /></clipPath><clipPath
       clipPathUnits="userSpaceOnUse"
       id="clipPath3654"><path
         d="m 380.232,630.424 20.635,0 0,-34.449 -20.635,0 0,34.449 z"
         id="path3656"
         inkscape:connector-curvature="0" /></clipPath><clipPath
       clipPathUnits="userSpaceOnUse"
       id="clipPath3670"><path
         d="m 362.828,541.359 9.068,0 0,-20.487 -9.068,0 0,20.487 z"
         id="path3672"
         inkscape:connector-curvature="0" /></clipPath><clipPath
       clipPathUnits="userSpaceOnUse"
       id="clipPath3686"><path
         d="m 388.611,560.255 31.523,0 0,-34.448 -31.523,0 0,34.448 z"
         id="path3688"
         inkscape:connector-curvature="0" /></clipPath><clipPath
       clipPathUnits="userSpaceOnUse"
       id="clipPath3690"><path
         d="m 388.611,560.255 7.734,0 0,-34.448 -7.734,0 0,34.448 z"
         id="path3692"
         inkscape:connector-curvature="0" /></clipPath><clipPath
       clipPathUnits="userSpaceOnUse"
       id="clipPath3694"><path
         d="m 396.343,560.255 23.791,0 0,-32.778 -23.791,0 0,32.778 z"
         id="path3696"
         inkscape:connector-curvature="0" /></clipPath><clipPath
       clipPathUnits="userSpaceOnUse"
       id="clipPath3726"><path
         d="m 337.048,496.141 100.207,0 0,-34.449 -100.207,0 0,34.449 z"
         id="path3728"
         inkscape:connector-curvature="0" /></clipPath><clipPath
       clipPathUnits="userSpaceOnUse"
       id="clipPath3730"><path
         d="m 337.048,496.141 12.034,0 0,-34.449 -12.034,0 0,34.449 z"
         id="path3732"
         inkscape:connector-curvature="0" /></clipPath><clipPath
       clipPathUnits="userSpaceOnUse"
       id="clipPath3734"><path
         d="m 349.035,496.141 14.417,0 0,-32.778 -14.417,0 0,32.778 z"
         id="path3736"
         inkscape:connector-curvature="0" /></clipPath><clipPath
       clipPathUnits="userSpaceOnUse"
       id="clipPath3738"><path
         d="m 363.345,496.141 73.91,0 0,-34.449 -73.91,0 0,34.449 z"
         id="path3740"
         inkscape:connector-curvature="0" /></clipPath><clipPath
       clipPathUnits="userSpaceOnUse"
       id="clipPath3786"><path
         d="m 372.496,560.255 20.634,0 0,-34.448 -20.634,0 0,34.448 z"
         id="path3788"
         inkscape:connector-curvature="0" /></clipPath><clipPath
       clipPathUnits="userSpaceOnUse"
       id="clipPath3802"><path
         d="m 392.476,496.141 31.372,0 0,-34.449 -31.372,0 0,34.449 z"
         id="path3804"
         inkscape:connector-curvature="0" /></clipPath><clipPath
       clipPathUnits="userSpaceOnUse"
       id="clipPath3806"><path
         d="m 392.476,496.141 7.734,0 0,-34.449 -7.734,0 0,34.449 z"
         id="path3808"
         inkscape:connector-curvature="0" /></clipPath><clipPath
       clipPathUnits="userSpaceOnUse"
       id="clipPath3810"><path
         d="m 400.212,496.141 23.636,0 0,-32.778 -23.636,0 0,32.778 z"
         id="path3812"
         inkscape:connector-curvature="0" /></clipPath><clipPath
       clipPathUnits="userSpaceOnUse"
       id="clipPath3842"><path
         d="m 378.296,496.141 20.635,0 0,-34.449 -20.635,0 0,34.449 z"
         id="path3844"
         inkscape:connector-curvature="0" /></clipPath><clipPath
       clipPathUnits="userSpaceOnUse"
       id="clipPath3858"><path
         d="m 363.749,479.416 28.668,0 0,-14.303 -28.668,0 0,14.303 z"
         id="path3860"
         inkscape:connector-curvature="0" /></clipPath><clipPath
       clipPathUnits="userSpaceOnUse"
       id="clipPath3862"><path
         d="m 363.749,479.416 6.23,0 0,-13.609 -6.23,0 0,13.609 z"
         id="path3864"
         inkscape:connector-curvature="0" /></clipPath><clipPath
       clipPathUnits="userSpaceOnUse"
       id="clipPath3866"><path
         d="m 369.939,479.416 22.478,0 0,-14.303 -22.478,0 0,14.303 z"
         id="path3868"
         inkscape:connector-curvature="0" /></clipPath><clipPath
       clipPathUnits="userSpaceOnUse"
       id="clipPath3898"><path
         d="m 369.64,471.572 3.765,0 0,-8.506 -3.765,0 0,8.506 z"
         id="path3900"
         inkscape:connector-curvature="0" /></clipPath><clipPath
       clipPathUnits="userSpaceOnUse"
       id="clipPath3914"><path
         d="m 363.749,494.277 9.274,0 0,-14.303 -9.274,0 0,14.303 z"
         id="path3916"
         inkscape:connector-curvature="0" /></clipPath><clipPath
       clipPathUnits="userSpaceOnUse"
       id="clipPath3930"><path
         d="m 369.64,486.43 6.021,0 0,-8.505 -6.021,0 0,8.505 z"
         id="path3932"
         inkscape:connector-curvature="0" /></clipPath><clipPath
       clipPathUnits="userSpaceOnUse"
       id="clipPath3946"><path
         d="m 421.16,560.255 12.034,0 0,-34.448 -12.034,0 0,34.448 z"
         id="path3948"
         inkscape:connector-curvature="0" /></clipPath><clipPath
       clipPathUnits="userSpaceOnUse"
       id="clipPath3962"><path
         d="m 427.443,630.424 12.034,0 0,-34.449 -12.034,0 0,34.449 z"
         id="path3964"
         inkscape:connector-curvature="0" /></clipPath></defs><sodipodi:namedview
     pagecolor="#ffffff"
     bordercolor="#666666"
     borderopacity="1"
     objecttolerance="10"
     gridtolerance="10"
     guidetolerance="10"
     inkscape:pageopacity="0"
     inkscape:pageshadow="2"
     inkscape:window-width="1600"
     inkscape:window-height="837"
     id="namedview3338"
     showgrid="false"
     inkscape:zoom="0.79684718"
     inkscape:cx="349.51437"
     inkscape:cy="469.34972"
     inkscape:window-x="-8"
     inkscape:window-y="-8"
     inkscape:window-maximized="1"
     inkscape:current-layer="g3344" /><g
     id="g3344"
     inkscape:groupmode="layer"
     inkscape:label="factor-graph"
     transform="matrix(1.25,0,0,-1.25,0,838.30375)"><path
       d="m 60.948,236.287 27.807,0 0,-27.807 -27.807,0 0,27.807 z"
       style="fill:#231f20;fill-opacity:1;fill-rule:nonzero;stroke:none"
       id="path3346"
       inkscape:connector-curvature="0" /><path
       d="m 61.188,236.287 27.807,0 0,-27.807 -27.807,0 0,27.807 z"
       style="fill:#231f20;fill-opacity:1;fill-rule:nonzero;stroke:#231f20;stroke-width:1;stroke-linecap:butt;stroke-linejoin:miter;stroke-miterlimit:10;stroke-dasharray:none;stroke-opacity:1"
       id="path3348"
       inkscape:connector-curvature="0" /><path
       d="m 166.664,147.111 27.807,0 0,-27.807 -27.807,0 0,27.807 z"
       style="fill:#231f20;fill-opacity:1;fill-rule:nonzero;stroke:none"
       id="path3350"
       inkscape:connector-curvature="0" /><path
       d="m 166.664,147.111 27.807,0 0,-27.807 -27.807,0 0,27.807 z"
       style="fill:#231f20;fill-opacity:1;fill-rule:nonzero;stroke:#231f20;stroke-width:1;stroke-linecap:butt;stroke-linejoin:miter;stroke-miterlimit:10;stroke-dasharray:none;stroke-opacity:1"
       id="path3352"
       inkscape:connector-curvature="0" /><path
       d="m 228.271,374.844 27.807,0 0,-27.807 -27.807,0 0,27.807 z"
       style="fill:#231f20;fill-opacity:1;fill-rule:nonzero;stroke:none"
       id="path3354"
       inkscape:connector-curvature="0" /><path
       d="m 228.271,374.844 27.807,0 0,-27.807 -27.807,0 0,27.807 z"
       style="fill:#231f20;fill-opacity:1;fill-rule:nonzero;stroke:#231f20;stroke-width:1;stroke-linecap:butt;stroke-linejoin:miter;stroke-miterlimit:10;stroke-dasharray:none;stroke-opacity:1"
       id="path3356"
       inkscape:connector-curvature="0" /><path
       d="m 361.555,241.321 27.807,0 0,-27.807 -27.807,0 0,27.807 z"
       style="fill:#231f20;fill-opacity:1;fill-rule:nonzero;stroke:none"
       id="path3358"
       inkscape:connector-curvature="0" /><path
       d="m 361.555,241.321 27.807,0 0,-27.807 -27.807,0 0,27.807 z"
       style="fill:#231f20;fill-opacity:1;fill-rule:nonzero;stroke:#231f20;stroke-width:1;stroke-linecap:butt;stroke-linejoin:miter;stroke-miterlimit:10;stroke-dasharray:none;stroke-opacity:1"
       id="path3360"
       inkscape:connector-curvature="0" /><g
       id="g3362"><g
         id="g3364"
         clip-path="url(#clipPath3366)"><g
           id="g3370"
           transform="translate(108.1727,399.2948)"><path
             d="m 0,0 c 19.417,-19.417 19.417,-51.3 0,-70.717 -19.417,-19.417 -51.3,-19.417 -70.717,0 -19.417,19.417 -19.417,51.3 0,70.717 C -51.3,19.417 -19.417,19.657 0,0"
             style="fill:#231f20;fill-opacity:1;fill-rule:nonzero;stroke:none"
             id="path3372"
             inkscape:connector-curvature="0" /></g><g
           id="g3374"
           transform="translate(108.1727,399.2948)"><path
             d="m 0,0 c 19.417,-19.417 19.417,-51.3 0,-70.717 -19.417,-19.417 -51.3,-19.417 -70.717,0 -19.417,19.417 -19.417,51.3 0,70.717 C -51.3,19.657 -19.417,19.657 0,0"
             style="fill:#ffffff;fill-opacity:1;fill-rule:nonzero;stroke:#231f20;stroke-width:1;stroke-linecap:butt;stroke-linejoin:miter;stroke-miterlimit:10;stroke-dasharray:none;stroke-opacity:1"
             id="path3376"
             inkscape:connector-curvature="0" /></g><g
           id="g3378"
           transform="translate(280.5299,266.0116)"><path
             d="m 0,0 c 19.417,-19.417 19.417,-51.3 0,-70.717 -19.417,-19.417 -51.3,-19.417 -70.717,0 -19.417,19.417 -19.417,51.3 0,70.717 C -51.3,19.417 -19.417,19.417 0,0"
             style="fill:#231f20;fill-opacity:1;fill-rule:nonzero;stroke:none"
             id="path3380"
             inkscape:connector-curvature="0" /></g><g
           id="g3382"
           transform="translate(280.5299,266.0116)"><path
             d="m 0,0 c 19.417,-19.417 19.417,-51.3 0,-70.717 -19.417,-19.417 -51.3,-19.417 -70.717,0 -19.417,19.417 -19.417,51.3 0,70.717 C -51.3,19.417 -19.417,19.417 0,0"
             style="fill:#ffffff;fill-opacity:1;fill-rule:nonzero;stroke:#231f20;stroke-width:1;stroke-linecap:butt;stroke-linejoin:miter;stroke-miterlimit:10;stroke-dasharray:none;stroke-opacity:1"
             id="path3384"
             inkscape:connector-curvature="0" /></g><g
           id="g3386"
           transform="translate(108.1727,109.9552)"><path
             d="m 0,0 c 19.417,-19.417 19.417,-51.3 0,-70.717 -19.417,-19.417 -51.3,-19.417 -70.717,0 -19.417,19.417 -19.417,51.3 0,70.717 C -51.3,19.657 -19.417,19.657 0,0"
             style="fill:#231f20;fill-opacity:1;fill-rule:nonzero;stroke:none"
             id="path3388"
             inkscape:connector-curvature="0" /></g><g
           id="g3390"
           transform="translate(108.1727,109.9552)"><path
             d="m 0,0 c 19.417,-19.417 19.417,-51.3 0,-70.717 -19.417,-19.417 -51.3,-19.417 -70.717,0 -19.417,19.417 -19.417,51.3 0,70.717 C -51.3,19.657 -19.417,19.657 0,0"
             style="fill:#a7a5a6;fill-opacity:1;fill-rule:nonzero;stroke:#231f20;stroke-width:1;stroke-linecap:butt;stroke-linejoin:miter;stroke-miterlimit:10;stroke-dasharray:none;stroke-opacity:1"
             id="path3392"
             inkscape:connector-curvature="0" /></g><g
           id="g3394"
           transform="translate(344.295,109.9552)"><path
             d="m 0,0 c 19.417,-19.417 19.417,-51.3 0,-70.717 -19.417,-19.417 -51.3,-19.417 -70.717,0 -19.417,19.417 -19.417,51.3 0,70.717 C -51.3,19.657 -19.657,19.657 0,0"
             style="fill:#231f20;fill-opacity:1;fill-rule:nonzero;stroke:none"
             id="path3396"
             inkscape:connector-curvature="0" /></g><g
           id="g3398"
           transform="translate(344.295,109.9552)"><path
             d="m 0,0 c 19.417,-19.417 19.417,-51.3 0,-70.717 -19.417,-19.417 -51.3,-19.417 -70.717,0 -19.417,19.417 -19.417,51.3 0,70.717 C -51.3,19.657 -19.657,19.657 0,0"
             style="fill:#a7a5a6;fill-opacity:1;fill-rule:nonzero;stroke:#231f20;stroke-width:1;stroke-linecap:butt;stroke-linejoin:miter;stroke-miterlimit:10;stroke-dasharray:none;stroke-opacity:1"
             id="path3400"
             inkscape:connector-curvature="0" /></g><g
           id="g3402"
           transform="translate(73.4136,314.1949)"><path
             d="M 0,0 0.959,-77.908"
             style="fill:#231f20;fill-opacity:1;fill-rule:nonzero;stroke:#231f20;stroke-width:1;stroke-linecap:butt;stroke-linejoin:miter;stroke-miterlimit:10;stroke-dasharray:none;stroke-opacity:1"
             id="path3404"
             inkscape:connector-curvature="0" /></g><g
           id="g3406"
           transform="translate(195.4301,126.4957)"><path
             d="M 0,0 68.799,-30.684"
             style="fill:#231f20;fill-opacity:1;fill-rule:nonzero;stroke:#231f20;stroke-width:1;stroke-linecap:butt;stroke-linejoin:miter;stroke-miterlimit:10;stroke-dasharray:none;stroke-opacity:1"
             id="path3408"
             inkscape:connector-curvature="0" /></g><g
           id="g3410"
           transform="translate(480.6945,399.2948)"><path
             d="m 0,0 c 19.417,-19.417 19.417,-51.3 0,-70.717 -19.417,-19.417 -51.3,-19.417 -70.717,0 -19.417,19.417 -19.417,51.3 0,70.717 C -51.3,19.417 -19.417,19.657 0,0"
             style="fill:#231f20;fill-opacity:1;fill-rule:nonzero;stroke:none"
             id="path3412"
             inkscape:connector-curvature="0" /></g><g
           id="g3414"
           transform="translate(480.6945,399.2948)"><path
             d="m 0,0 c 19.417,-19.417 19.417,-51.3 0,-70.717 -19.417,-19.417 -51.3,-19.417 -70.717,0 -19.417,19.417 -19.417,51.3 0,70.717 C -51.3,19.657 -19.417,19.657 0,0"
             style="fill:#ffffff;fill-opacity:1;fill-rule:nonzero;stroke:#231f20;stroke-width:1;stroke-linecap:butt;stroke-linejoin:miter;stroke-miterlimit:10;stroke-dasharray:none;stroke-opacity:1"
             id="path3416"
             inkscape:connector-curvature="0" /></g><g
           id="g3418"
           transform="translate(243.6134,280.3947)"><path
             d="M 0,0 -0.959,66.642"
             style="fill:#231f20;fill-opacity:1;fill-rule:nonzero;stroke:#231f20;stroke-width:1;stroke-linecap:butt;stroke-linejoin:miter;stroke-miterlimit:10;stroke-dasharray:none;stroke-opacity:1"
             id="path3420"
             inkscape:connector-curvature="0" /></g><g
           id="g3422"
           transform="translate(519.8696,109.9552)"><path
             d="m 0,0 c 19.417,-19.417 19.417,-51.3 0,-70.717 -19.417,-19.417 -51.3,-19.417 -70.717,0 -19.417,19.417 -19.417,51.3 0,70.717 C -51.3,19.657 -19.417,19.657 0,0"
             style="fill:#231f20;fill-opacity:1;fill-rule:nonzero;stroke:none"
             id="path3424"
             inkscape:connector-curvature="0" /></g><g
           id="g3426"
           transform="translate(519.8696,109.9552)"><path
             d="m 0,0 c 19.417,-19.417 19.417,-51.3 0,-70.717 -19.417,-19.417 -51.3,-19.417 -70.717,0 -19.417,19.417 -19.417,51.3 0,70.717 C -51.3,19.657 -19.417,19.657 0,0"
             style="fill:#a7a5a6;fill-opacity:1;fill-rule:nonzero;stroke:#231f20;stroke-width:1;stroke-linecap:butt;stroke-linejoin:miter;stroke-miterlimit:10;stroke-dasharray:none;stroke-opacity:1"
             id="path3428"
             inkscape:connector-curvature="0" /></g><g
           id="g3430"
           transform="translate(422.2033,319.4687)"><path
             d="M 0,0 -40.033,-77.908"
             style="fill:#231f20;fill-opacity:1;fill-rule:nonzero;stroke:#231f20;stroke-width:1;stroke-linecap:butt;stroke-linejoin:miter;stroke-miterlimit:10;stroke-dasharray:none;stroke-opacity:1"
             id="path3432"
             inkscape:connector-curvature="0" /></g><g
           id="g3434"
           transform="translate(116.5628,98.6884)"><path
             d="M 0,0 50.341,26.609"
             style="fill:#231f20;fill-opacity:1;fill-rule:nonzero;stroke:#231f20;stroke-width:1;stroke-linecap:butt;stroke-linejoin:miter;stroke-miterlimit:10;stroke-dasharray:none;stroke-opacity:1"
             id="path3436"
             inkscape:connector-curvature="0" /></g><g
           id="g3438"
           transform="translate(294.913,229.095)"><path
             d="M 0,0 66.642,-0.959"
             style="fill:#231f20;fill-opacity:1;fill-rule:nonzero;stroke:#231f20;stroke-width:1;stroke-linecap:butt;stroke-linejoin:miter;stroke-miterlimit:10;stroke-dasharray:none;stroke-opacity:1"
             id="path3440"
             inkscape:connector-curvature="0" /></g><g
           id="g3442"
           transform="translate(122.5558,363.5768)"><path
             d="M 0,0 105.716,-2.157"
             style="fill:#231f20;fill-opacity:1;fill-rule:nonzero;stroke:#231f20;stroke-width:1;stroke-linecap:butt;stroke-linejoin:miter;stroke-miterlimit:10;stroke-dasharray:none;stroke-opacity:1"
             id="path3444"
             inkscape:connector-curvature="0" /></g><g
           id="g3446"
           transform="translate(217.9635,189.0621)"><path
             d="M 0,0 -27.568,-41.951"
             style="fill:#231f20;fill-opacity:1;fill-rule:nonzero;stroke:#231f20;stroke-width:1;stroke-linecap:butt;stroke-linejoin:miter;stroke-miterlimit:10;stroke-dasharray:none;stroke-opacity:1"
             id="path3448"
             inkscape:connector-curvature="0" /></g><g
           id="g3450"
           transform="translate(256.0787,361.4193)"><path
             d="M 0,0 138.557,2.157"
             style="fill:#231f20;fill-opacity:1;fill-rule:nonzero;stroke:#231f20;stroke-width:1;stroke-linecap:butt;stroke-linejoin:miter;stroke-miterlimit:10;stroke-dasharray:none;stroke-opacity:1"
             id="path3452"
             inkscape:connector-curvature="0" /></g><g
           id="g3454"
           transform="translate(389.3619,214.7119)"><path
             d="M 0,0 58.832,-104.757"
             style="fill:#231f20;fill-opacity:1;fill-rule:nonzero;stroke:#231f20;stroke-width:1;stroke-linecap:butt;stroke-linejoin:miter;stroke-miterlimit:10;stroke-dasharray:none;stroke-opacity:1"
             id="path3456"
             inkscape:connector-curvature="0" /></g><g
           id="g3458"
           transform="translate(75.3314,208.4793)"><path
             d="M 0,0 -1.918,-82.942"
             style="fill:#231f20;fill-opacity:1;fill-rule:nonzero;stroke:#231f20;stroke-width:1;stroke-linecap:butt;stroke-linejoin:miter;stroke-miterlimit:10;stroke-dasharray:none;stroke-opacity:1"
             id="path3460"
             inkscape:connector-curvature="0" /></g><path
           d="m 25.23,645.412 455.17,0 0,-199.935 -455.17,0 0,199.935 z"
           style="fill:none;stroke:#000000;stroke-width:1;stroke-linecap:butt;stroke-linejoin:miter;stroke-miterlimit:10;stroke-dasharray:none;stroke-opacity:1"
           id="path3462"
           inkscape:connector-curvature="0" /><g
           id="g3464"><g
             id="g3466" /><g
             id="g3472"><g
               clip-path="url(#clipPath3468)"
               id="g3474"><text
                 transform="matrix(1,0,0,-1,132.085,604.0303)"
                 style="font-variant:normal;font-weight:normal;font-stretch:normal;font-size:30.93759918px;font-family:KaTeX_Main;-inkscape-font-specification:KaTeX_Main-Regular;writing-mode:lr-tb;fill:#000000;fill-opacity:1;fill-rule:nonzero;stroke:none"
                 id="text3476"><tspan
                   x="0 9.4669056 26.668211 43.869518 57.605812 69.640541 78.241188 93.709991 110.91129 118.6457 135.847 151.3158 168.51711 182.2534"
                   y="0"
                   sodipodi:role="line"
                   id="tspan3478">function node </tspan></text>
</g></g></g><g
           id="g3480"><g
             id="g3482" /><g
             id="g3488"><g
               clip-path="url(#clipPath3484)"
               id="g3490"><text
                 transform="matrix(1,0,0,-1,132.085,536.4385)"
                 style="font-variant:normal;font-weight:normal;font-stretch:normal;font-size:30.93759918px;font-family:KaTeX_Main;-inkscape-font-specification:KaTeX_Main-Regular;writing-mode:lr-tb;fill:#000000;fill-opacity:1;fill-rule:nonzero;stroke:none"
                 id="text3492"><tspan
                   x="0 16.335052 31.803852 43.931393 52.532043 68.000847 85.202148 93.802803 107.5391 115.2735 132.47481 147.9436 165.14491"
                   y="0"
                   sodipodi:role="line"
                   id="tspan3494">variable node</tspan></text>
</g></g></g><g
           id="g3496"><g
             id="g3498" /><g
             id="g3504"><g
               clip-path="url(#clipPath3500)"
               id="g3506"><text
                 transform="matrix(1,0,0,-1,132.085,472.3242)"
                 style="font-variant:normal;font-weight:normal;font-stretch:normal;font-size:30.93759918px;font-family:KaTeX_Main;-inkscape-font-specification:KaTeX_Main-Regular;writing-mode:lr-tb;fill:#000000;fill-opacity:1;fill-rule:nonzero;stroke:none"
                 id="text3508"><tspan
                   x="0 13.736295 30.937599 46.406399"
                   y="0"
                   sodipodi:role="line"
                   id="tspan3510">edge</tspan></text>
</g></g></g><path
           d="m 78.912,619.297 17.789,0 0,-17.789 -17.789,0 0,17.789 z"
           style="fill:#231f20;fill-opacity:1;fill-rule:nonzero;stroke:#231f20;stroke-width:1;stroke-linecap:butt;stroke-linejoin:miter;stroke-miterlimit:10;stroke-dasharray:none;stroke-opacity:1"
           id="path3512"
           inkscape:connector-curvature="0" /><g
           id="g3514"
           transform="translate(71.9513,529.1913)"><path
             d="m 0,0 c -8.895,8.895 -8.895,23.203 0,32.098 8.895,8.894 23.203,8.894 32.098,0 C 40.992,23.203 40.992,8.895 32.098,0 22.816,-8.508 8.508,-8.508 0,0"
             style="fill:#ffffff;fill-opacity:1;fill-rule:nonzero;stroke:#231f20;stroke-width:0.5;stroke-linecap:butt;stroke-linejoin:miter;stroke-miterlimit:10;stroke-dasharray:none;stroke-opacity:1"
             id="path3516"
             inkscape:connector-curvature="0" /></g><g
           id="g3518"><g
             id="g3520" /><g
             id="g3526"><g
               clip-path="url(#clipPath3522)"
               id="g3528"><text
                 transform="matrix(1,0,0,-1,337.0483,604.3906)"
                 style="font-variant:normal;font-weight:normal;font-stretch:normal;font-size:30.93759918px;font-family:KaTeX_Main;-inkscape-font-specification:KaTeX_Main-Regular;writing-mode:lr-tb;fill:#000000;fill-opacity:1;fill-rule:nonzero;stroke:none"
                 id="text3530"><tspan
                   x="0 12.034726 34.371674"
                   y="0"
                   sodipodi:role="line"
                   id="tspan3532">(Φ </tspan></text>
</g></g></g><g
           id="g3534"
           transform="translate(65.377,480.0778)"><path
             d="M 0,0 45.246,0"
             style="fill:#231f20;fill-opacity:1;fill-rule:nonzero;stroke:#231f20;stroke-width:1;stroke-linecap:butt;stroke-linejoin:miter;stroke-miterlimit:10;stroke-dasharray:none;stroke-opacity:1"
             id="path3536"
             inkscape:connector-curvature="0" /></g><g
           id="g3538"><g
             id="g3540" /><g
             id="g3546"><g
               clip-path="url(#clipPath3542)"
               id="g3548"><text
                 transform="matrix(1,0,0,-1,362.8276,595.2598)"
                 style="font-style:italic;font-variant:normal;font-weight:normal;font-stretch:normal;font-size:19.33600044px;font-family:KaTeX_Math;-inkscape-font-specification:KaTeX_Math-Italic;writing-mode:lr-tb;fill:#000000;fill-opacity:1;fill-rule:nonzero;stroke:none"
                 id="text3550"><tspan
                   x="0"
                   y="0"
                   id="tspan3552">A</tspan></text>
</g></g></g><g
           id="g3554"><g
             id="g3556" /><g
             id="g3570"><g
               clip-path="url(#clipPath3558)"
               id="g3572"><g
                 id="g3574"><g
                   id="g3576" /><g
                   id="g3578"><g
                     clip-path="url(#clipPath3562)"
                     id="g3580" /></g></g><g
                 id="g3582"><g
                   id="g3584" /><g
                   id="g3586"><g
                     clip-path="url(#clipPath3566)"
                     id="g3588"><text
                       transform="matrix(1,0,0,-1,404.0796,604.3906)"
                       style="font-style:italic;font-variant:normal;font-weight:normal;font-stretch:normal;font-size:30.93759918px;font-family:KaTeX_Math;-inkscape-font-specification:KaTeX_Math-Italic;writing-mode:lr-tb;fill:#000000;fill-opacity:1;fill-rule:nonzero;stroke:none"
                       id="text3590"><tspan
                         x="0"
                         y="0"
                         id="tspan3592">F</tspan></text>
</g></g></g></g></g></g><g
           id="g3594"><g
             id="g3596" /><g
             id="g3614"><g
               clip-path="url(#clipPath3598)"
               id="g3616"><g
                 id="g3618"><g
                   id="g3620" /><g
                   id="g3622"><g
                     clip-path="url(#clipPath3602)"
                     id="g3624"><text
                       transform="matrix(1,0,0,-1,337.0483,534.2217)"
                       style="font-variant:normal;font-weight:normal;font-stretch:normal;font-size:30.93759918px;font-family:KaTeX_Main;-inkscape-font-specification:KaTeX_Main-Regular;writing-mode:lr-tb;fill:#000000;fill-opacity:1;fill-rule:nonzero;stroke:none"
                       id="text3626"><tspan
                         x="0"
                         y="0"
                         id="tspan3628">(</tspan></text>
</g></g></g><g
                 id="g3630"><g
                   id="g3632" /><g
                   id="g3634"><g
                     clip-path="url(#clipPath3606)"
                     id="g3636"><text
                       transform="matrix(1,0,0,-1,349.0366,534.2217)"
                       style="font-style:italic;font-variant:normal;font-weight:normal;font-stretch:normal;font-size:30.93759918px;font-family:KaTeX_Math;-inkscape-font-specification:KaTeX_Math-Italic;writing-mode:lr-tb;fill:#000000;fill-opacity:1;fill-rule:nonzero;stroke:none"
                       id="text3638"><tspan
                         x="0"
                         y="0"
                         id="tspan3640">v</tspan></text>
</g></g></g><g
                 id="g3642"><g
                   id="g3644" /><g
                   id="g3646"><g
                     clip-path="url(#clipPath3610)"
                     id="g3648" /></g></g></g></g></g><g
           id="g3650"><g
             id="g3652" /><g
             id="g3658"><g
               clip-path="url(#clipPath3654)"
               id="g3660"><text
                 transform="matrix(1,0,0,-1,380.2319,604.3906)"
                 style="font-variant:normal;font-weight:normal;font-stretch:normal;font-size:30.93759918px;font-family:KaTeX_Main;-inkscape-font-specification:KaTeX_Main-Regular;writing-mode:lr-tb;fill:#000000;fill-opacity:1;fill-rule:nonzero;stroke:none"
                 id="text3662"><tspan
                   x="0"
                   y="0"
                   id="tspan3664">∈</tspan></text>
</g></g></g><g
           id="g3666"><g
             id="g3668" /><g
             id="g3674"><g
               clip-path="url(#clipPath3670)"
               id="g3676"><text
                 transform="matrix(1,0,0,-1,362.8276,525.0879)"
                 style="font-style:italic;font-variant:normal;font-weight:normal;font-stretch:normal;font-size:19.33600044px;font-family:KaTeX_Math;-inkscape-font-specification:KaTeX_Math-Italic;writing-mode:lr-tb;fill:#000000;fill-opacity:1;fill-rule:nonzero;stroke:none"
                 id="text3678"><tspan
                   x="0"
                   y="0"
                   id="tspan3680">s</tspan></text>
</g></g></g><g
           id="g3682"><g
             id="g3684" /><g
             id="g3698"><g
               clip-path="url(#clipPath3686)"
               id="g3700"><g
                 id="g3702"><g
                   id="g3704" /><g
                   id="g3706"><g
                     clip-path="url(#clipPath3690)"
                     id="g3708" /></g></g><g
                 id="g3710"><g
                   id="g3712" /><g
                   id="g3714"><g
                     clip-path="url(#clipPath3694)"
                     id="g3716"><text
                       transform="matrix(1,0,0,-1,396.3433,534.2217)"
                       style="font-style:italic;font-variant:normal;font-weight:normal;font-stretch:normal;font-size:30.93759918px;font-family:KaTeX_Math;-inkscape-font-specification:KaTeX_Math-Italic;writing-mode:lr-tb;fill:#000000;fill-opacity:1;fill-rule:nonzero;stroke:none"
                       id="text3718"><tspan
                         x="0"
                         y="0"
                         id="tspan3720">V</tspan></text>
</g></g></g></g></g></g><g
           id="g3722"><g
             id="g3724" /><g
             id="g3742"><g
               clip-path="url(#clipPath3726)"
               id="g3744"><g
                 id="g3746"><g
                   id="g3748" /><g
                   id="g3750"><g
                     clip-path="url(#clipPath3730)"
                     id="g3752"><text
                       transform="matrix(1,0,0,-1,337.0483,470.1074)"
                       style="font-variant:normal;font-weight:normal;font-stretch:normal;font-size:30.93759918px;font-family:KaTeX_Main;-inkscape-font-specification:KaTeX_Main-Regular;writing-mode:lr-tb;fill:#000000;fill-opacity:1;fill-rule:nonzero;stroke:none"
                       id="text3754"><tspan
                         x="0"
                         y="0"
                         id="tspan3756">(</tspan></text>
</g></g></g><g
                 id="g3758"><g
                   id="g3760" /><g
                   id="g3762"><g
                     clip-path="url(#clipPath3734)"
                     id="g3764"><text
                       transform="matrix(1,0,0,-1,349.0347,470.1074)"
                       style="font-style:italic;font-variant:normal;font-weight:normal;font-stretch:normal;font-size:30.93759918px;font-family:KaTeX_Math;-inkscape-font-specification:KaTeX_Math-Italic;writing-mode:lr-tb;fill:#000000;fill-opacity:1;fill-rule:nonzero;stroke:none"
                       id="text3766"><tspan
                         x="0"
                         y="0"
                         id="tspan3768">e</tspan></text>
</g></g></g><g
                 id="g3770"><g
                   id="g3772" /><g
                   id="g3774"><g
                     clip-path="url(#clipPath3738)"
                     id="g3776"><text
                       transform="matrix(1,0,0,-1,425.2204,470.1074)"
                       style="font-variant:normal;font-weight:normal;font-stretch:normal;font-size:30.93759918px;font-family:KaTeX_Main;-inkscape-font-specification:KaTeX_Main-Regular;writing-mode:lr-tb;fill:#000000;fill-opacity:1;fill-rule:nonzero;stroke:none"
                       id="text3778"><tspan
                         x="0"
                         y="0"
                         id="tspan3780">)</tspan></text>
</g></g></g></g></g></g><g
           id="g3782"><g
             id="g3784" /><g
             id="g3790"><g
               clip-path="url(#clipPath3786)"
               id="g3792"><text
                 transform="matrix(1,0,0,-1,372.4956,534.2217)"
                 style="font-variant:normal;font-weight:normal;font-stretch:normal;font-size:30.93759918px;font-family:KaTeX_Main;-inkscape-font-specification:KaTeX_Main-Regular;writing-mode:lr-tb;fill:#000000;fill-opacity:1;fill-rule:nonzero;stroke:none"
                 id="text3794"><tspan
                   x="0"
                   y="0"
                   id="tspan3796">∈</tspan></text>
</g></g></g><g
           id="g3798"><g
             id="g3800" /><g
             id="g3814"><g
               clip-path="url(#clipPath3802)"
               id="g3816"><g
                 id="g3818"><g
                   id="g3820" /><g
                   id="g3822"><g
                     clip-path="url(#clipPath3806)"
                     id="g3824" /></g></g><g
                 id="g3826"><g
                   id="g3828" /><g
                   id="g3830"><g
                     clip-path="url(#clipPath3810)"
                     id="g3832"><text
                       transform="matrix(1,0,0,-1,400.2124,470.1074)"
                       style="font-style:italic;font-variant:normal;font-weight:normal;font-stretch:normal;font-size:30.93759918px;font-family:KaTeX_Math;-inkscape-font-specification:KaTeX_Math-Italic;writing-mode:lr-tb;fill:#000000;fill-opacity:1;fill-rule:nonzero;stroke:none"
                       id="text3834"><tspan
                         x="0"
                         y="0"
                         id="tspan3836">E</tspan></text>
</g></g></g></g></g></g><g
           id="g3838"><g
             id="g3840" /><g
             id="g3846"><g
               clip-path="url(#clipPath3842)"
               id="g3848"><text
                 transform="matrix(1,0,0,-1,378.2964,470.1074)"
                 style="font-variant:normal;font-weight:normal;font-stretch:normal;font-size:30.93759918px;font-family:KaTeX_Main;-inkscape-font-specification:KaTeX_Main-Regular;writing-mode:lr-tb;fill:#000000;fill-opacity:1;fill-rule:nonzero;stroke:none"
                 id="text3850"><tspan
                   x="0"
                   y="0"
                   id="tspan3852">∈</tspan></text>
</g></g></g><g
           id="g3854"><g
             id="g3856" /><g
             id="g3870"><g
               clip-path="url(#clipPath3858)"
               id="g3872"><g
                 id="g3874"><g
                   id="g3876" /><g
                   id="g3878"><g
                     clip-path="url(#clipPath3862)"
                     id="g3880"><text
                       transform="matrix(1,0,0,-1,363.7495,468.6074)"
                       style="font-style:italic;font-variant:normal;font-weight:normal;font-stretch:normal;font-size:12.84490013px;font-family:KaTeX_Math;-inkscape-font-specification:KaTeX_Math-Italic;writing-mode:lr-tb;fill:#000000;fill-opacity:1;fill-rule:nonzero;stroke:none"
                       id="text3882"><tspan
                         x="0"
                         y="0"
                         id="tspan3884">v</tspan></text>
</g></g></g><g
                 id="g3886"><g
                   id="g3888" /><g
                   id="g3890"><g
                     clip-path="url(#clipPath3866)"
                     id="g3892" /></g></g></g></g></g><g
           id="g3894"><g
             id="g3896" /><g
             id="g3902"><g
               clip-path="url(#clipPath3898)"
               id="g3904"><text
                 transform="matrix(1,0,0,-1,369.6401,464.8164)"
                 style="font-style:italic;font-variant:normal;font-weight:normal;font-stretch:normal;font-size:8.02789974px;font-family:KaTeX_Math;-inkscape-font-specification:KaTeX_Math-Italic;writing-mode:lr-tb;fill:#000000;fill-opacity:1;fill-rule:nonzero;stroke:none"
                 id="text3906"><tspan
                   x="0"
                   y="0"
                   id="tspan3908">s</tspan></text>
</g></g></g><g
           id="g3910"><g
             id="g3912" /><g
             id="g3918"><g
               clip-path="url(#clipPath3914)"
               id="g3920"><text
                 transform="matrix(1,0,0,-1,363.7495,483.4678)"
                 style="font-variant:normal;font-weight:normal;font-stretch:normal;font-size:12.84490013px;font-family:KaTeX_Main;-inkscape-font-specification:KaTeX_Main-Regular;writing-mode:lr-tb;fill:#000000;fill-opacity:1;fill-rule:nonzero;stroke:none"
                 id="text3922"><tspan
                   x="0"
                   y="0"
                   id="tspan3924">Φ</tspan></text>
</g></g></g><g
           id="g3926"><g
             id="g3928" /><g
             id="g3934"><g
               clip-path="url(#clipPath3930)"
               id="g3936"><text
                 transform="matrix(1,0,0,-1,369.6401,479.6748)"
                 style="font-style:italic;font-variant:normal;font-weight:normal;font-stretch:normal;font-size:8.02789974px;font-family:KaTeX_Math;-inkscape-font-specification:KaTeX_Math-Italic;writing-mode:lr-tb;fill:#000000;fill-opacity:1;fill-rule:nonzero;stroke:none"
                 id="text3938"><tspan
                   x="0"
                   y="0"
                   id="tspan3940">A</tspan></text>
</g></g></g><g
           id="g3942"><g
             id="g3944" /><g
             id="g3950"><g
               clip-path="url(#clipPath3946)"
               id="g3952"><text
                 transform="matrix(1,0,0,-1,421.1597,534.2217)"
                 style="font-variant:normal;font-weight:normal;font-stretch:normal;font-size:30.93759918px;font-family:KaTeX_Main;-inkscape-font-specification:KaTeX_Main-Regular;writing-mode:lr-tb;fill:#000000;fill-opacity:1;fill-rule:nonzero;stroke:none"
                 id="text3954"><tspan
                   x="0"
                   y="0"
                   id="tspan3956">)</tspan></text>
</g></g></g><g
           id="g3958"><g
             id="g3960" /><g
             id="g3966"><g
               clip-path="url(#clipPath3962)"
               id="g3968"><text
                 transform="matrix(1,0,0,-1,427.4429,604.3906)"
                 style="font-variant:normal;font-weight:normal;font-stretch:normal;font-size:30.93759918px;font-family:KaTeX_Main;-inkscape-font-specification:KaTeX_Main-Regular;writing-mode:lr-tb;fill:#000000;fill-opacity:1;fill-rule:nonzero;stroke:none"
                 id="text3970"><tspan
                   x="0"
                   y="0"
                   id="tspan3972">)</tspan></text>
</g></g></g></g></g></g></svg>