<?xml version="1.0" encoding="utf-8"?>
<!-- Generator: Adobe Illustrator 18.1.1, SVG Export Plug-In . SVG Version: 6.00 Build 0)  -->
<svg version="1.0" id="svg6068" xmlns="http://www.w3.org/2000/svg" xmlns:xlink="http://www.w3.org/1999/xlink" x="0px" y="0px"
	 viewBox="-199.6 -6.6 1000 1000" enable-background="new -199.6 -6.6 1000 1000" xml:space="preserve">
<path id="path4190" fill="#231F20" d="M-102.3,590.8h47.5v47.5h-47.5V590.8z"/>
<g id="g4192">
	<path id="path4194" fill="#231F20" stroke="#231F20" stroke-miterlimit="10" d="M-101.9,590.8h47.5v47.5h-47.5V590.8z"/>
</g>
<path id="path4196" fill="#231F20" d="M78.4,743.2h47.5v47.5H78.4V743.2z"/>
<g id="g4198">
	<path id="path4200" fill="#231F20" stroke="#231F20" stroke-miterlimit="10" d="M78.4,743.2h47.5v47.5H78.4V743.2z"/>
</g>
<path id="path4202" fill="#231F20" d="M183.6,354h47.5v47.5h-47.5V354z"/>
<g id="g4204">
	<path id="path4206" fill="#231F20" stroke="#231F20" stroke-miterlimit="10" d="M183.6,354h47.5v47.5h-47.5V354z"/>
</g>
<path id="path4208" fill="#231F20" d="M411.4,582.2h47.5v47.5h-47.5V582.2z"/>
<g id="g4210">
	<path id="path4212" fill="#231F20" stroke="#231F20" stroke-miterlimit="10" d="M411.4,582.2h47.5v47.5h-47.5V582.2z"/>
</g>
<path id="path4214" fill="#231F20" d="M-21.6,312.2c33.2,33.2,33.2,87.7,0,120.8s-87.7,33.2-120.8,0s-33.2-87.7,0-120.8
	S-54.8,278.7-21.6,312.2"/>
<g id="g4216">
	<path id="path4218" fill="#FFFFFF" stroke="#231F20" stroke-miterlimit="10" d="M-21.6,312.2c33.2,33.2,33.2,87.7,0,120.8
		s-87.7,33.2-120.8,0s-33.2-87.7,0-120.8C-109.3,278.7-54.8,278.7-21.6,312.2"/>
</g>
<path id="path4220" fill="#231F20" d="M272.9,540c33.2,33.2,33.2,87.7,0,120.8c-33.2,33.2-87.7,33.2-120.8,0
	c-33.2-33.2-33.2-87.7,0-120.8S239.8,506.8,272.9,540"/>
<g id="g4222">
	<path id="path4224" fill="#FFFFFF" stroke="#231F20" stroke-miterlimit="10" d="M272.9,540c33.2,33.2,33.2,87.7,0,120.8
		c-33.2,33.2-87.7,33.2-120.8,0c-33.2-33.2-33.2-87.7,0-120.8S239.8,506.8,272.9,540"/>
</g>
<path id="path4226" fill="#231F20" d="M-21.6,806.7c33.2,33.2,33.2,87.7,0,120.8s-87.7,33.2-120.8,0s-33.2-87.7,0-120.8
	C-109.3,773.1-54.8,773.1-21.6,806.7"/>
<g id="g4228">
	<path id="path4230" fill="#A7A5A6" stroke="#231F20" stroke-miterlimit="10" d="M-21.6,806.7c33.2,33.2,33.2,87.7,0,120.8
		s-87.7,33.2-120.8,0s-33.2-87.7,0-120.8C-109.3,773.1-54.8,773.1-21.6,806.7"/>
</g>
<path id="path4232" fill="#231F20" d="M381.9,806.7c33.2,33.2,33.2,87.7,0,120.8s-87.7,33.2-120.8,0s-33.2-87.7,0-120.8
	C294.2,773.1,348.3,773.1,381.9,806.7"/>
<g id="g4234">
	<path id="path4236" fill="#A7A5A6" stroke="#231F20" stroke-miterlimit="10" d="M381.9,806.7c33.2,33.2,33.2,87.7,0,120.8
		s-87.7,33.2-120.8,0s-33.2-87.7,0-120.8C294.2,773.1,348.3,773.1,381.9,806.7"/>
</g>
<g id="g4238">
	<path id="path4240" fill="#231F20" stroke="#231F20" stroke-miterlimit="10" d="M-81,457.7l1.6,133.1"/>
</g>
<g id="g4242">
	<path id="path4244" fill="#231F20" stroke="#231F20" stroke-miterlimit="10" d="M127.5,778.4l117.6,52.4"/>
</g>
<path id="path4246" fill="#231F20" d="M615,312.2c33.2,33.2,33.2,87.7,0,120.8s-87.7,33.2-120.8,0s-33.2-87.7,0-120.8
	S581.8,278.7,615,312.2"/>
<g id="g4248">
	<path id="path4250" fill="#FFFFFF" stroke="#231F20" stroke-miterlimit="10" d="M615,312.2c33.2,33.2,33.2,87.7,0,120.8
		s-87.7,33.2-120.8,0s-33.2-87.7,0-120.8C527.3,278.7,581.8,278.7,615,312.2"/>
</g>
<g id="g4252">
	<path id="path4254" fill="#231F20" stroke="#231F20" stroke-miterlimit="10" d="M209.9,515.4l-1.6-113.9"/>
</g>
<path id="path4256" fill="#231F20" d="M733.2,806.7c33.2,33.2,33.2,87.7,0,120.8s-87.7,33.2-120.8,0s-33.2-87.7,0-120.8
	C645.6,773.1,700,773.1,733.2,806.7"/>
<g id="g4258">
	<path id="path4260" fill="#A7A5A6" stroke="#231F20" stroke-miterlimit="10" d="M733.2,806.7c33.2,33.2,33.2,87.7,0,120.8
		s-87.7,33.2-120.8,0s-33.2-87.7,0-120.8C645.6,773.1,700,773.1,733.2,806.7"/>
</g>
<g id="g4262">
	<path id="path4264" fill="#231F20" stroke="#231F20" stroke-miterlimit="10" d="M515,448.7l-68.4,133.1"/>
</g>
<g id="g4266">
	<path id="path4268" fill="#231F20" stroke="#231F20" stroke-miterlimit="10" d="M-7.3,826l86-45.5"/>
</g>
<g id="g4270">
	<path id="path4272" fill="#231F20" stroke="#231F20" stroke-miterlimit="10" d="M297.5,603.1l113.9,1.6"/>
</g>
<g id="g4274">
	<path id="path4276" fill="#231F20" stroke="#231F20" stroke-miterlimit="10" d="M3,373.3l180.7,3.7"/>
</g>
<g id="g4278">
	<path id="path4280" fill="#231F20" stroke="#231F20" stroke-miterlimit="10" d="M166,671.5l-47.1,71.7"/>
</g>
<g id="g4282">
	<path id="path4284" fill="#231F20" stroke="#231F20" stroke-miterlimit="10" d="M231.2,377l236.8-3.7"/>
</g>
<g id="g4286">
	<path id="path4288" fill="#231F20" stroke="#231F20" stroke-miterlimit="10" d="M458.9,627.7l151.8,179"/>
</g>
<g id="g4290">
	<path id="path4292" fill="#231F20" stroke="#231F20" stroke-miterlimit="10" d="M-77.7,638.3L-81,780.1"/>
</g>
<rect x="-163.3" y="28.4" fill="none" stroke="#000000" stroke-miterlimit="10" width="482.2" height="211.8"/>
<rect x="-49.9" y="49.5" fill="none" width="204.8" height="50.4"/>
<g enable-background="new    ">
	<path d="M-41.2,72.2c-0.4-0.1-1.8-0.1-4.2-0.1c-2.1,0-3.4,0-3.7,0.1h-0.3v-1.5h0.5c0.6,0,1.1,0,1.6-0.1c0.2-0.1,0.3-0.2,0.4-0.4
		c0,0,0-1.8,0-5.4v-5.3h-2.3v-1.5h2.3v-2.2l0-2.2l0.1-0.3c0.3-1.2,1-2.2,1.9-2.9c0.9-0.7,2-1.2,3.3-1.3c0,0,0.1,0,0.3,0
		c0.2,0,0.3,0,0.4,0c0.8,0,1.4,0.3,1.9,0.8c0.5,0.5,0.8,1.1,0.8,1.8c0,0.5-0.2,0.9-0.5,1.2c-0.3,0.3-0.7,0.5-1.2,0.5
		s-0.9-0.2-1.2-0.5c-0.3-0.3-0.5-0.7-0.5-1.2c0-0.4,0.2-0.8,0.6-1.3h-0.1c-0.2,0-0.4,0-0.7,0c-0.5,0.1-1,0.4-1.4,0.8
		c-0.4,0.4-0.7,1-1,1.7c-0.1,0.4-0.2,1.5-0.2,3.1v2.2h3.6v1.5h-3.5v5.2c0,3.5,0,5.3,0,5.4c0.1,0.2,0.2,0.3,0.4,0.3
		c0.2,0.1,0.8,0.1,1.7,0.2h1v1.5H-41.2z"/>
	<path d="M-36.7,57.9c0.4,0,0.8,0,1.2-0.1c0.4,0,0.8-0.1,1-0.1c0.2,0,0.4,0,0.4,0h0.1v5.9c0,4,0,6.1,0.1,6.2c0.1,0.5,0.3,0.8,0.5,1
		c0.4,0.3,1.1,0.5,2,0.5c0.6,0,1.1-0.1,1.5-0.3c1.3-0.6,2-1.8,2.2-3.6c0,0,0-0.2,0-0.6c0-0.3,0-0.8,0-1.3c0-0.5,0-1,0-1.5s0-1,0-1.5
		c0-0.5,0-1,0-1.3l0-0.5c-0.1-0.4-0.2-0.7-0.5-0.8c-0.3-0.1-0.7-0.2-1.5-0.3h-0.6v-1.5c0,0,0.9-0.1,2.5-0.2c1.6-0.1,2.5-0.2,2.6-0.2
		h0.2v5.8c0,3.9,0,5.9,0,6c0.1,0.4,0.2,0.7,0.5,0.9c0.3,0.1,0.7,0.2,1.5,0.3h0.6v1.5c0,0-0.9,0.1-2.5,0.2c-1.6,0.1-2.4,0.2-2.5,0.2
		h-0.2v-2.3c-0.9,1.1-1.8,1.8-2.7,2c-0.4,0.2-1,0.2-1.7,0.2c-1.4,0-2.5-0.3-3.2-0.8c-0.8-0.5-1.3-1.3-1.5-2.5c0-0.2,0-1.6-0.1-4.5
		c0-2.4,0-3.7,0-4c0-0.3-0.1-0.5-0.2-0.7c-0.2-0.3-0.9-0.5-2-0.5h-0.4v-0.8c0-0.5,0-0.8,0.1-0.8l0.4,0c0.2,0,0.5,0,1-0.1
		C-37.5,58-37.1,57.9-36.7,57.9z"/>
	<path d="M-15.7,70.2c0.2,0.3,0.7,0.5,1.5,0.5h0.5h0.5v1.5h-0.3c-0.3-0.1-1.5-0.1-3.7-0.1s-3.4,0-3.7,0.1h-0.3v-1.5h0.5h0.5
		c0.9,0,1.4-0.2,1.5-0.5V70c0-0.2,0-0.4,0-0.8c0-0.3,0-0.7,0-1c0-0.4,0-0.8,0-1.3c0-0.5,0-0.9,0-1.4c0-0.7,0-1.4,0-2.2
		c0-0.8,0-1.4,0-1.9v-0.8c-0.1-0.4-0.2-0.7-0.5-0.8c-0.3-0.1-0.7-0.2-1.5-0.3h-0.6v-0.8c0-0.5,0-0.8,0.1-0.8l0.3,0
		c0.2,0,0.5,0,0.9-0.1c0.4,0,0.8,0,1.2-0.1c0.4,0,0.8,0,1.2-0.1c0.4,0,0.7-0.1,1-0.1c0.2,0,0.3,0,0.4,0h0.1V59c0,0.8,0,1.2,0,1.2
		l0,0c1.2-1.7,2.9-2.5,5-2.5c2.5,0.1,3.9,1.3,4.2,3.7c0,0.2,0,1.7,0,4.6c0,2.8,0,4.2,0,4.3c0.1,0.2,0.2,0.3,0.4,0.4
		c0.5,0.1,1,0.1,1.6,0.1h0.5v1.5h-0.3c-0.3-0.1-1.5-0.1-3.7-0.1s-3.4,0-3.7,0.1H-12v-1.5h0.5h0.3c1.2,0,1.7-0.2,1.7-0.5
		c0,0,0-1.6,0-4.5c0-2.9,0-4.5-0.1-4.7c-0.2-0.7-0.4-1.2-0.7-1.5c-0.3-0.3-0.9-0.5-1.6-0.5c-1,0-1.8,0.4-2.6,1.1
		c-0.8,0.8-1.2,1.7-1.3,2.9c0,0,0,0.2,0,0.6s0,0.9,0,1.5c0,0.6,0,1.1,0,1.7c0,0.3,0,0.7,0,1s0,0.7,0,1c0,0.3,0,0.5,0,0.8
		c0,0.2,0,0.4,0,0.6V70.2z"/>
	<path d="M9.1,61.7c-0.3,0.3-0.8,0.5-1.3,0.5S6.9,62,6.5,61.7c-0.3-0.3-0.5-0.7-0.5-1.2c0-0.5,0.2-0.9,0.5-1.2
		c0.1-0.1,0.2-0.2,0.1-0.2c0,0-0.1,0-0.3-0.1c-0.6-0.1-1.1-0.1-1.6-0.1c-1.1,0-2,0.3-2.6,1c-1,1-1.5,2.7-1.5,5.1
		c0,1.8,0.3,3.2,1,4.2c0.9,1.3,2.1,2,3.6,2c0.5,0,1-0.1,1.4-0.3c0.9-0.5,1.6-1.3,1.9-2.6c0-0.2,0.1-0.3,0.2-0.3C8.8,68,9,68,9.3,68
		h0.5c0.1,0.1,0.2,0.2,0.2,0.3c0,0.4-0.3,1.1-0.8,1.9c-1.1,1.6-2.6,2.4-4.6,2.4c-1.1,0-2.1-0.3-3.1-0.8c-2.2-1.1-3.5-3-3.9-5.6
		c0-0.1,0-0.5,0-1s0-0.9,0-1.1c0.3-2.1,1.2-3.7,2.7-5c1.3-1,2.8-1.6,4.4-1.6c2.8,0,4.5,0.7,4.9,2.2c0.1,0.2,0.1,0.4,0.1,0.8
		C9.6,61,9.4,61.4,9.1,61.7z"/>
	<path d="M15.5,52.5V52h1.3v6h4.4v1.5h-4.4v4.7c0,2.7,0,4.3,0,4.6c0,0.4,0.1,0.7,0.2,1c0.3,0.9,0.8,1.3,1.6,1.3c1,0,1.6-0.8,1.8-2.3
		c0-0.2,0-0.7,0-1.5v-1.1h1.3v1.1c0,1-0.1,1.7-0.2,2.2c-0.2,0.9-0.7,1.6-1.2,2.1c-0.6,0.5-1.3,0.8-2.3,0.8c-1.2,0-2.1-0.3-2.8-1
		c-0.7-0.6-1.1-1.5-1.2-2.6c0-0.2,0-1.8,0-4.8v-4.5h-2.6v-1.2h0.3c0.8-0.1,1.5-0.4,2.1-1C14.8,56.3,15.4,54.7,15.5,52.5z"/>
	<path d="M31.7,72.2c-0.2-0.1-1.4-0.1-3.4-0.1c-2,0-3.2,0-3.6,0.1h-0.3v-1.5H25c0.6,0,1.1,0,1.6-0.1c0.2-0.1,0.3-0.2,0.4-0.4
		c0,0,0-1.6,0-4.8c0-3.3,0-5-0.1-5.2c-0.2-0.4-0.8-0.7-1.9-0.7h-0.4v-0.8c0-0.5,0-0.8,0.1-0.8l0.3,0c0.2,0,0.5,0,0.9-0.1
		c0.4,0,0.8,0,1.2-0.1c0.4,0,0.8,0,1.2-0.1c0.4,0,0.7-0.1,1-0.1c0.2,0,0.3,0,0.4,0h0.1v12.5c0.1,0.2,0.2,0.4,0.4,0.4
		c0.2,0.1,0.5,0.1,1.1,0.1H32v1.5H31.7z M27.9,50.3c0.5,0,1,0.2,1.3,0.6c0.3,0.3,0.5,0.8,0.5,1.4c0,0.8-0.3,1.3-0.9,1.7
		c-0.3,0.2-0.6,0.3-1,0.3c-0.4,0-0.8-0.1-1.1-0.3c-0.6-0.3-0.9-0.9-0.9-1.7c0-0.6,0.2-1.1,0.6-1.4C26.8,50.5,27.3,50.3,27.9,50.3z"
		/>
	<path d="M33.6,65.2c0-2,0.6-3.7,1.9-5.1c1.3-1.4,2.8-2.3,4.6-2.5c0.3,0,0.6-0.1,0.8-0.1c1.9,0,3.5,0.7,4.9,2.1
		c1.5,1.5,2.3,3.4,2.3,5.5c0,0.4-0.1,1-0.2,1.5c-0.3,1.4-0.9,2.6-1.9,3.6c-1,1-2.1,1.7-3.5,2c-0.5,0.1-1.1,0.2-1.7,0.2
		c-0.7,0-1.2-0.1-1.7-0.2c-1.6-0.4-3-1.3-4-2.6C34.2,68.4,33.6,66.9,33.6,65.2z M41.5,58.8c-0.1,0-0.3,0-0.5,0
		c-0.7,0-1.3,0.1-1.9,0.4c-1.2,0.6-2,1.8-2.2,3.6c0,0.4-0.1,1.1-0.1,2.1c0,2.1,0.2,3.6,0.6,4.4c0.7,1.3,1.8,2,3.4,2
		c2.7,0,4-1.8,4-5.3v-1c0-1.4-0.1-2.4-0.2-2.9C44.4,60.2,43.3,59.2,41.5,58.8z"/>
	<path d="M55.3,70.2c0.2,0.3,0.7,0.5,1.5,0.5h0.5h0.5v1.5h-0.3c-0.3-0.1-1.5-0.1-3.7-0.1s-3.4,0-3.7,0.1h-0.3v-1.5h0.5h0.5
		c0.9,0,1.4-0.2,1.5-0.5V70c0-0.2,0-0.4,0-0.8c0-0.3,0-0.7,0-1c0-0.4,0-0.8,0-1.3c0-0.5,0-0.9,0-1.4c0-0.7,0-1.4,0-2.2
		c0-0.8,0-1.4,0-1.9v-0.8c-0.1-0.4-0.2-0.7-0.5-0.8c-0.3-0.1-0.7-0.2-1.5-0.3h-0.6v-0.8c0-0.5,0-0.8,0.1-0.8l0.3,0
		c0.2,0,0.5,0,0.9-0.1c0.4,0,0.8,0,1.2-0.1c0.4,0,0.8,0,1.2-0.1c0.4,0,0.7-0.1,1-0.1c0.2,0,0.3,0,0.4,0H55V59c0,0.8,0,1.2,0,1.2l0,0
		c1.2-1.7,2.9-2.5,5-2.5c2.5,0.1,3.9,1.3,4.2,3.7c0,0.2,0,1.7,0,4.6c0,2.8,0,4.2,0,4.3c0.1,0.2,0.2,0.3,0.4,0.4
		c0.5,0.1,1,0.1,1.6,0.1h0.5v1.5h-0.3c-0.3-0.1-1.5-0.1-3.7-0.1s-3.4,0-3.7,0.1H59v-1.5h0.5h0.3c1.2,0,1.7-0.2,1.7-0.5
		c0,0,0-1.6,0-4.5c0-2.9,0-4.5-0.1-4.7c-0.2-0.7-0.4-1.2-0.7-1.5c-0.3-0.3-0.9-0.5-1.6-0.5c-1,0-1.8,0.4-2.6,1.1
		c-0.8,0.8-1.2,1.7-1.3,2.9c0,0,0,0.2,0,0.6s0,0.9,0,1.5c0,0.6,0,1.1,0,1.7c0,0.3,0,0.7,0,1s0,0.7,0,1c0,0.3,0,0.5,0,0.8
		c0,0.2,0,0.4,0,0.6V70.2z"/>
	<path d="M81.7,70.2c0.2,0.3,0.7,0.5,1.5,0.5h0.5h0.5v1.5H84c-0.3-0.1-1.5-0.1-3.7-0.1c-2.2,0-3.4,0-3.7,0.1h-0.3v-1.5h0.5h0.5
		c0.9,0,1.4-0.2,1.5-0.5V70c0-0.2,0-0.4,0-0.8c0-0.3,0-0.7,0-1c0-0.4,0-0.8,0-1.3c0-0.5,0-0.9,0-1.4c0-0.7,0-1.4,0-2.2
		c0-0.8,0-1.4,0-1.9v-0.8c-0.1-0.4-0.2-0.7-0.5-0.8c-0.3-0.1-0.7-0.2-1.5-0.3h-0.6v-0.8c0-0.5,0-0.8,0.1-0.8l0.3,0
		c0.2,0,0.5,0,0.9-0.1c0.4,0,0.8,0,1.2-0.1c0.4,0,0.8,0,1.2-0.1c0.4,0,0.7-0.1,1-0.1c0.2,0,0.3,0,0.4,0h0.1V59c0,0.8,0,1.2,0,1.2
		l0,0c1.2-1.7,2.9-2.5,5-2.5c2.5,0.1,3.9,1.3,4.2,3.7c0,0.2,0,1.7,0,4.6c0,2.8,0,4.2,0,4.3c0.1,0.2,0.2,0.3,0.4,0.4
		c0.5,0.1,1,0.1,1.6,0.1h0.5v1.5H93c-0.3-0.1-1.5-0.1-3.7-0.1c-2.2,0-3.4,0-3.7,0.1h-0.3v-1.5H86h0.3c1.2,0,1.7-0.2,1.7-0.5
		c0,0,0-1.6,0-4.5c0-2.9,0-4.5-0.1-4.7c-0.2-0.7-0.4-1.2-0.7-1.5c-0.3-0.3-0.9-0.5-1.6-0.5c-1,0-1.8,0.4-2.6,1.1
		c-0.8,0.8-1.2,1.7-1.3,2.9c0,0,0,0.2,0,0.6s0,0.9,0,1.5c0,0.6,0,1.1,0,1.7c0,0.3,0,0.7,0,1s0,0.7,0,1c0,0.3,0,0.5,0,0.8
		c0,0.2,0,0.4,0,0.6V70.2z"/>
	<path d="M94.7,65.2c0-2,0.6-3.7,1.9-5.1c1.3-1.4,2.8-2.3,4.6-2.5c0.3,0,0.6-0.1,0.8-0.1c1.9,0,3.5,0.7,4.9,2.1
		c1.5,1.5,2.3,3.4,2.3,5.5c0,0.4-0.1,1-0.2,1.5c-0.3,1.4-0.9,2.6-1.9,3.6c-1,1-2.1,1.7-3.5,2c-0.5,0.1-1.1,0.2-1.7,0.2
		c-0.7,0-1.2-0.1-1.7-0.2c-1.6-0.4-3-1.3-4-2.6C95.2,68.4,94.7,66.9,94.7,65.2z M102.5,58.8c-0.1,0-0.3,0-0.5,0
		c-0.7,0-1.3,0.1-1.9,0.4c-1.2,0.6-2,1.8-2.2,3.6c0,0.4-0.1,1.1-0.1,2.1c0,2.1,0.2,3.6,0.6,4.4c0.7,1.3,1.8,2,3.4,2
		c2.7,0,4-1.8,4-5.3v-1c0-1.4-0.1-2.4-0.2-2.9C105.4,60.2,104.3,59.2,102.5,58.8z"/>
	<path d="M118.1,57.7c1.6,0,3.1,0.5,4.3,1.6V56c0-2.3,0-3.5,0-3.5c-0.1-0.4-0.2-0.7-0.5-0.8c-0.3-0.1-0.7-0.2-1.5-0.3h-0.6v-0.8
		c0-0.5,0-0.8,0.1-0.8l0.3,0c0.2,0,0.5,0,1-0.1c0.4,0,0.8,0,1.2-0.1c0.4,0,0.8,0,1.2-0.1c0.4,0,0.8-0.1,1-0.1c0.2,0,0.3,0,0.4,0h0.1
		v10c0,6.7,0,10.1,0,10.1c0.1,0.4,0.2,0.7,0.5,0.9c0.3,0.1,0.7,0.2,1.5,0.3h0.6v1.5c0,0-0.9,0.1-2.5,0.2c-1.6,0.1-2.5,0.2-2.6,0.2
		h-0.2v-1.8l-0.3,0.2c-1.2,1-2.7,1.6-4.3,1.6c-1.5,0-2.9-0.5-4.1-1.5c-1.4-1.2-2.2-2.8-2.5-4.7c0-0.2,0-0.6,0-1.1
		c0-2.1,0.7-3.9,2-5.3C114.6,58.4,116.3,57.7,118.1,57.7z M122.4,61c-1-1.4-2.2-2.1-3.7-2.1c-1.1,0-2,0.4-2.9,1.2
		c-0.5,0.6-0.9,1.2-1.1,2c-0.2,0.8-0.3,1.8-0.3,3.2c0,2.4,0.5,4.1,1.4,5c0.7,0.7,1.5,1.1,2.6,1.1c0.8,0,1.5-0.2,2.2-0.6
		c0.7-0.4,1.3-1,1.7-1.7l0.1-0.2V61z"/>
	<path d="M142,64.2c0,0.2-0.1,0.3-0.2,0.5h-9.2v0.5c0,1.6,0.2,2.8,0.7,3.7c0.8,1.6,2.1,2.4,4.1,2.4c0.9,0,1.7-0.3,2.4-1
		c0.4-0.4,0.8-1,1-1.7c0.1-0.2,0.1-0.4,0.2-0.5c0.1-0.1,0.2-0.1,0.5-0.1c0.4,0,0.7,0.1,0.7,0.3c0,0.1,0,0.2-0.1,0.4
		c-0.4,1.1-1.1,2.1-2,2.8c-0.9,0.7-2,1.1-3.3,1.1c-0.4,0-0.9-0.1-1.4-0.2c-1.2-0.2-2.4-0.8-3.3-1.7c-1-0.9-1.7-2-2.1-3.2
		c-0.3-0.8-0.4-1.6-0.4-2.4c0-2,0.6-3.7,1.8-5.1c1.2-1.4,2.6-2.2,4.4-2.4c0.1,0,0.2,0,0.5,0c2,0,3.5,0.6,4.5,1.8
		C141.4,60.4,142,62.1,142,64.2z M139.3,63.2c-0.2-2.4-1-3.8-2.4-4.3c-0.2-0.1-0.4-0.1-0.7-0.1c-1.1,0-2.1,0.5-2.8,1.6
		c-0.4,0.7-0.7,1.7-0.9,2.9v0.2h6.8V63.2z"/>
</g>
<rect x="-49.9" y="121.2" fill="none" width="204.4" height="50.4"/>
<g enable-background="new    ">
	<path d="M-39.1,129.7c0.1,0,0.6,0.1,1.6,0.1h1.2c1.2,0,2.1,0,2.7-0.1h0.2v1.5h-0.4c-1.2,0.1-2,0.5-2.4,1.3c0,0.1-0.8,2-2.2,5.7
		c-1.4,3.7-2.2,5.6-2.2,5.7c-0.1,0.2-0.4,0.3-0.8,0.3c-0.4,0-0.7-0.1-0.8-0.3c-3.1-7.9-4.6-11.9-4.6-12c-0.1-0.2-0.2-0.4-0.4-0.5
		c-0.2-0.1-0.3-0.1-0.4-0.2s-0.5,0-1-0.1h-0.8v-1.5h0.2c0.2,0.1,1.3,0.1,3.2,0.1c2.1,0,3.3,0,3.6-0.1h0.3v1.5h-0.5
		c-0.9,0-1.3,0.2-1.4,0.5c0,0.1,0.6,1.6,1.7,4.5l1.7,4.3c0.7-1.7,1.7-4.3,3-7.8v-0.3c0-0.3-0.1-0.6-0.4-0.9c-0.3-0.2-0.6-0.3-1-0.3
		h-0.1v-1.5H-39.1z"/>
	<path d="M-27.8,133.3c-0.3,0.4-0.8,0.5-1.3,0.5c-0.5,0-0.9-0.2-1.2-0.5c-0.3-0.3-0.5-0.8-0.5-1.2c0-0.3,0.1-0.7,0.3-1
		c0.3-0.6,0.9-1,1.7-1.4c0.9-0.3,1.9-0.5,3.1-0.5c1.4,0,2.7,0.3,3.8,1c1.1,0.7,1.8,1.5,2.1,2.6c0.1,0.3,0.2,0.7,0.2,1
		c0,0.4,0,1.6,0,3.8c0,2.1,0,3.4,0,3.8c0,0.4,0.1,0.6,0.2,0.8c0.1,0.3,0.3,0.5,0.7,0.5c0.3,0,0.5-0.2,0.6-0.5
		c0.1-0.3,0.2-0.9,0.2-1.8v-1.2h1.3v1.3c0,0.9-0.1,1.4-0.1,1.5c-0.2,0.6-0.6,1.1-1.1,1.5c-0.5,0.4-1.1,0.6-1.9,0.6
		c-0.5,0-1-0.2-1.5-0.6c-0.4-0.4-0.7-0.8-0.9-1.4v-0.1c-0.1,0.1-0.2,0.2-0.4,0.4c-0.2,0.2-0.3,0.4-0.4,0.5c-1.1,0.9-2.3,1.3-3.7,1.3
		c-1.1,0-2.2-0.2-3-0.7c-0.9-0.5-1.5-1.1-1.8-1.9c-0.2-0.4-0.3-0.8-0.3-1.2c0-1,0.4-2,1.3-2.8c0.5-0.5,1.1-0.9,1.9-1.2
		c1.5-0.7,3.4-1.1,5.7-1.2h0.5v-0.7c0-0.7-0.1-1.3-0.2-1.6c-0.2-0.7-0.6-1.3-1.1-1.7c-0.5-0.4-1.2-0.6-2-0.6c-1.5,0-2.2,0.1-2.2,0.3
		c0.5,0.3,0.7,0.8,0.7,1.4C-27.3,132.5-27.4,132.9-27.8,133.3z M-22.4,138.1c0-1.3,0-1.9,0-1.9c-0.1,0-0.1,0-0.2,0
		c-3,0.2-4.9,1.1-5.7,2.7c-0.2,0.4-0.4,0.9-0.4,1.5c0,0.7,0.3,1.4,0.8,1.9c0.5,0.5,1.2,0.8,1.9,0.8c0.9,0,1.6-0.3,2.2-0.8
		c0.6-0.5,1-1.2,1.2-1.9C-22.5,140.1-22.4,139.4-22.4,138.1z"/>
	<path d="M-15.3,142.3h0.5c0.9,0,1.4-0.2,1.5-0.5v-0.3c0-0.2,0-0.4,0-0.8c0-0.3,0-0.6,0-1c0-0.4,0-0.8,0-1.3c0-0.5,0-0.9,0-1.4
		c0-0.7,0-1.4,0-2.2s0-1.4,0-1.9l0-0.8c-0.1-0.4-0.2-0.7-0.5-0.8c-0.3-0.1-0.7-0.2-1.5-0.3h-0.6v-0.8c0-0.5,0-0.8,0.1-0.8l0.3,0
		c0.2,0,0.5,0,0.9-0.1c0.4,0,0.8,0,1.2-0.1c0.3,0,0.7,0,1.1-0.1c0.4,0,0.7-0.1,1-0.1c0.2,0,0.3,0,0.4,0h0.1v2.3
		c0.4-0.7,0.9-1.2,1.4-1.6c0.5-0.4,1.2-0.6,2-0.6c0.6,0,1.1,0.1,1.6,0.4c0.9,0.4,1.3,1.1,1.3,1.9c0,0.5-0.2,0.9-0.5,1.2
		c-0.3,0.3-0.7,0.5-1.2,0.5s-0.8-0.2-1.2-0.5c-0.3-0.3-0.5-0.7-0.5-1.2c0-0.4,0.1-0.7,0.3-0.9c0-0.1,0.1-0.1,0.1-0.2
		c0,0-0.3,0-0.8,0.1c-0.3,0.2-0.6,0.3-0.8,0.5c-0.9,0.8-1.4,2.2-1.5,4.1v1.3c0,0.9,0,1.6,0,2.2c0,0.3,0,0.6,0,0.9c0,0.3,0,0.6,0,0.8
		c0,0.2,0,0.5,0,0.7c0,0.2,0,0.4,0,0.5v0.2c0.1,0.2,0.2,0.3,0.4,0.3c0.2,0.1,0.8,0.1,1.7,0.2h1v1.5h-0.3c-0.4-0.1-1.8-0.1-4.2-0.1
		c-2.1,0-3.4,0-3.7,0.1h-0.3v-1.5H-15.3z"/>
	<path d="M4.5,143.8c-0.2-0.1-1.4-0.1-3.4-0.1c-2,0-3.2,0-3.6,0.1h-0.3v-1.5h0.5c0.6,0,1.1,0,1.6-0.1c0.2-0.1,0.3-0.2,0.4-0.4
		c0,0,0-1.6,0-4.8c0-3.3,0-5-0.1-5.2c-0.2-0.4-0.8-0.7-1.9-0.7h-0.4v-0.8c0-0.5,0-0.8,0.1-0.8l0.3,0c0.2,0,0.5,0,0.9-0.1
		c0.4,0,0.8,0,1.2-0.1c0.4,0,0.8,0,1.2-0.1c0.4,0,0.7-0.1,1-0.1c0.2,0,0.3,0,0.4,0h0.1v12.5c0.1,0.2,0.2,0.4,0.4,0.4
		c0.2,0.1,0.5,0.1,1.1,0.1h0.8v1.5H4.5z M0.7,121.9c0.5,0,1,0.2,1.3,0.6c0.3,0.3,0.5,0.8,0.5,1.4c0,0.8-0.3,1.3-0.9,1.7
		c-0.3,0.2-0.6,0.3-1,0.3c-0.4,0-0.8-0.1-1.1-0.3c-0.6-0.3-0.9-0.9-0.9-1.7c0-0.6,0.2-1.1,0.6-1.4C-0.4,122.1,0.1,121.9,0.7,121.9z"
		/>
	<path d="M10.6,133.3c-0.3,0.4-0.8,0.5-1.3,0.5c-0.5,0-0.9-0.2-1.2-0.5c-0.3-0.3-0.5-0.8-0.5-1.2c0-0.3,0.1-0.7,0.3-1
		c0.3-0.6,0.9-1,1.7-1.4c0.9-0.3,1.9-0.5,3.1-0.5c1.4,0,2.7,0.3,3.8,1c1.1,0.7,1.8,1.5,2.1,2.6c0.1,0.3,0.2,0.7,0.2,1s0,1.6,0,3.8
		c0,2.1,0,3.4,0,3.8c0,0.4,0.1,0.6,0.2,0.8c0.1,0.3,0.3,0.5,0.7,0.5c0.3,0,0.5-0.2,0.6-0.5c0.1-0.3,0.2-0.9,0.2-1.8v-1.2h1.3v1.3
		c0,0.9-0.1,1.4-0.1,1.5c-0.2,0.6-0.6,1.1-1.1,1.5c-0.5,0.4-1.1,0.6-1.9,0.6c-0.5,0-1-0.2-1.5-0.6c-0.4-0.4-0.7-0.8-0.9-1.4v-0.1
		c-0.1,0.1-0.2,0.2-0.4,0.4c-0.2,0.2-0.3,0.4-0.4,0.5c-1.1,0.9-2.3,1.3-3.7,1.3c-1.1,0-2.2-0.2-3-0.7c-0.9-0.5-1.5-1.1-1.8-1.9
		c-0.2-0.4-0.3-0.8-0.3-1.2c0-1,0.4-2,1.3-2.8c0.5-0.5,1.1-0.9,1.9-1.2c1.5-0.7,3.4-1.1,5.7-1.2h0.5v-0.7c0-0.7-0.1-1.3-0.2-1.6
		c-0.2-0.7-0.6-1.3-1.1-1.7c-0.5-0.4-1.2-0.6-2-0.6c-1.5,0-2.2,0.1-2.2,0.3c0.5,0.3,0.7,0.8,0.7,1.4
		C11.1,132.5,10.9,132.9,10.6,133.3z M15.9,138.1c0-1.3,0-1.9,0-1.9c-0.1,0-0.1,0-0.2,0c-3,0.2-4.9,1.1-5.7,2.7
		c-0.2,0.4-0.4,0.9-0.4,1.5c0,0.7,0.3,1.4,0.8,1.9c0.5,0.5,1.2,0.8,1.9,0.8c0.9,0,1.6-0.3,2.2-0.8c0.6-0.5,1-1.2,1.2-1.9
		C15.9,140.1,15.9,139.4,15.9,138.1z"/>
	<path d="M25.1,121.3c0.4,0,0.8,0,1.2-0.1c0.4,0,0.8-0.1,1-0.1c0.2,0,0.3,0,0.4,0h0.1v4.9c0,3.3,0,5,0,5c0.1,0,0.1-0.1,0.2-0.2
		c1.2-1,2.7-1.5,4.5-1.5c0.4,0,0.8,0,1.1,0.1c1.6,0.3,2.8,1.1,3.9,2.4c1,1.3,1.6,2.9,1.6,4.9c0,0.4,0,0.8-0.1,1.1
		c-0.3,1.8-1.1,3.3-2.3,4.5c-1.3,1.2-2.8,1.8-4.7,1.8c-1.7,0-3.1-0.6-4.3-1.9l-0.2-0.2l-0.3,0.6c0,0.1-0.1,0.2-0.2,0.3
		c-0.1,0.1-0.1,0.3-0.2,0.4c-0.1,0.1-0.1,0.2-0.1,0.2l-0.2,0.3l-0.7,0h-0.7V134c0-6.6,0-9.9,0-10c-0.1-0.4-0.2-0.7-0.5-0.8
		c-0.3-0.1-0.7-0.2-1.5-0.3h-0.6v-0.8c0-0.5,0-0.8,0.1-0.8l0.3,0c0.2,0,0.5,0,1-0.1C24.3,121.3,24.7,121.3,25.1,121.3z M32.7,130.6
		c-0.5-0.1-0.9-0.1-1-0.1c-1.5,0-2.8,0.6-3.7,1.9l-0.2,0.3v7.9l0.2,0.2c0.7,1,1.5,1.7,2.5,2c0.3,0.1,0.6,0.1,1,0.1
		c1.4,0,2.5-0.6,3.3-1.8c0.2-0.2,0.3-0.6,0.5-1.1c0.3-0.8,0.4-1.8,0.4-3.2c0-1.6-0.1-2.8-0.4-3.6C34.9,131.8,34,131,32.7,130.6z"/>
	<path d="M41.5,142.3h0.5c0.9,0,1.4-0.2,1.5-0.5v-0.3c0-0.2,0-0.4,0-0.8c0-0.3,0-0.7,0-1.1c0-0.4,0-0.9,0-1.4s0-1.1,0-1.6
		c0-0.6,0-1.2,0-1.8c0-0.6,0-1.3,0-1.9c0-0.8,0-1.7,0-2.6s0-1.7,0-2.4c0-0.7,0-1.4,0-2c0-0.6,0-1.1,0-1.4c0-0.3,0-0.5,0-0.6
		c-0.1-0.4-0.2-0.7-0.5-0.8c-0.3-0.1-0.7-0.2-1.5-0.3H41v-0.8c0-0.5,0-0.8,0.1-0.8l0.3,0c0.2,0,0.5,0,1-0.1c0.4,0,0.8,0,1.2-0.1
		c0.4,0,0.8,0,1.2-0.1c0.4,0,0.8-0.1,1-0.1c0.2,0,0.3,0,0.4,0h0.1v10.3c0,6.9,0,10.4,0,10.5c0.1,0.2,0.2,0.3,0.4,0.4
		c0.5,0.1,1,0.1,1.6,0.1h0.5v1.5h-0.3c-0.4-0.1-1.6-0.1-3.6-0.1c-2.1,0-3.4,0-3.6,0.1H41v-1.5H41.5z"/>
	<path d="M62.8,135.8c0,0.2-0.1,0.3-0.2,0.5h-9.2v0.5c0,1.6,0.2,2.8,0.7,3.7c0.8,1.6,2.1,2.4,4.1,2.4c0.9,0,1.7-0.3,2.4-1
		c0.4-0.4,0.8-1,1-1.7c0.1-0.2,0.1-0.4,0.2-0.5c0.1-0.1,0.2-0.1,0.5-0.1c0.4,0,0.7,0.1,0.7,0.3c0,0.1,0,0.2-0.1,0.4
		c-0.4,1.1-1.1,2.1-2,2.8c-0.9,0.7-2,1.1-3.3,1.1c-0.4,0-0.9-0.1-1.4-0.2c-1.2-0.2-2.4-0.8-3.3-1.7c-1-0.9-1.7-2-2.1-3.2
		c-0.3-0.8-0.4-1.6-0.4-2.4c0-2,0.6-3.7,1.8-5.1c1.2-1.4,2.6-2.2,4.4-2.4c0.1,0,0.2,0,0.5,0c2,0,3.5,0.6,4.5,1.8
		C62.3,132,62.8,133.7,62.8,135.8z M60.1,134.8c-0.2-2.4-1-3.8-2.4-4.3c-0.2-0.1-0.4-0.1-0.7-0.1c-1.1,0-2.1,0.5-2.8,1.6
		c-0.4,0.7-0.7,1.7-0.9,2.9v0.2h6.8V134.8z"/>
	<path d="M78.1,141.8c0.2,0.3,0.7,0.5,1.5,0.5h0.5h0.5v1.5h-0.3c-0.3-0.1-1.5-0.1-3.7-0.1c-2.2,0-3.4,0-3.7,0.1h-0.3v-1.5h0.5h0.5
		c0.9,0,1.4-0.2,1.5-0.5v-0.3c0-0.2,0-0.4,0-0.8c0-0.3,0-0.6,0-1c0-0.4,0-0.8,0-1.3c0-0.5,0-0.9,0-1.4c0-0.7,0-1.4,0-2.2
		c0-0.8,0-1.4,0-1.9v-0.8c-0.1-0.4-0.2-0.7-0.5-0.8c-0.3-0.1-0.7-0.2-1.5-0.3h-0.6v-0.8c0-0.5,0-0.8,0.1-0.8l0.3,0
		c0.2,0,0.5,0,0.9-0.1c0.4,0,0.8,0,1.2-0.1c0.4,0,0.8,0,1.2-0.1c0.4,0,0.7-0.1,1-0.1c0.2,0,0.3,0,0.4,0h0.1v1.3c0,0.8,0,1.2,0,1.2
		l0,0c1.2-1.7,2.9-2.5,5-2.5c2.5,0.1,3.9,1.3,4.2,3.7c0,0.2,0,1.7,0,4.6c0,2.8,0,4.2,0,4.3c0.1,0.2,0.2,0.3,0.4,0.4
		c0.5,0.1,1,0.1,1.6,0.1h0.5v1.5h-0.3c-0.3-0.1-1.5-0.1-3.7-0.1c-2.2,0-3.4,0-3.7,0.1h-0.3v-1.5h0.5h0.3c1.2,0,1.7-0.2,1.7-0.5
		c0,0,0-1.6,0-4.5c0-2.9,0-4.5-0.1-4.7c-0.2-0.7-0.4-1.2-0.7-1.5c-0.3-0.3-0.9-0.5-1.6-0.5c-1,0-1.8,0.4-2.6,1.1
		c-0.8,0.8-1.2,1.7-1.3,2.9c0,0,0,0.2,0,0.6c0,0.4,0,0.9,0,1.5c0,0.6,0,1.1,0,1.7c0,0.3,0,0.7,0,1s0,0.7,0,1c0,0.3,0,0.5,0,0.8
		c0,0.2,0,0.4,0,0.6V141.8z"/>
	<path d="M91.1,136.8c0-2,0.6-3.7,1.9-5.1c1.3-1.4,2.8-2.3,4.6-2.5c0.3,0,0.6-0.1,0.8-0.1c1.9,0,3.5,0.7,4.9,2.1
		c1.5,1.5,2.3,3.4,2.3,5.5c0,0.4-0.1,0.9-0.2,1.5c-0.3,1.4-0.9,2.6-1.9,3.6c-1,1-2.1,1.7-3.5,2c-0.5,0.1-1.1,0.2-1.7,0.2
		c-0.7,0-1.2-0.1-1.7-0.2c-1.6-0.4-3-1.3-4-2.6C91.6,140,91.1,138.5,91.1,136.8z M99,130.4c-0.1,0-0.3,0-0.5,0
		c-0.7,0-1.3,0.1-1.9,0.4c-1.2,0.6-2,1.8-2.2,3.6c0,0.4-0.1,1.1-0.1,2.1c0,2.1,0.2,3.6,0.6,4.4c0.7,1.3,1.8,2,3.4,2
		c2.7,0,4-1.8,4-5.3v-1c0-1.4-0.1-2.4-0.2-2.9C101.8,131.8,100.8,130.8,99,130.4z"/>
	<path d="M114.6,129.3c1.6,0,3.1,0.5,4.3,1.6v-3.3c0-2.3,0-3.5,0-3.5c-0.1-0.4-0.2-0.7-0.5-0.8c-0.3-0.1-0.7-0.2-1.5-0.3h-0.6v-0.8
		c0-0.5,0-0.8,0.1-0.8l0.3,0c0.2,0,0.5,0,1-0.1c0.4,0,0.8,0,1.2-0.1c0.4,0,0.8,0,1.2-0.1c0.4,0,0.8-0.1,1-0.1c0.2,0,0.3,0,0.4,0h0.1
		v10c0,6.7,0,10.1,0,10.1c0.1,0.4,0.2,0.7,0.5,0.9c0.3,0.1,0.7,0.2,1.5,0.3h0.6v1.5c0,0-0.9,0.1-2.5,0.2c-1.6,0.1-2.5,0.2-2.6,0.2
		h-0.2v-1.8l-0.3,0.2c-1.2,1-2.7,1.6-4.3,1.6c-1.5,0-2.9-0.5-4.1-1.5c-1.4-1.2-2.2-2.8-2.5-4.7c0-0.2,0-0.6,0-1.1
		c0-2.1,0.7-3.9,2-5.3C111.1,130,112.7,129.3,114.6,129.3z M118.8,132.6c-1-1.4-2.2-2.1-3.7-2.1c-1.1,0-2,0.4-2.9,1.2
		c-0.5,0.6-0.9,1.2-1.1,2c-0.2,0.8-0.3,1.8-0.3,3.2c0,2.4,0.5,4.1,1.4,5c0.7,0.7,1.5,1.1,2.6,1.1c0.8,0,1.5-0.2,2.2-0.6
		c0.7-0.4,1.3-1,1.7-1.7l0.1-0.2V132.6z"/>
	<path d="M138.4,135.8c0,0.2-0.1,0.3-0.2,0.5h-9.2v0.5c0,1.6,0.2,2.8,0.7,3.7c0.8,1.6,2.1,2.4,4.1,2.4c0.9,0,1.7-0.3,2.4-1
		c0.4-0.4,0.8-1,1-1.7c0.1-0.2,0.1-0.4,0.2-0.5c0.1-0.1,0.2-0.1,0.5-0.1c0.4,0,0.7,0.1,0.7,0.3c0,0.1,0,0.2-0.1,0.4
		c-0.4,1.1-1.1,2.1-2,2.8c-0.9,0.7-2,1.1-3.3,1.1c-0.4,0-0.9-0.1-1.4-0.2c-1.2-0.2-2.4-0.8-3.3-1.7c-1-0.9-1.7-2-2.1-3.2
		c-0.3-0.8-0.4-1.6-0.4-2.4c0-2,0.6-3.7,1.8-5.1c1.2-1.4,2.6-2.2,4.4-2.4c0.1,0,0.2,0,0.5,0c2,0,3.5,0.6,4.5,1.8
		C137.9,132,138.4,133.7,138.4,135.8z M135.7,134.8c-0.2-2.4-1-3.8-2.4-4.3c-0.2-0.1-0.4-0.1-0.7-0.1c-1.1,0-2.1,0.5-2.8,1.6
		c-0.4,0.7-0.7,1.7-0.9,2.9v0.2h6.8V134.8z"/>
</g>
<rect x="-49.9" y="189.2" fill="none" width="204.4" height="50.4"/>
<g enable-background="new    ">
	<path d="M-36.5,203.7c0,0.2-0.1,0.3-0.2,0.5H-46v0.5c0,1.6,0.2,2.8,0.7,3.7c0.8,1.6,2.1,2.4,4.1,2.4c0.9,0,1.7-0.3,2.4-1
		c0.4-0.4,0.8-1,1-1.7c0.1-0.2,0.1-0.4,0.2-0.5c0.1-0.1,0.2-0.1,0.5-0.1c0.4,0,0.7,0.1,0.7,0.3c0,0.1,0,0.2-0.1,0.4
		c-0.4,1.1-1.1,2.1-2,2.8c-0.9,0.7-2,1.1-3.3,1.1c-0.4,0-0.9-0.1-1.4-0.2c-1.2-0.2-2.4-0.8-3.3-1.7c-1-0.9-1.7-2-2.1-3.2
		c-0.3-0.8-0.4-1.6-0.4-2.4c0-2,0.6-3.7,1.8-5.1c1.2-1.4,2.6-2.2,4.4-2.4c0.1,0,0.2,0,0.5,0c2,0,3.5,0.6,4.5,1.8
		C-37.1,200-36.5,201.6-36.5,203.7z M-39.2,202.7c-0.2-2.4-1-3.8-2.4-4.3c-0.2-0.1-0.4-0.1-0.7-0.1c-1.1,0-2.1,0.5-2.8,1.6
		c-0.4,0.7-0.7,1.7-0.9,2.9v0.2h6.8V202.7z"/>
	<path d="M-27.6,197.2c1.6,0,3.1,0.5,4.3,1.6v-3.3c0-2.3,0-3.5,0-3.5c-0.1-0.4-0.2-0.7-0.5-0.8c-0.3-0.1-0.7-0.2-1.5-0.3h-0.6v-0.8
		c0-0.5,0-0.8,0.1-0.8l0.3,0c0.2,0,0.5,0,1-0.1c0.4,0,0.8,0,1.2-0.1c0.4,0,0.8,0,1.2-0.1c0.4,0,0.8-0.1,1-0.1c0.2,0,0.3,0,0.4,0h0.1
		v10c0,6.7,0,10.1,0,10.1c0.1,0.4,0.2,0.7,0.5,0.9c0.3,0.1,0.7,0.2,1.5,0.3h0.6v1.5c0,0-0.9,0.1-2.5,0.2c-1.6,0.1-2.5,0.2-2.6,0.2
		h-0.2v-1.8l-0.3,0.2c-1.2,1-2.7,1.6-4.3,1.6c-1.5,0-2.9-0.5-4.1-1.5c-1.4-1.2-2.2-2.8-2.5-4.7c0-0.2,0-0.6,0-1.1
		c0-2.1,0.7-3.9,2-5.3C-31.1,197.9-29.5,197.2-27.6,197.2z M-23.4,200.5c-1-1.4-2.2-2.1-3.7-2.1c-1.1,0-2,0.4-2.9,1.2
		c-0.5,0.6-0.9,1.2-1.1,2c-0.2,0.8-0.3,1.8-0.3,3.2c0,2.4,0.5,4.1,1.4,5c0.7,0.7,1.5,1.1,2.6,1.1c0.8,0,1.5-0.2,2.2-0.6
		c0.7-0.4,1.3-1,1.7-1.7l0.1-0.2V200.5z"/>
	<path d="M-6.6,198.3c1-1,2.1-1.4,3.3-1.4c0.5,0,1,0.2,1.3,0.5c0.3,0.4,0.5,0.8,0.5,1.3c0,0.4-0.1,0.6-0.3,0.9
		c-0.2,0.2-0.5,0.3-0.9,0.3c-0.7,0-1.1-0.3-1.2-1c0-0.3,0-0.5,0.1-0.7c0,0,0-0.1,0-0.1v0c-0.1,0-0.2,0-0.3,0.1
		c-0.5,0.1-1,0.3-1.4,0.7c-0.2,0.1-0.3,0.2-0.3,0.2c0,0,0.1,0.1,0.1,0.2c0.7,0.9,1.1,1.9,1.1,2.9c0,0.9-0.3,1.8-0.9,2.6
		c-1,1.5-2.6,2.3-4.7,2.3c-1,0-2.1-0.3-3.2-0.9c-0.2,0.4-0.4,0.9-0.4,1.2c0,0.8,0.3,1.3,0.9,1.7c0.2,0.1,0.4,0.2,0.6,0.2
		c0.2,0,1,0,2.3,0c1.8,0,3,0.1,3.5,0.2c1.3,0.2,2.4,0.6,3.1,1.3c0.9,0.9,1.3,1.9,1.3,3.2c0,0.4,0,0.7-0.1,0.8
		c-0.3,1.1-1.1,1.9-2.5,2.6c-1.3,0.7-2.8,1-4.7,1c-1.8,0-3.4-0.3-4.7-1c-1.4-0.7-2.2-1.5-2.5-2.6c0-0.1-0.1-0.4-0.1-0.7
		c0-0.9,0.3-1.7,1-2.3c0.3-0.3,0.7-0.6,1-0.8l0.4-0.2c-0.8-0.7-1.2-1.6-1.2-2.8c0-1,0.3-1.9,1-2.8c-1-1-1.4-2-1.4-3.2
		c0-0.9,0.3-1.8,0.9-2.7c0.5-0.7,1.1-1.2,1.9-1.6c0.8-0.4,1.8-0.6,2.8-0.6c1.1,0,2.2,0.3,3.1,0.9L-6.6,198.3z M-5.1,212.5
		c-0.5-0.3-1-0.5-1.6-0.6c-0.6-0.1-1.5-0.1-2.6-0.1h-1c-1.5,0-2.3,0.1-2.6,0.2c-0.4,0.2-0.8,0.5-1,0.9c-0.3,0.4-0.4,0.9-0.4,1.3
		c0,0.2,0,0.5,0.1,0.7c0.2,0.5,0.6,1,1.2,1.4c0.6,0.4,1.3,0.7,2.1,0.9c0.4,0.1,1,0.1,1.7,0.1c0.7,0,1.2,0,1.6-0.1
		c0.8-0.2,1.5-0.5,2.1-0.9s1-0.9,1.2-1.4c0-0.1,0.1-0.3,0.1-0.6C-4.2,213.4-4.5,212.9-5.1,212.5z M-12.7,202.2
		c0,1.2,0.2,2.1,0.6,2.7c0.4,0.6,1.1,0.9,2.1,0.9c0.7,0,1.3-0.2,1.7-0.5c0.4-0.4,0.7-0.8,0.8-1.4c0.1-0.4,0.1-0.9,0.1-1.6
		c0-0.7,0-1.3-0.1-1.7c-0.3-1.3-1.1-2-2.6-2c-0.6,0-1.2,0.2-1.6,0.5c-0.5,0.4-0.7,0.8-0.9,1.5C-12.7,200.9-12.7,201.4-12.7,202.2z"
		/>
	<path d="M12.6,203.7c0,0.2-0.1,0.3-0.2,0.5H3.1v0.5c0,1.6,0.2,2.8,0.7,3.7c0.8,1.6,2.1,2.4,4.1,2.4c0.9,0,1.7-0.3,2.4-1
		c0.4-0.4,0.8-1,1-1.7c0.1-0.2,0.1-0.4,0.2-0.5c0.1-0.1,0.2-0.1,0.5-0.1c0.4,0,0.7,0.1,0.7,0.3c0,0.1,0,0.2-0.1,0.4
		c-0.4,1.1-1.1,2.1-2,2.8c-0.9,0.7-2,1.1-3.3,1.1c-0.4,0-0.9-0.1-1.4-0.2c-1.2-0.2-2.4-0.8-3.3-1.7c-1-0.9-1.7-2-2.1-3.2
		c-0.3-0.8-0.4-1.6-0.4-2.4c0-2,0.6-3.7,1.8-5.1c1.2-1.4,2.6-2.2,4.4-2.4c0.1,0,0.2,0,0.5,0c2,0,3.5,0.6,4.5,1.8
		C12.1,200,12.6,201.6,12.6,203.7z M9.9,202.7c-0.2-2.4-1-3.8-2.4-4.3c-0.2-0.1-0.4-0.1-0.7-0.1c-1.1,0-2.1,0.5-2.8,1.6
		c-0.4,0.7-0.7,1.7-0.9,2.9v0.2h6.8V202.7z"/>
</g>
<g id="g4192_1_">
	<path id="path4194_1_" fill="#231F20" stroke="#231F20" stroke-miterlimit="10" d="M-106.5,56h18.8v18.8h-18.8V56z"/>
</g>
<g id="g4216_1_">
	<path id="path4218_1_" fill="#FFFFFF" stroke="#231F20" stroke-width="0.5" stroke-miterlimit="10" d="M-113.8,151.5
		c-9.4-9.4-9.4-24.6,0-34s24.6-9.4,34,0s9.4,24.6,0,34C-89.7,160.5-104.8,160.5-113.8,151.5"/>
</g>
<g enable-background="new    ">
	<path d="M177.9,79.7c0,0.2-0.2,0.3-0.6,0.3h-0.4c-0.2-0.1-0.5-0.4-0.9-0.8c-3.9-3.6-5.9-8.8-5.9-15.6c0-2.7,0.3-5.1,1-7.3
		c1-3.4,2.7-6.2,4.9-8.3c0.2-0.1,0.3-0.3,0.5-0.4c0.2-0.2,0.3-0.3,0.4-0.3h0.4c0.3,0,0.4,0,0.5,0.1c0.1,0.1,0.1,0.1,0.1,0.2
		c0,0.1-0.1,0.3-0.4,0.5c-3.4,3.6-5.1,8.8-5.1,15.6s1.7,12,5.1,15.6C177.8,79.5,177.9,79.6,177.9,79.7z"/>
	<path d="M197,71.8c-0.4-0.1-2.2-0.1-5.4-0.1s-5,0-5.4,0.1h-0.4v-1.5h0.9c0.8,0,1.3,0,1.6,0c0.6,0,1-0.1,1.1-0.1
		c0.2-0.1,0.3-0.2,0.6-0.3v-2.9h-0.1c0,0-0.2-0.1-0.5-0.1c-1.6-0.2-3-0.6-4.4-1.4c-1.9-1-3-2.4-3.4-4c0-0.1,0-0.4,0-0.8
		c0-0.4,0-0.7,0-0.8c0.4-1.6,1.5-2.9,3.4-4c1.4-0.7,2.8-1.2,4.4-1.4c0.3,0,0.5-0.1,0.5-0.1h0.1v-2.9c-0.1-0.1-0.2-0.2-0.3-0.2
		c-0.1,0-0.1-0.1-0.3-0.1c-0.1,0-0.3-0.1-0.4-0.1c-0.2,0-0.4,0-0.7,0c-0.2,0-0.8,0-1.6,0h-0.9v-1.5h0.4c0.4,0.1,2.2,0.1,5.4,0.1
		s5,0,5.4-0.1h0.4v1.5h-0.9c-0.8,0-1.3,0-1.6,0c-0.6,0-1,0.1-1.2,0.1c-0.2,0.1-0.4,0.2-0.5,0.3v2.9l0.5,0.1c1.7,0.2,3.2,0.7,4.5,1.5
		c1.3,0.8,2.3,1.7,2.8,2.8c0.3,0.6,0.5,1.3,0.5,2c0,0.7-0.2,1.4-0.5,2c-0.5,1.1-1.5,2-2.8,2.8c-1.3,0.8-2.9,1.3-4.5,1.5l-0.5,0.1
		v2.9c0.2,0.2,0.3,0.3,0.5,0.3c0.2,0.1,0.6,0.1,1.2,0.1c0.2,0,0.8,0,1.6,0h0.9v1.5H197z M185.3,60.6c0,1.5,0.4,2.7,1.1,3.5
		c0.7,0.8,1.9,1.3,3.4,1.5h0.2V55.6h-0.1c-0.2,0-0.5,0.1-1,0.2c-1.2,0.3-2.1,0.8-2.7,1.6C185.6,58.2,185.3,59.2,185.3,60.6z
		 M193.3,65.7c1.5-0.2,2.6-0.8,3.4-1.5c0.7-0.8,1.1-2,1.1-3.5c0-1.5-0.3-2.6-1-3.4c-0.7-0.8-1.6-1.3-3-1.6c-0.3,0-0.5-0.1-0.5-0.1
		h-0.2v10.1H193.3z"/>
</g>
<g id="g4274_1_">
	<path id="path4276_1_" fill="#231F20" stroke="#231F20" stroke-miterlimit="10" d="M-120.8,203.5h47.9"/>
</g>
<g enable-background="new    ">
	<path d="M195.1,81.5c-0.1-0.1-0.1-0.2-0.1-0.2c0-0.1,0-0.2,0.1-0.3s0.1-0.3,0.1-0.3l0.1-0.1h0.3c1,0,1.7-0.4,2.1-1
		c0.1-0.1,1.3-2.2,3.7-6.3c2.4-4.1,3.6-6.2,3.6-6.2c0.1-0.1,0.1-0.2,0.2-0.2c0.1,0,0.2,0,0.5,0h0.3c0.1,0.1,0.1,0.2,0.1,0.2l0.6,6.6
		c0.4,4.4,0.6,6.6,0.6,6.7c0.1,0.2,0.5,0.2,1.3,0.2c0.1,0,0.3,0,0.3,0c0.1,0,0.1,0,0.1,0.1c0,0,0.1,0.1,0.1,0.1c0,0,0,0.1-0.1,0.3
		c0,0.2-0.1,0.3-0.1,0.4c0,0-0.1,0.1-0.3,0.1c-0.2,0-0.7,0-1.2,0c-0.6,0-1,0-1.4,0c-1.3,0-2.1,0-2.5,0h-0.2
		c-0.1-0.1-0.1-0.1-0.1-0.2c0,0,0-0.2,0.1-0.4c0.1-0.2,0.1-0.3,0.1-0.3l0.1-0.1h0.4c0.7,0,1.2-0.1,1.3-0.3l-0.2-3.1h-4.9l-0.7,1.2
		c-0.5,0.8-0.7,1.3-0.8,1.3c-0.1,0.1-0.1,0.2-0.1,0.3c0,0.3,0.3,0.5,0.9,0.6c0.3,0,0.4,0.1,0.4,0.2c0,0.1,0,0.2-0.1,0.3
		c0,0.2-0.1,0.3-0.1,0.4c0,0.1-0.1,0.1-0.3,0.1c-0.2,0-0.6,0-1.1,0c-0.5,0-0.9,0-1.1,0c-1,0-1.6,0-1.9,0H195.1z M204.8,76.2
		c0-0.2-0.1-1.2-0.3-3.2c-0.2-2-0.3-3-0.3-3l-0.6,0.9c-0.2,0.4-0.6,1.1-1.3,2.2l-1.8,3.1l2.1,0C204.1,76.2,204.8,76.2,204.8,76.2z"
		/>
</g>
<g enable-background="new    ">
</g>
<g enable-background="new    ">
	<path d="M244,71.8c-0.6,0-1.4,0-2.4,0c-1,0-1.7,0-2.1,0c-0.3,0-0.4-0.1-0.5-0.2c0-0.1-0.1-0.1-0.1-0.2c0,0,0-0.2,0.1-0.5
		c0.1-0.3,0.2-0.6,0.3-0.6c0.1-0.1,0.3-0.1,0.8-0.1c0.6,0,1.2,0,2-0.1c0.3-0.1,0.5-0.2,0.6-0.4c0-0.1,0.8-3.2,2.3-9.2
		c1.5-6,2.3-9.1,2.3-9.2c0-0.2,0-0.2-0.1-0.2c-0.2-0.1-0.8-0.1-1.7-0.2h-1c-0.1-0.1-0.2-0.2-0.2-0.3c0-0.1,0-0.2,0.1-0.5
		c0.1-0.4,0.2-0.6,0.3-0.7h17.7c0.2,0.2,0.2,0.3,0.2,0.4c0,0.1-0.1,1.3-0.4,3.7c-0.3,2.3-0.4,3.5-0.5,3.6c0,0.2-0.3,0.2-0.7,0.2
		h-0.4c-0.2-0.1-0.2-0.2-0.2-0.3c0,0,0-0.1,0-0.1c0-0.1,0-0.1,0-0.2c0-0.1,0-0.2,0-0.3c0.1-0.6,0.1-1.3,0.1-1.9c0-1.6-0.5-2.6-1.5-3
		c-0.5-0.2-1-0.3-1.6-0.4c-0.6,0-1.9-0.1-3.7-0.1c-1.7,0-2.7,0-2.8,0.1c-0.2,0.1-0.3,0.2-0.3,0.3c0,0-0.4,1.5-1.1,4.3l-1,4.2h1.8
		c1.3,0,2,0,2.2-0.1c0.7-0.1,1.2-0.4,1.6-0.7c0.5-0.4,0.8-1.2,1.1-2.4c0-0.1,0-0.1,0.1-0.2c0-0.1,0-0.1,0-0.2s0-0.1,0-0.1
		s0-0.1,0.1-0.1c0,0,0.1,0,0.1,0c0.1,0,0.1,0,0.2,0c0.1,0,0.2,0,0.3,0h0.4c0.2,0.1,0.2,0.2,0.2,0.3c0,0.1-0.3,1.5-1,4.3
		c-0.7,2.8-1.1,4.2-1.1,4.3c0,0.2-0.3,0.2-0.7,0.2h-0.4c-0.1-0.1-0.2-0.2-0.2-0.3c0-0.1,0-0.3,0.1-0.6c0.2-0.6,0.2-1.1,0.2-1.6
		c0-0.7-0.3-1.1-0.8-1.2c-0.4-0.1-1.3-0.2-2.8-0.2h-1.8l-1,4.2c-0.7,2.7-1,4.1-1,4.3c0,0.1,0.1,0.2,0.2,0.3c0.3,0.1,1.2,0.2,2.7,0.2
		h0.8c0.1,0.1,0.2,0.2,0.2,0.3c0,0.1,0,0.3-0.1,0.6c-0.1,0.3-0.2,0.5-0.3,0.6H249C248.1,71.8,246.4,71.8,244,71.8z"/>
</g>
<g enable-background="new    ">
	<path d="M177.9,154.1c0,0.2-0.2,0.3-0.6,0.3h-0.4c-0.2-0.1-0.5-0.4-0.9-0.8c-3.9-3.6-5.9-8.8-5.9-15.6c0-2.7,0.3-5.1,1-7.3
		c1-3.4,2.7-6.2,4.9-8.3c0.2-0.1,0.3-0.3,0.5-0.4c0.2-0.2,0.3-0.3,0.4-0.3h0.4c0.3,0,0.4,0,0.5,0.1c0.1,0.1,0.1,0.1,0.1,0.2
		c0,0.1-0.1,0.3-0.4,0.5c-3.4,3.6-5.1,8.8-5.1,15.6c0,6.8,1.7,12,5.1,15.6C177.8,153.8,177.9,154,177.9,154.1z"/>
</g>
<g enable-background="new    ">
	<path d="M187.6,146.5c-1.4,0-2.5-0.4-3.3-1.1c-0.8-0.7-1.2-1.8-1.2-3.1c0-0.4,0-0.8,0.1-1.1c0.2-1,0.7-2.7,1.5-4.8l0.5-1.6
		c0.1-0.4,0.2-0.8,0.2-1.1c0-0.5-0.2-0.8-0.6-0.8c-0.2,0-0.3,0-0.5,0.1c-1.1,0.4-2,1.6-2.5,3.8c0,0,0,0.1,0,0.1c0,0.1,0,0.1,0,0.1
		c0,0,0,0,0,0c0,0-0.1,0-0.1,0c-0.1,0-0.1,0-0.1,0c0,0-0.1,0-0.3,0h-0.5c-0.1-0.1-0.2-0.2-0.2-0.3c0-0.1,0-0.2,0.1-0.5
		c0.5-1.7,1.3-3,2.4-3.9c0.6-0.5,1.3-0.7,2-0.7c0.9,0,1.6,0.2,2.1,0.7c0.5,0.5,0.8,1.1,0.8,1.9c0,0.4,0,0.7-0.1,0.9
		c0,0.2-0.2,0.6-0.5,1.4c-1,2.7-1.5,4.7-1.6,5.8c0,0.6,0.1,1.1,0.2,1.4c0.3,0.9,1,1.4,2.1,1.4c0.6,0,1.1-0.2,1.6-0.5
		c1.4-0.9,2.5-3,3.4-6.2c0.2-0.6,0.3-1.1,0.3-1.5c0-1-0.4-1.8-1.3-2.6c-0.3-0.3-0.4-0.6-0.4-0.9c0-0.5,0.2-1,0.6-1.4
		c0.4-0.4,0.9-0.6,1.4-0.6c0.5,0,0.9,0.2,1.2,0.7c0.3,0.5,0.4,1.1,0.4,1.8c0,0.8-0.2,2-0.7,3.8c-0.4,1.7-0.9,3.1-1.6,4.4
		C191.4,145.1,189.6,146.5,187.6,146.5z"/>
</g>
<g enable-background="new    ">
</g>
<g enable-background="new    ">
	<path d="M215.5,63.6c0-2.6,0.9-4.8,2.6-6.5c1.8-1.7,3.9-2.7,6.4-3c0,0,0.2,0,0.6,0c0.3,0,0.8,0,1.4,0c0.6,0,1.1,0,1.6,0h3.2
		c0.3,0.2,0.5,0.4,0.5,0.7c0,0.2-0.1,0.4-0.4,0.6l-3.4,0c-2.4,0-3.9,0.1-4.5,0.2c-1.6,0.4-3,1.2-4.2,2.2c-1.2,1.1-1.9,2.3-2.3,3.9
		c-0.1,0.5-0.2,0.9-0.2,1.2V63h14.6c0.3,0.2,0.5,0.4,0.5,0.7c0,0.3-0.2,0.5-0.5,0.7h-14.6v0.1c0,0.3,0.1,0.7,0.2,1.2
		c0.4,1.5,1.2,2.8,2.3,3.9c1.2,1.1,2.6,1.8,4.1,2.2c0.6,0.1,2.1,0.2,4.5,0.2h3.4c0.3,0.2,0.4,0.4,0.4,0.7c0,0.3-0.2,0.5-0.5,0.7
		h-3.2c-2.4,0-3.8,0-4.4-0.1c-2-0.3-3.8-1.2-5.3-2.6c-1.5-1.4-2.5-3-2.9-4.9C215.5,65,215.5,64.4,215.5,63.6z"/>
</g>
<g enable-background="new    ">
	<path d="M196.7,152.5c0.3,0,0.5,0.1,0.6,0.2c0.2,0.2,0.2,0.3,0.2,0.6c0,0.2-0.1,0.5-0.2,0.7c-0.1,0.2-0.3,0.4-0.5,0.5
		c-0.2,0.1-0.3,0.1-0.3,0.1c0,0-0.1,0-0.1,0c0,0,0,0,0,0c0,0.1,0.2,0.2,0.4,0.3c0.4,0.2,0.9,0.3,1.6,0.3c1,0,1.8-0.3,2.2-1
		c0.2-0.3,0.3-0.7,0.3-0.9c0-0.4-0.2-0.8-0.7-1c-0.1-0.1-0.5-0.2-1-0.3c-0.1,0-0.2,0-0.3-0.1c-0.1,0-0.2-0.1-0.3-0.1
		c0,0-0.1,0-0.2-0.1c-0.1,0-0.2-0.1-0.2-0.1c0,0-0.1,0-0.2-0.1c-0.1,0-0.1-0.1-0.2-0.1c-0.6-0.4-0.8-1-0.8-1.7
		c0-0.8,0.3-1.5,0.8-2.1c0.6-0.7,1.5-1.1,2.6-1.1c1.3,0,2.1,0.5,2.4,1.4c0,0.1,0,0.2,0,0.4c0,0.4-0.1,0.7-0.3,0.9
		c-0.2,0.2-0.5,0.4-0.8,0.4c-0.2,0-0.4-0.1-0.5-0.2c-0.1-0.1-0.2-0.3-0.2-0.5c0-0.5,0.2-0.8,0.6-1c0.1-0.1,0.2-0.1,0.2-0.1
		c0,0,0,0,0-0.1c-0.3-0.3-0.8-0.5-1.4-0.5c-0.5,0-1,0.2-1.4,0.5c-0.4,0.3-0.6,0.7-0.6,1.2c0,0.2,0.1,0.5,0.3,0.7
		c0.1,0.1,0.5,0.2,1,0.4c0.6,0.1,1,0.3,1.2,0.3c0.6,0.3,1.1,0.8,1.3,1.4c0,0.1,0,0.3,0.1,0.5c0,0.5-0.1,0.9-0.3,1.5
		c-0.7,1.4-1.9,2.1-3.8,2.1c-1.5,0-2.4-0.4-2.8-1.3c-0.1-0.2-0.1-0.4-0.1-0.7c0-0.4,0.1-0.8,0.4-1.1
		C196,152.7,196.3,152.5,196.7,152.5z"/>
</g>
<g enable-background="new    ">
</g>
<g enable-background="new    ">
	<path d="M231.7,125.3c-0.2-0.2-0.2-0.3-0.2-0.4c0-0.2,0.1-0.4,0.2-0.7c0.1-0.3,0.2-0.4,0.3-0.5h0.4c0.9,0.1,2.1,0.1,3.4,0.1
		c2.6,0,4.1,0,4.6-0.1h0.3c0.1,0.1,0.2,0.2,0.2,0.3c0,0.1,0,0.3-0.1,0.6c-0.1,0.3-0.2,0.5-0.3,0.6h-0.7c-0.5,0-0.8,0.1-1,0.1
		c-0.6,0.1-1,0.3-1,0.5c0,0,0.3,2.8,1,8.2c0.6,5.5,1,8.2,1,8.2l2.4-3.8c1.6-2.6,3.2-5.1,4.8-7.7c1.6-2.6,2.4-3.9,2.5-4
		c0.1-0.2,0.2-0.4,0.2-0.5c0-0.5-0.5-0.8-1.5-0.9c-0.4,0-0.6-0.1-0.6-0.3c0-0.1,0-0.3,0.1-0.5c0.1-0.3,0.1-0.5,0.2-0.6
		c0.1-0.1,0.2-0.1,0.4-0.1c0.4,0,1,0,1.8,0c0.8,0,1.4,0,1.8,0c1.5,0,2.5,0,2.9-0.1h0.2c0.2,0.2,0.2,0.3,0.2,0.4c0,0.4-0.1,0.7-0.3,1
		c-0.1,0.1-0.3,0.1-0.6,0.1c-1.2,0.1-2.1,0.4-2.8,1c0,0-0.1,0.1-0.2,0.2c-0.1,0.1-0.2,0.2-0.2,0.2c-0.1,0.1-0.1,0.2-0.2,0.3
		c-8,13-12.1,19.6-12.3,19.7l-0.2,0.1l-0.6,0c-0.4,0-0.6,0-0.7-0.1c-0.1,0-0.1-0.1-0.1-0.2c-0.1-0.1-0.5-3.6-1.3-10.5
		c-0.8-6.9-1.3-10.5-1.3-10.5c-0.1-0.2-0.7-0.4-1.7-0.4h-0.4H231.7z"/>
</g>
<g enable-background="new    ">
	<path d="M177.9,222c0,0.2-0.2,0.3-0.6,0.3h-0.4c-0.2-0.1-0.5-0.4-0.9-0.8c-3.9-3.6-5.9-8.8-5.9-15.6c0-2.7,0.3-5.1,1-7.3
		c1-3.4,2.7-6.2,4.9-8.3c0.2-0.1,0.3-0.3,0.5-0.4s0.3-0.3,0.4-0.3h0.4c0.3,0,0.4,0,0.5,0.1c0.1,0.1,0.1,0.1,0.1,0.2
		c0,0.1-0.1,0.3-0.4,0.5c-3.4,3.6-5.1,8.8-5.1,15.6c0,6.8,1.7,12,5.1,15.6C177.8,221.7,177.9,221.9,177.9,222z"/>
</g>
<g enable-background="new    ">
	<path d="M193,210.1c0.1,0,0.2,0.1,0.4,0.3c0.2,0.2,0.3,0.4,0.3,0.4c0,0.2-0.3,0.6-1,1.2c-1.8,1.6-3.9,2.4-6.3,2.4
		c-1.2,0-2.2-0.3-3-0.9c-0.5-0.3-0.9-0.7-1.3-1.3c-0.7-1.1-1.1-2.3-1.1-3.7c0-0.8,0.1-1.6,0.3-2.5c0.5-1.7,1.4-3.2,2.8-4.4
		c1.4-1.2,3.2-1.9,5.2-2.1c0,0,0.2,0,0.5,0h0.1c0.9,0,1.7,0.2,2.3,0.6c0.6,0.4,1.1,1,1.3,1.7c0,0.1,0,0.3,0,0.6c0,0.4,0,0.7-0.1,0.8
		c-0.5,1.6-1.6,2.6-3.6,3c-1.1,0.3-2.5,0.4-4.4,0.5c-0.8,0-1.2,0-1.2,0.1c0,0,0,0.2-0.1,0.4c-0.2,1.1-0.4,1.9-0.4,2.6
		c0,1,0.2,1.8,0.7,2.4c0.5,0.6,1.1,0.9,2.1,0.9c2.4,0,4.5-0.9,6.1-2.8C192.8,210.2,192.9,210.1,193,210.1z M191.9,202.5
		c-0.1-1.1-0.9-1.7-2.2-1.7c-0.8,0-1.6,0.2-2.4,0.7c-1.1,0.6-1.9,1.6-2.4,3c-0.2,0.7-0.4,1-0.4,1.1c0,0,0.2,0,0.7,0
		c0.7,0,1.4,0,2-0.1c1.3-0.1,2.3-0.3,2.9-0.6c0.6-0.3,1.2-0.7,1.6-1.3C191.8,203.3,191.9,202.9,191.9,202.5z"/>
</g>
<g enable-background="new    ">
	<path d="M262.3,189.5l0.1,0c0.1,0,0.2,0,0.3,0h0.4c0.2,0.1,0.5,0.4,0.9,0.8c3.9,3.6,5.9,8.8,5.9,15.6c0,2.7-0.3,5.1-0.9,7.3
		c-1,3.5-2.7,6.2-4.9,8.3c-0.2,0.1-0.3,0.3-0.5,0.4c-0.2,0.2-0.3,0.3-0.4,0.3h-0.4c-0.3,0-0.4,0-0.5-0.1c-0.1,0-0.1-0.2-0.1-0.3
		c0,0,0.1-0.2,0.4-0.4c3.4-3.5,5.1-8.7,5.1-15.6c0-6.9-1.7-12-5.1-15.6c-0.2-0.3-0.3-0.4-0.4-0.4
		C262.2,189.7,262.2,189.6,262.3,189.5z"/>
</g>
<g enable-background="new    ">
	<path d="M207.3,138c0-2.6,0.9-4.8,2.6-6.5c1.8-1.7,3.9-2.7,6.4-3c0,0,0.2,0,0.6,0c0.3,0,0.8,0,1.4,0c0.6,0,1.1,0,1.6,0h3.2
		c0.3,0.2,0.5,0.4,0.5,0.7c0,0.2-0.1,0.4-0.4,0.6l-3.4,0c-2.4,0-3.9,0.1-4.5,0.2c-1.6,0.4-3,1.2-4.2,2.2s-1.9,2.3-2.3,3.9
		c-0.1,0.5-0.2,0.9-0.2,1.2v0.1h14.6c0.3,0.2,0.5,0.4,0.5,0.7c0,0.3-0.2,0.5-0.5,0.7h-14.6v0.1c0,0.3,0.1,0.7,0.2,1.2
		c0.4,1.5,1.2,2.8,2.3,3.9c1.2,1.1,2.6,1.8,4.1,2.2c0.6,0.1,2.1,0.2,4.5,0.2h3.4c0.3,0.2,0.4,0.4,0.4,0.7c0,0.3-0.2,0.5-0.5,0.7H220
		c-2.4,0-3.8,0-4.4-0.1c-2-0.3-3.8-1.2-5.3-2.6s-2.5-3-2.9-4.9C207.3,139.4,207.3,138.7,207.3,138z"/>
</g>
<g enable-background="new    ">
</g>
<g enable-background="new    ">
	<path d="M256.8,199.3c0-0.2,0-0.7,0.1-1.3c0.1-0.7,0.1-1.1,0.1-1.2c0-1-0.2-1.7-0.5-2.2c-0.3-0.5-0.9-0.9-1.7-1
		c-0.7-0.2-2.4-0.2-5-0.2c-1.9,0-2.8,0-2.9,0.1c-0.2,0.1-0.3,0.2-0.3,0.3c0,0.1-0.4,1.4-1,4c-0.7,2.6-1,4-1,4c0.5,0,1,0,1.6,0h0.3
		c1.4,0,2.4-0.1,3.1-0.3c0.6-0.2,1.1-0.7,1.5-1.5c0.1-0.2,0.3-0.7,0.5-1.4c0-0.1,0-0.1,0-0.2c0-0.1,0-0.2,0-0.2c0,0,0-0.1,0-0.1
		c0,0,0.1-0.1,0.1-0.1c0.1,0,0.1,0,0.2,0c0.1,0,0.2,0,0.3,0c0.1,0,0.2,0,0.3,0c0.1,0,0.1,0,0.2,0.1c0,0,0.1,0,0.1,0c0,0,0,0,0.1,0.1
		c0,0.1,0.1,0.1,0.1,0.1l-1.1,4.3c-0.7,2.9-1.1,4.4-1.2,4.4c-0.1,0.1-0.2,0.1-0.5,0.1s-0.5,0-0.5-0.1c-0.1-0.1-0.1-0.3,0-0.8
		c0.2-0.6,0.2-1.1,0.2-1.5c0-0.6-0.2-1-0.7-1.2c-0.4-0.2-1.5-0.3-3.2-0.3h-1.7c-0.1,0.5-0.5,2.1-1.2,4.9c-0.7,2.8-1,4.2-1,4.2
		c0,0.1,0.1,0.1,0.4,0.1c0.3,0,1.1,0,2.6,0.1c2.1,0,3.4,0,4.1-0.1c0.7-0.1,1.3-0.2,2-0.4c1.1-0.3,2-1,2.7-1.8
		c0.7-0.9,1.5-2.3,2.3-4.3c0.2-0.5,0.4-0.7,0.4-0.8c0.1,0,0.2-0.1,0.5-0.1c0.3,0,0.4,0,0.5,0.1c0.1,0.1,0.2,0.2,0.2,0.4
		c-2.3,5.5-3.5,8.4-3.6,8.5c-0.1,0-3.2,0.1-9.4,0.1c-4.7,0-7.5,0-8.3,0c-0.8,0-1.2-0.1-1.2-0.1v0c0-0.1-0.1-0.1-0.1-0.2
		c0,0,0-0.2,0.1-0.5c0.1-0.3,0.2-0.6,0.3-0.6c0.1-0.1,0.3-0.1,0.8-0.1c0.6,0,1.2,0,2-0.1c0.3-0.1,0.5-0.2,0.6-0.4
		c0-0.1,0.8-3.2,2.3-9.2c1.5-6,2.3-9.1,2.3-9.2c0-0.2,0-0.2-0.1-0.2c-0.2-0.1-0.8-0.1-1.7-0.2h-1c-0.1-0.1-0.2-0.2-0.2-0.3
		c0-0.1,0-0.2,0.1-0.5c0.1-0.4,0.2-0.6,0.3-0.7h18.2c0.2,0.2,0.2,0.3,0.2,0.4c0,0.1-0.1,1.3-0.4,3.7c-0.3,2.3-0.4,3.5-0.5,3.6
		c0,0.2-0.3,0.2-0.7,0.2H257C256.8,199.5,256.8,199.4,256.8,199.3z"/>
</g>
<g enable-background="new    ">
	<path d="M213.4,205.9c0-2.6,0.9-4.8,2.6-6.5c1.8-1.7,3.9-2.7,6.4-3c0,0,0.2,0,0.6,0c0.3,0,0.8,0,1.4,0c0.6,0,1.1,0,1.6,0h3.2
		c0.3,0.2,0.5,0.4,0.5,0.7c0,0.2-0.1,0.4-0.4,0.6l-3.4,0c-2.4,0-3.9,0.1-4.5,0.2c-1.6,0.4-3,1.2-4.2,2.2s-1.9,2.3-2.3,3.9
		c-0.1,0.5-0.2,0.9-0.2,1.2v0.1h14.6c0.3,0.2,0.5,0.4,0.5,0.7c0,0.3-0.2,0.5-0.5,0.7h-14.6v0.1c0,0.3,0.1,0.7,0.2,1.2
		c0.4,1.5,1.2,2.8,2.3,3.9c1.2,1.1,2.6,1.8,4.1,2.2c0.6,0.1,2.1,0.2,4.5,0.2h3.4c0.3,0.2,0.4,0.4,0.4,0.7c0,0.3-0.2,0.5-0.5,0.7
		h-3.2c-2.4,0-3.8,0-4.4-0.1c-2-0.3-3.8-1.2-5.3-2.6c-1.5-1.4-2.5-3-2.9-4.9C213.5,207.3,213.4,206.6,213.4,205.9z"/>
</g>
<g enable-background="new    ">
	<path d="M198.5,215.8c-0.6,0-1-0.1-1.4-0.4c-0.3-0.3-0.5-0.7-0.5-1.3c0-0.2,0-0.3,0-0.5c0.1-0.4,0.3-1.1,0.6-2l0.2-0.7
		c0.1-0.2,0.1-0.3,0.1-0.5c0-0.2-0.1-0.3-0.3-0.3c-0.1,0-0.1,0-0.2,0c-0.5,0.2-0.8,0.7-1,1.6c0,0,0,0,0,0c0,0,0,0,0,0c0,0,0,0,0,0
		c0,0,0,0,0,0c0,0,0,0-0.1,0s-0.1,0-0.1,0h-0.2c-0.1-0.1-0.1-0.1-0.1-0.1s0-0.1,0-0.2c0.2-0.7,0.6-1.3,1-1.6
		c0.2-0.2,0.5-0.3,0.8-0.3c0.4,0,0.6,0.1,0.9,0.3c0.2,0.2,0.3,0.5,0.3,0.8c0,0.2,0,0.3,0,0.4c0,0.1-0.1,0.3-0.2,0.6
		c-0.4,1.1-0.6,1.9-0.7,2.4c0,0.2,0,0.4,0.1,0.6c0.1,0.4,0.4,0.6,0.9,0.6c0.2,0,0.5-0.1,0.7-0.2c0.6-0.4,1-1.2,1.4-2.6
		c0.1-0.3,0.1-0.5,0.1-0.6c0-0.4-0.2-0.8-0.5-1.1c-0.1-0.1-0.2-0.2-0.2-0.4c0-0.2,0.1-0.4,0.3-0.6c0.2-0.2,0.4-0.3,0.6-0.3
		c0.2,0,0.4,0.1,0.5,0.3c0.1,0.2,0.2,0.4,0.2,0.7c0,0.3-0.1,0.8-0.3,1.6c-0.2,0.7-0.4,1.3-0.7,1.8
		C200.1,215.2,199.4,215.8,198.5,215.8z"/>
</g>
<g enable-background="new    ">
</g>
<g enable-background="new    ">
	<path d="M202.5,218.3c0.1,0,0.2,0,0.3,0.1c0.1,0.1,0.1,0.1,0.1,0.2c0,0.1,0,0.2-0.1,0.3s-0.1,0.2-0.2,0.2c-0.1,0-0.1,0-0.1,0
		c0,0,0,0,0,0c0,0,0,0,0,0c0,0,0.1,0.1,0.2,0.1c0.2,0.1,0.4,0.1,0.6,0.1c0.4,0,0.7-0.1,0.9-0.4c0.1-0.1,0.1-0.3,0.1-0.4
		c0-0.2-0.1-0.3-0.3-0.4c-0.1,0-0.2-0.1-0.4-0.1c0,0-0.1,0-0.1,0c-0.1,0-0.1,0-0.1,0s0,0-0.1,0c0,0-0.1,0-0.1,0c0,0,0,0-0.1,0
		c0,0-0.1,0-0.1-0.1c-0.2-0.2-0.3-0.4-0.3-0.7c0-0.3,0.1-0.6,0.3-0.9c0.3-0.3,0.6-0.4,1.1-0.4c0.5,0,0.9,0.2,1,0.6c0,0,0,0.1,0,0.2
		c0,0.2,0,0.3-0.1,0.4s-0.2,0.1-0.3,0.1c-0.1,0-0.2,0-0.2-0.1c-0.1-0.1-0.1-0.1-0.1-0.2c0-0.2,0.1-0.3,0.3-0.4c0,0,0.1,0,0.1,0
		c0,0,0,0,0,0c-0.1-0.1-0.3-0.2-0.6-0.2c-0.2,0-0.4,0.1-0.6,0.2c-0.2,0.1-0.2,0.3-0.2,0.5c0,0.1,0,0.2,0.1,0.3
		c0.1,0.1,0.2,0.1,0.4,0.2c0.3,0.1,0.4,0.1,0.5,0.1c0.3,0.1,0.4,0.3,0.5,0.6c0,0,0,0.1,0,0.2c0,0.2,0,0.4-0.1,0.6
		c-0.3,0.6-0.8,0.9-1.6,0.9c-0.6,0-1-0.2-1.1-0.5c0-0.1-0.1-0.2-0.1-0.3c0-0.2,0.1-0.3,0.2-0.4S202.3,218.3,202.5,218.3z"/>
</g>
<g enable-background="new    ">
	<path d="M202.4,199.9c-0.2,0-0.9,0-2.2,0c-1.3,0-2.1,0-2.2,0h-0.2v-0.6h0.4c0.3,0,0.6,0,0.7,0c0.3,0,0.4,0,0.5,0
		c0.1,0,0.1-0.1,0.2-0.1v-1.2h0c0,0-0.1,0-0.2,0c-0.7-0.1-1.3-0.3-1.8-0.6c-0.8-0.4-1.2-1-1.4-1.7c0-0.1,0-0.2,0-0.3
		c0-0.2,0-0.3,0-0.3c0.2-0.7,0.6-1.2,1.4-1.7c0.6-0.3,1.2-0.5,1.8-0.6c0.1,0,0.2,0,0.2,0h0v-1.2c-0.1,0-0.1-0.1-0.1-0.1
		c0,0-0.1,0-0.1,0c-0.1,0-0.1,0-0.2,0c-0.1,0-0.2,0-0.3,0c-0.1,0-0.3,0-0.7,0h-0.4v-0.6h0.2c0.2,0,0.9,0,2.2,0c1.3,0,2.1,0,2.2,0
		h0.2v0.6h-0.4c-0.3,0-0.6,0-0.7,0c-0.3,0-0.4,0-0.5,0c-0.1,0-0.1,0.1-0.2,0.1v1.2l0.2,0c0.7,0.1,1.3,0.3,1.9,0.6
		c0.6,0.3,0.9,0.7,1.2,1.1c0.1,0.3,0.2,0.5,0.2,0.8c0,0.3-0.1,0.6-0.2,0.8c-0.2,0.4-0.6,0.8-1.2,1.1c-0.6,0.3-1.2,0.5-1.9,0.6
		l-0.2,0v1.2c0.1,0.1,0.1,0.1,0.2,0.1c0.1,0,0.2,0,0.5,0c0.1,0,0.3,0,0.7,0h0.4v0.6H202.4z M197.6,195.3c0,0.6,0.2,1.1,0.5,1.5
		c0.3,0.3,0.8,0.5,1.4,0.6h0.1v-4.2h0c-0.1,0-0.2,0-0.4,0.1c-0.5,0.1-0.9,0.3-1.1,0.7C197.7,194.2,197.6,194.7,197.6,195.3z
		 M200.9,197.4c0.6-0.1,1.1-0.3,1.4-0.6c0.3-0.3,0.5-0.8,0.5-1.5c0-0.6-0.1-1.1-0.4-1.4c-0.3-0.3-0.7-0.5-1.2-0.6
		c-0.1,0-0.2,0-0.2,0h-0.1L200.9,197.4L200.9,197.4z"/>
</g>
<g enable-background="new    ">
	<path d="M201.9,203.9C201.8,203.9,201.8,203.9,201.9,203.9c-0.1-0.1-0.1-0.2,0-0.2c0-0.1,0-0.1,0-0.1l0,0h0.1
		c0.4,0,0.7-0.2,0.9-0.4c0,0,0.5-0.9,1.5-2.6c1-1.7,1.5-2.6,1.5-2.6c0-0.1,0.1-0.1,0.1-0.1s0.1,0,0.2,0h0.1c0,0.1,0.1,0.1,0.1,0.1
		l0.2,2.7c0.2,1.8,0.2,2.8,0.3,2.8c0,0.1,0.2,0.1,0.6,0.1c0.1,0,0.1,0,0.1,0c0,0,0,0,0.1,0c0,0,0,0,0,0.1c0,0,0,0.1,0,0.1
		c0,0.1,0,0.1,0,0.2c0,0-0.1,0-0.1,0c-0.1,0-0.3,0-0.5,0c-0.2,0-0.4,0-0.6,0c-0.5,0-0.9,0-1,0h-0.1c0,0-0.1-0.1-0.1-0.1
		c0,0,0-0.1,0-0.2c0-0.1,0-0.1,0.1-0.1l0,0h0.2c0.3,0,0.5-0.1,0.5-0.1l-0.1-1.3h-2l-0.3,0.5c-0.2,0.3-0.3,0.5-0.3,0.6
		c0,0,0,0.1,0,0.1c0,0.1,0.1,0.2,0.4,0.2c0.1,0,0.2,0,0.2,0.1c0,0,0,0.1,0,0.1c0,0.1,0,0.1-0.1,0.2c0,0-0.1,0-0.1,0
		c-0.1,0-0.2,0-0.5,0c-0.2,0-0.4,0-0.5,0C202.3,203.9,202,203.9,201.9,203.9L201.9,203.9z M205.9,201.7c0-0.1,0-0.5-0.1-1.3
		c-0.1-0.8-0.1-1.2-0.1-1.2l-0.2,0.4c-0.1,0.2-0.3,0.5-0.5,0.9l-0.8,1.3l0.9,0C205.6,201.7,205.9,201.7,205.9,201.7z"/>
</g>
<g enable-background="new    ">
	<path d="M258,121.6l0.1,0c0.1,0,0.2,0,0.3,0h0.4c0.2,0.1,0.5,0.4,0.9,0.8c3.9,3.6,5.9,8.8,5.9,15.6c0,2.7-0.3,5.1-0.9,7.3
		c-1,3.5-2.7,6.2-4.9,8.3c-0.2,0.1-0.3,0.3-0.5,0.4c-0.2,0.2-0.3,0.3-0.4,0.3h-0.4c-0.3,0-0.4,0-0.5-0.1c-0.1,0-0.1-0.2-0.1-0.3
		c0,0,0.1-0.2,0.4-0.4c3.4-3.5,5.1-8.7,5.1-15.6s-1.7-12-5.1-15.6c-0.2-0.3-0.3-0.4-0.4-0.4C257.9,121.8,257.9,121.7,258,121.6z"/>
</g>
<g enable-background="new    ">
	<path d="M264.7,47.3l0.1,0c0.1,0,0.2,0,0.3,0h0.4c0.2,0.1,0.5,0.4,0.9,0.8c3.9,3.6,5.9,8.8,5.9,15.6c0,2.7-0.3,5.1-0.9,7.3
		c-1,3.5-2.7,6.2-4.9,8.3c-0.2,0.1-0.3,0.3-0.5,0.4c-0.2,0.2-0.3,0.3-0.4,0.3h-0.4c-0.3,0-0.4,0-0.5-0.1c-0.1,0-0.1-0.2-0.1-0.3
		c0,0,0.1-0.2,0.4-0.4c3.4-3.5,5.1-8.7,5.1-15.6c0-6.9-1.7-12-5.1-15.6c-0.2-0.3-0.3-0.4-0.4-0.4C264.5,47.5,264.6,47.3,264.7,47.3z
		"/>
</g>
</svg>
